<svg xmlns="http://www.w3.org/2000/svg" width="1700" height="900" viewBox="0 0 1700 900">
<defs>
<style>
text{font-family:Arial,Helvetica,sans-serif;fill:#111111}
.title{font-size:58px;font-weight:700}
.subtitle{font-size:34px;fill:#4b5563}
.head{font-size:36px;font-weight:700}
.label{font-size:32px}
.small{font-size:28px;fill:#4b5563}
.tiny{font-size:24px;fill:#4b5563}
.num{font-size:52px;font-weight:700}
.huge{font-size:78px;font-weight:700}
</style>
</defs>
<rect width="1700" height="900" fill="#ffffff"/>
<text x="70" y="82" class="title">Register scarcity</text>
<text x="70" y="132" class="subtitle">Category support is uneven across the frozen snapshot.</text>
<text x="115" y="240" class="head" text-anchor="start">Official support</text>
<text x="600" y="249" class="huge" text-anchor="start">11</text>
<rect x="780" y="193" width="610" height="42" rx="0" fill="#e5e9ef" stroke="#e5e9ef" stroke-width="1"/>
<rect x="780" y="193" width="610" height="42" rx="0" fill="#174a7c" stroke="#174a7c" stroke-width="1"/>
<text x="115" y="365" class="head" text-anchor="start">Candidate-only</text>
<text x="600" y="374" class="huge" text-anchor="start">1</text>
<rect x="780" y="318" width="610" height="42" rx="0" fill="#e5e9ef" stroke="#e5e9ef" stroke-width="1"/>
<rect x="780" y="318" width="55" height="42" rx="0" fill="#6b7280" stroke="#6b7280" stroke-width="1"/>
<text x="115" y="490" class="head" text-anchor="start">Zero-seed gaps</text>
<text x="600" y="499" class="huge" text-anchor="start">3</text>
<rect x="780" y="443" width="610" height="42" rx="0" fill="#e5e9ef" stroke="#e5e9ef" stroke-width="1"/>
<rect x="780" y="443" width="166" height="42" rx="0" fill="#6b7280" stroke="#6b7280" stroke-width="1"/>
<line x1="90" y1="585" x2="1600" y2="585" stroke="#111111" stroke-width="4"/>
<text x="115" y="650" class="head" text-anchor="start">Largest seeded categories</text>
<text x="115" y="705" class="small" text-anchor="start">Security risk</text>
<text x="1150" y="705" class="small" text-anchor="start">9 seeds / 8 official</text>
<text x="115" y="749" class="small" text-anchor="start">Agentic control failure</text>
<text x="1150" y="749" class="small" text-anchor="start">9 seeds / 8 official</text>
<text x="115" y="793" class="small" text-anchor="start">Public-sector misuse or evidence gap</text>
<text x="1150" y="793" class="small" text-anchor="start">7 seeds / 4 official</text>
<text x="115" y="837" class="small" text-anchor="start">Unlawful or allegedly unlawful use</text>
<text x="1150" y="837" class="small" text-anchor="start">5 seeds / 3 official</text>
<text x="115" y="870" class="small" text-anchor="start">Zero-seed rows: health / medical, research integrity, residual.</text>
</svg>
