<?xml version="1.0" encoding="utf-8" standalone="no"?>
<!DOCTYPE svg PUBLIC "-//W3C//DTD SVG 1.1//EN"
  "http://www.w3.org/Graphics/SVG/1.1/DTD/svg11.dtd">
<svg xmlns:xlink="http://www.w3.org/1999/xlink" width="844.722195pt" height="371.798437pt" viewBox="0 0 844.722195 371.798437" xmlns="http://www.w3.org/2000/svg" version="1.1">
 <metadata>
  <rdf:RDF xmlns:dc="http://purl.org/dc/elements/1.1/" xmlns:cc="http://creativecommons.org/ns#" xmlns:rdf="http://www.w3.org/1999/02/22-rdf-syntax-ns#">
   <cc:Work>
    <dc:type rdf:resource="http://purl.org/dc/dcmitype/StillImage"/>
    <dc:date>2026-06-18T00:03:28.624073</dc:date>
    <dc:format>image/svg+xml</dc:format>
    <dc:creator>
     <cc:Agent>
      <dc:title>Matplotlib v3.11.0, https://matplotlib.org/</dc:title>
     </cc:Agent>
    </dc:creator>
   </cc:Work>
  </rdf:RDF>
 </metadata>
 <defs>
  <style type="text/css">*{stroke-linejoin: round; stroke-linecap: butt}</style>
 </defs>
 <g id="figure_1">
  <g id="patch_1">
   <path d="M 0 371.798437 
L 844.722195 371.798437 
L 844.722195 0 
L 0 0 
z
" style="fill: #ffffff"/>
  </g>
  <g id="axes_1">
   <g id="patch_2">
    <path d="M 194.13625 335.597656 
L 548.970114 335.597656 
L 548.970114 73.628379 
L 194.13625 73.628379 
z
" style="fill: #ffffff"/>
   </g>
   <g id="patch_3">
    <path d="M 194.13625 323.689962 
L 194.13625 323.689962 
L 194.13625 290.84115 
L 194.13625 290.84115 
z
" clip-path="url(#pedaceaa279)" style="fill: #f0f0f0; stroke: #333333; stroke-width: 0.5; stroke-linejoin: miter"/>
   </g>
   <g id="patch_4">
    <path d="M 194.13625 282.628947 
L 319.371731 282.628947 
L 319.371731 249.780134 
L 194.13625 249.780134 
z
" clip-path="url(#pedaceaa279)" style="fill: #fd8d3c; stroke: #333333; stroke-width: 0.5; stroke-linejoin: miter"/>
   </g>
   <g id="patch_5">
    <path d="M 194.13625 241.567931 
L 194.13625 241.567931 
L 194.13625 208.719119 
L 194.13625 208.719119 
z
" clip-path="url(#pedaceaa279)" style="fill: #f0f0f0; stroke: #333333; stroke-width: 0.5; stroke-linejoin: miter"/>
   </g>
   <g id="patch_6">
    <path d="M 194.13625 200.506916 
L 486.352373 200.506916 
L 486.352373 167.658104 
L 194.13625 167.658104 
z
" clip-path="url(#pedaceaa279)" style="fill: #2ca25f; stroke: #333333; stroke-width: 0.5; stroke-linejoin: miter"/>
   </g>
   <g id="patch_7">
    <path d="M 194.13625 159.445901 
L 215.00883 159.445901 
L 215.00883 126.597089 
L 194.13625 126.597089 
z
" clip-path="url(#pedaceaa279)" style="fill: #66c2a4; stroke: #333333; stroke-width: 0.5; stroke-linejoin: miter"/>
   </g>
   <g id="patch_8">
    <path d="M 194.13625 118.384886 
L 194.13625 118.384886 
L 194.13625 85.536073 
L 194.13625 85.536073 
z
" clip-path="url(#pedaceaa279)" style="fill: #f0f0f0; stroke: #333333; stroke-width: 0.5; stroke-linejoin: miter"/>
   </g>
   <g id="matplotlib.axis_1">
    <g id="xtick_1">
     <g id="line2d_1">
      <defs>
       <path id="m72193bd638" d="M 0 0 
L 0 3.5 
" style="stroke: #000000; stroke-width: 0.8"/>
      </defs>
      <g>
       <use xlink:href="#m72193bd638" x="194.13625" y="335.597656" style="stroke: #000000; stroke-width: 0.8"/>
      </g>
     </g>
     <g id="text_1">
      <!-- 0 -->
      <g transform="translate(191.59125 348.675781) scale(0.08 -0.08)">
       <defs>
        <path id="DejaVuSans-13" d="M 2034 4250 
Q 1547 4250 1301 3770 
Q 1056 3291 1056 2328 
Q 1056 1369 1301 889 
Q 1547 409 2034 409 
Q 2525 409 2770 889 
Q 3016 1369 3016 2328 
Q 3016 3291 2770 3770 
Q 2525 4250 2034 4250 
z
M 2034 4750 
Q 2819 4750 3233 4129 
Q 3647 3509 3647 2328 
Q 3647 1150 3233 529 
Q 2819 -91 2034 -91 
Q 1250 -91 836 529 
Q 422 1150 422 2328 
Q 422 3509 836 4129 
Q 1250 4750 2034 4750 
z
" transform="scale(0.015625)"/>
       </defs>
       <use xlink:href="#DejaVuSans-13"/>
      </g>
     </g>
    </g>
    <g id="xtick_2">
     <g id="line2d_2">
      <g>
       <use xlink:href="#m72193bd638" x="235.88141" y="335.597656" style="stroke: #000000; stroke-width: 0.8"/>
      </g>
     </g>
     <g id="text_2">
      <!-- 2 -->
      <g transform="translate(233.33641 348.675781) scale(0.08 -0.08)">
       <defs>
        <path id="DejaVuSans-15" d="M 1228 531 
L 3431 531 
L 3431 0 
L 469 0 
L 469 531 
Q 828 903 1448 1529 
Q 2069 2156 2228 2338 
Q 2531 2678 2651 2914 
Q 2772 3150 2772 3378 
Q 2772 3750 2511 3984 
Q 2250 4219 1831 4219 
Q 1534 4219 1204 4116 
Q 875 4013 500 3803 
L 500 4441 
Q 881 4594 1212 4672 
Q 1544 4750 1819 4750 
Q 2544 4750 2975 4387 
Q 3406 4025 3406 3419 
Q 3406 3131 3298 2873 
Q 3191 2616 2906 2266 
Q 2828 2175 2409 1742 
Q 1991 1309 1228 531 
z
" transform="scale(0.015625)"/>
       </defs>
       <use xlink:href="#DejaVuSans-15"/>
      </g>
     </g>
    </g>
    <g id="xtick_3">
     <g id="line2d_3">
      <g>
       <use xlink:href="#m72193bd638" x="277.626571" y="335.597656" style="stroke: #000000; stroke-width: 0.8"/>
      </g>
     </g>
     <g id="text_3">
      <!-- 4 -->
      <g transform="translate(275.081571 348.675781) scale(0.08 -0.08)">
       <defs>
        <path id="DejaVuSans-17" d="M 2419 4116 
L 825 1625 
L 2419 1625 
L 2419 4116 
z
M 2253 4666 
L 3047 4666 
L 3047 1625 
L 3713 1625 
L 3713 1100 
L 3047 1100 
L 3047 0 
L 2419 0 
L 2419 1100 
L 313 1100 
L 313 1709 
L 2253 4666 
z
" transform="scale(0.015625)"/>
       </defs>
       <use xlink:href="#DejaVuSans-17"/>
      </g>
     </g>
    </g>
    <g id="xtick_4">
     <g id="line2d_4">
      <g>
       <use xlink:href="#m72193bd638" x="319.371731" y="335.597656" style="stroke: #000000; stroke-width: 0.8"/>
      </g>
     </g>
     <g id="text_4">
      <!-- 6 -->
      <g transform="translate(316.826731 348.675781) scale(0.08 -0.08)">
       <defs>
        <path id="DejaVuSans-19" d="M 2113 2584 
Q 1688 2584 1439 2293 
Q 1191 2003 1191 1497 
Q 1191 994 1439 701 
Q 1688 409 2113 409 
Q 2538 409 2786 701 
Q 3034 994 3034 1497 
Q 3034 2003 2786 2293 
Q 2538 2584 2113 2584 
z
M 3366 4563 
L 3366 3988 
Q 3128 4100 2886 4159 
Q 2644 4219 2406 4219 
Q 1781 4219 1451 3797 
Q 1122 3375 1075 2522 
Q 1259 2794 1537 2939 
Q 1816 3084 2150 3084 
Q 2853 3084 3261 2657 
Q 3669 2231 3669 1497 
Q 3669 778 3244 343 
Q 2819 -91 2113 -91 
Q 1303 -91 875 529 
Q 447 1150 447 2328 
Q 447 3434 972 4092 
Q 1497 4750 2381 4750 
Q 2619 4750 2861 4703 
Q 3103 4656 3366 4563 
z
" transform="scale(0.015625)"/>
       </defs>
       <use xlink:href="#DejaVuSans-19"/>
      </g>
     </g>
    </g>
    <g id="xtick_5">
     <g id="line2d_5">
      <g>
       <use xlink:href="#m72193bd638" x="361.116892" y="335.597656" style="stroke: #000000; stroke-width: 0.8"/>
      </g>
     </g>
     <g id="text_5">
      <!-- 8 -->
      <g transform="translate(358.571892 348.675781) scale(0.08 -0.08)">
       <defs>
        <path id="DejaVuSans-1b" d="M 2034 2216 
Q 1584 2216 1326 1975 
Q 1069 1734 1069 1313 
Q 1069 891 1326 650 
Q 1584 409 2034 409 
Q 2484 409 2743 651 
Q 3003 894 3003 1313 
Q 3003 1734 2745 1975 
Q 2488 2216 2034 2216 
z
M 1403 2484 
Q 997 2584 770 2862 
Q 544 3141 544 3541 
Q 544 4100 942 4425 
Q 1341 4750 2034 4750 
Q 2731 4750 3128 4425 
Q 3525 4100 3525 3541 
Q 3525 3141 3298 2862 
Q 3072 2584 2669 2484 
Q 3125 2378 3379 2068 
Q 3634 1759 3634 1313 
Q 3634 634 3220 271 
Q 2806 -91 2034 -91 
Q 1263 -91 848 271 
Q 434 634 434 1313 
Q 434 1759 690 2068 
Q 947 2378 1403 2484 
z
M 1172 3481 
Q 1172 3119 1398 2916 
Q 1625 2713 2034 2713 
Q 2441 2713 2670 2916 
Q 2900 3119 2900 3481 
Q 2900 3844 2670 4047 
Q 2441 4250 2034 4250 
Q 1625 4250 1398 4047 
Q 1172 3844 1172 3481 
z
" transform="scale(0.015625)"/>
       </defs>
       <use xlink:href="#DejaVuSans-1b"/>
      </g>
     </g>
    </g>
    <g id="xtick_6">
     <g id="line2d_6">
      <g>
       <use xlink:href="#m72193bd638" x="402.862052" y="335.597656" style="stroke: #000000; stroke-width: 0.8"/>
      </g>
     </g>
     <g id="text_6">
      <!-- 10 -->
      <g transform="translate(397.772052 348.675781) scale(0.08 -0.08)">
       <defs>
        <path id="DejaVuSans-14" d="M 794 531 
L 1825 531 
L 1825 4091 
L 703 3866 
L 703 4441 
L 1819 4666 
L 2450 4666 
L 2450 531 
L 3481 531 
L 3481 0 
L 794 0 
L 794 531 
z
" transform="scale(0.015625)"/>
       </defs>
       <use xlink:href="#DejaVuSans-14"/>
       <use xlink:href="#DejaVuSans-13" transform="translate(63.625 0)"/>
      </g>
     </g>
    </g>
    <g id="xtick_7">
     <g id="line2d_7">
      <g>
       <use xlink:href="#m72193bd638" x="444.607213" y="335.597656" style="stroke: #000000; stroke-width: 0.8"/>
      </g>
     </g>
     <g id="text_7">
      <!-- 12 -->
      <g transform="translate(439.517213 348.675781) scale(0.08 -0.08)">
       <use xlink:href="#DejaVuSans-14"/>
       <use xlink:href="#DejaVuSans-15" transform="translate(63.625 0)"/>
      </g>
     </g>
    </g>
    <g id="xtick_8">
     <g id="line2d_8">
      <g>
       <use xlink:href="#m72193bd638" x="486.352373" y="335.597656" style="stroke: #000000; stroke-width: 0.8"/>
      </g>
     </g>
     <g id="text_8">
      <!-- 14 -->
      <g transform="translate(481.262373 348.675781) scale(0.08 -0.08)">
       <use xlink:href="#DejaVuSans-14"/>
       <use xlink:href="#DejaVuSans-17" transform="translate(63.625 0)"/>
      </g>
     </g>
    </g>
    <g id="xtick_9">
     <g id="line2d_9">
      <g>
       <use xlink:href="#m72193bd638" x="528.097533" y="335.597656" style="stroke: #000000; stroke-width: 0.8"/>
      </g>
     </g>
     <g id="text_9">
      <!-- 16 -->
      <g transform="translate(523.007533 348.675781) scale(0.08 -0.08)">
       <use xlink:href="#DejaVuSans-14"/>
       <use xlink:href="#DejaVuSans-19" transform="translate(63.625 0)"/>
      </g>
     </g>
    </g>
    <g id="text_10">
     <!-- Lineage count -->
     <g transform="translate(336.122713 362.196094) scale(0.1 -0.1)">
      <defs>
       <path id="DejaVuSans-2f" d="M 628 4666 
L 1259 4666 
L 1259 531 
L 3531 531 
L 3531 0 
L 628 0 
L 628 4666 
z
" transform="scale(0.015625)"/>
       <path id="DejaVuSans-4c" d="M 603 3500 
L 1178 3500 
L 1178 0 
L 603 0 
L 603 3500 
z
M 603 4863 
L 1178 4863 
L 1178 4134 
L 603 4134 
L 603 4863 
z
" transform="scale(0.015625)"/>
       <path id="DejaVuSans-51" d="M 3513 2113 
L 3513 0 
L 2938 0 
L 2938 2094 
Q 2938 2591 2744 2837 
Q 2550 3084 2163 3084 
Q 1697 3084 1428 2787 
Q 1159 2491 1159 1978 
L 1159 0 
L 581 0 
L 581 3500 
L 1159 3500 
L 1159 2956 
Q 1366 3272 1645 3428 
Q 1925 3584 2291 3584 
Q 2894 3584 3203 3211 
Q 3513 2838 3513 2113 
z
" transform="scale(0.015625)"/>
       <path id="DejaVuSans-48" d="M 3597 1894 
L 3597 1613 
L 953 1613 
Q 991 1019 1311 708 
Q 1631 397 2203 397 
Q 2534 397 2845 478 
Q 3156 559 3463 722 
L 3463 178 
Q 3153 47 2828 -22 
Q 2503 -91 2169 -91 
Q 1331 -91 842 396 
Q 353 884 353 1716 
Q 353 2575 817 3079 
Q 1281 3584 2069 3584 
Q 2775 3584 3186 3129 
Q 3597 2675 3597 1894 
z
M 3022 2063 
Q 3016 2534 2758 2815 
Q 2500 3097 2075 3097 
Q 1594 3097 1305 2825 
Q 1016 2553 972 2059 
L 3022 2063 
z
" transform="scale(0.015625)"/>
       <path id="DejaVuSans-44" d="M 2194 1759 
Q 1497 1759 1228 1600 
Q 959 1441 959 1056 
Q 959 750 1161 570 
Q 1363 391 1709 391 
Q 2188 391 2477 730 
Q 2766 1069 2766 1631 
L 2766 1759 
L 2194 1759 
z
M 3341 1997 
L 3341 0 
L 2766 0 
L 2766 531 
Q 2569 213 2275 61 
Q 1981 -91 1556 -91 
Q 1019 -91 701 211 
Q 384 513 384 1019 
Q 384 1609 779 1909 
Q 1175 2209 1959 2209 
L 2766 2209 
L 2766 2266 
Q 2766 2663 2505 2880 
Q 2244 3097 1772 3097 
Q 1472 3097 1187 3025 
Q 903 2953 641 2809 
L 641 3341 
Q 956 3463 1253 3523 
Q 1550 3584 1831 3584 
Q 2591 3584 2966 3190 
Q 3341 2797 3341 1997 
z
" transform="scale(0.015625)"/>
       <path id="DejaVuSans-4a" d="M 2906 1791 
Q 2906 2416 2648 2759 
Q 2391 3103 1925 3103 
Q 1463 3103 1205 2759 
Q 947 2416 947 1791 
Q 947 1169 1205 825 
Q 1463 481 1925 481 
Q 2391 481 2648 825 
Q 2906 1169 2906 1791 
z
M 3481 434 
Q 3481 -459 3084 -895 
Q 2688 -1331 1869 -1331 
Q 1566 -1331 1297 -1286 
Q 1028 -1241 775 -1147 
L 775 -588 
Q 1028 -725 1275 -790 
Q 1522 -856 1778 -856 
Q 2344 -856 2625 -561 
Q 2906 -266 2906 331 
L 2906 616 
Q 2728 306 2450 153 
Q 2172 0 1784 0 
Q 1141 0 747 490 
Q 353 981 353 1791 
Q 353 2603 747 3093 
Q 1141 3584 1784 3584 
Q 2172 3584 2450 3431 
Q 2728 3278 2906 2969 
L 2906 3500 
L 3481 3500 
L 3481 434 
z
" transform="scale(0.015625)"/>
       <path id="DejaVuSans-3" transform="scale(0.015625)"/>
       <path id="DejaVuSans-46" d="M 3122 3366 
L 3122 2828 
Q 2878 2963 2633 3030 
Q 2388 3097 2138 3097 
Q 1578 3097 1268 2742 
Q 959 2388 959 1747 
Q 959 1106 1268 751 
Q 1578 397 2138 397 
Q 2388 397 2633 464 
Q 2878 531 3122 666 
L 3122 134 
Q 2881 22 2623 -34 
Q 2366 -91 2075 -91 
Q 1284 -91 818 406 
Q 353 903 353 1747 
Q 353 2603 823 3093 
Q 1294 3584 2113 3584 
Q 2378 3584 2631 3529 
Q 2884 3475 3122 3366 
z
" transform="scale(0.015625)"/>
       <path id="DejaVuSans-52" d="M 1959 3097 
Q 1497 3097 1228 2736 
Q 959 2375 959 1747 
Q 959 1119 1226 758 
Q 1494 397 1959 397 
Q 2419 397 2687 759 
Q 2956 1122 2956 1747 
Q 2956 2369 2687 2733 
Q 2419 3097 1959 3097 
z
M 1959 3584 
Q 2709 3584 3137 3096 
Q 3566 2609 3566 1747 
Q 3566 888 3137 398 
Q 2709 -91 1959 -91 
Q 1206 -91 779 398 
Q 353 888 353 1747 
Q 353 2609 779 3096 
Q 1206 3584 1959 3584 
z
" transform="scale(0.015625)"/>
       <path id="DejaVuSans-58" d="M 544 1381 
L 544 3500 
L 1119 3500 
L 1119 1403 
Q 1119 906 1312 657 
Q 1506 409 1894 409 
Q 2359 409 2629 706 
Q 2900 1003 2900 1516 
L 2900 3500 
L 3475 3500 
L 3475 0 
L 2900 0 
L 2900 538 
Q 2691 219 2414 64 
Q 2138 -91 1772 -91 
Q 1169 -91 856 284 
Q 544 659 544 1381 
z
M 1991 3584 
L 1991 3584 
z
" transform="scale(0.015625)"/>
       <path id="DejaVuSans-57" d="M 1172 4494 
L 1172 3500 
L 2356 3500 
L 2356 3053 
L 1172 3053 
L 1172 1153 
Q 1172 725 1289 603 
Q 1406 481 1766 481 
L 2356 481 
L 2356 0 
L 1766 0 
Q 1100 0 847 248 
Q 594 497 594 1153 
L 594 3053 
L 172 3053 
L 172 3500 
L 594 3500 
L 594 4494 
L 1172 4494 
z
" transform="scale(0.015625)"/>
      </defs>
      <use xlink:href="#DejaVuSans-2f"/>
      <use xlink:href="#DejaVuSans-4c" transform="translate(55.71875 0)"/>
      <use xlink:href="#DejaVuSans-51" transform="translate(83.5 0)"/>
      <use xlink:href="#DejaVuSans-48" transform="translate(146.875 0)"/>
      <use xlink:href="#DejaVuSans-44" transform="translate(208.40625 0)"/>
      <use xlink:href="#DejaVuSans-4a" transform="translate(269.6875 0)"/>
      <use xlink:href="#DejaVuSans-48" transform="translate(333.171875 0)"/>
      <use xlink:href="#DejaVuSans-3" transform="translate(394.703125 0)"/>
      <use xlink:href="#DejaVuSans-46" transform="translate(426.484375 0)"/>
      <use xlink:href="#DejaVuSans-52" transform="translate(481.46875 0)"/>
      <use xlink:href="#DejaVuSans-58" transform="translate(542.65625 0)"/>
      <use xlink:href="#DejaVuSans-51" transform="translate(606.03125 0)"/>
      <use xlink:href="#DejaVuSans-57" transform="translate(669.40625 0)"/>
     </g>
    </g>
   </g>
   <g id="matplotlib.axis_2">
    <g id="ytick_1">
     <g id="line2d_10">
      <defs>
       <path id="mcc00f97aca" d="M 0 0 
L -3.5 0 
" style="stroke: #000000; stroke-width: 0.8"/>
      </defs>
      <g>
       <use xlink:href="#mcc00f97aca" x="194.13625" y="307.265556" style="stroke: #000000; stroke-width: 0.8"/>
      </g>
     </g>
     <g id="text_11">
      <!-- T0 discovered lead -->
      <g transform="translate(111.415 310.304931) scale(0.08 -0.08)">
       <defs>
        <path id="DejaVuSans-37" d="M -19 4666 
L 3928 4666 
L 3928 4134 
L 2272 4134 
L 2272 0 
L 1638 0 
L 1638 4134 
L -19 4134 
L -19 4666 
z
" transform="scale(0.015625)"/>
        <path id="DejaVuSans-47" d="M 2906 2969 
L 2906 4863 
L 3481 4863 
L 3481 0 
L 2906 0 
L 2906 525 
Q 2725 213 2448 61 
Q 2172 -91 1784 -91 
Q 1150 -91 751 415 
Q 353 922 353 1747 
Q 353 2572 751 3078 
Q 1150 3584 1784 3584 
Q 2172 3584 2448 3432 
Q 2725 3281 2906 2969 
z
M 947 1747 
Q 947 1113 1208 752 
Q 1469 391 1925 391 
Q 2381 391 2643 752 
Q 2906 1113 2906 1747 
Q 2906 2381 2643 2742 
Q 2381 3103 1925 3103 
Q 1469 3103 1208 2742 
Q 947 2381 947 1747 
z
" transform="scale(0.015625)"/>
        <path id="DejaVuSans-56" d="M 2834 3397 
L 2834 2853 
Q 2591 2978 2328 3040 
Q 2066 3103 1784 3103 
Q 1356 3103 1142 2972 
Q 928 2841 928 2578 
Q 928 2378 1081 2264 
Q 1234 2150 1697 2047 
L 1894 2003 
Q 2506 1872 2764 1633 
Q 3022 1394 3022 966 
Q 3022 478 2636 193 
Q 2250 -91 1575 -91 
Q 1294 -91 989 -36 
Q 684 19 347 128 
L 347 722 
Q 666 556 975 473 
Q 1284 391 1588 391 
Q 1994 391 2212 530 
Q 2431 669 2431 922 
Q 2431 1156 2273 1281 
Q 2116 1406 1581 1522 
L 1381 1569 
Q 847 1681 609 1914 
Q 372 2147 372 2553 
Q 372 3047 722 3315 
Q 1072 3584 1716 3584 
Q 2034 3584 2315 3537 
Q 2597 3491 2834 3397 
z
" transform="scale(0.015625)"/>
        <path id="DejaVuSans-59" d="M 191 3500 
L 800 3500 
L 1894 563 
L 2988 3500 
L 3597 3500 
L 2284 0 
L 1503 0 
L 191 3500 
z
" transform="scale(0.015625)"/>
        <path id="DejaVuSans-55" d="M 2631 2963 
Q 2534 3019 2420 3045 
Q 2306 3072 2169 3072 
Q 1681 3072 1420 2755 
Q 1159 2438 1159 1844 
L 1159 0 
L 581 0 
L 581 3500 
L 1159 3500 
L 1159 2956 
Q 1341 3275 1631 3429 
Q 1922 3584 2338 3584 
Q 2397 3584 2469 3576 
Q 2541 3569 2628 3553 
L 2631 2963 
z
" transform="scale(0.015625)"/>
        <path id="DejaVuSans-4f" d="M 603 4863 
L 1178 4863 
L 1178 0 
L 603 0 
L 603 4863 
z
" transform="scale(0.015625)"/>
       </defs>
       <use xlink:href="#DejaVuSans-37"/>
       <use xlink:href="#DejaVuSans-13" transform="translate(61.078125 0)"/>
       <use xlink:href="#DejaVuSans-3" transform="translate(124.703125 0)"/>
       <use xlink:href="#DejaVuSans-47" transform="translate(156.484375 0)"/>
       <use xlink:href="#DejaVuSans-4c" transform="translate(219.96875 0)"/>
       <use xlink:href="#DejaVuSans-56" transform="translate(247.75 0)"/>
       <use xlink:href="#DejaVuSans-46" transform="translate(299.84375 0)"/>
       <use xlink:href="#DejaVuSans-52" transform="translate(354.828125 0)"/>
       <use xlink:href="#DejaVuSans-59" transform="translate(416.015625 0)"/>
       <use xlink:href="#DejaVuSans-48" transform="translate(475.203125 0)"/>
       <use xlink:href="#DejaVuSans-55" transform="translate(536.734375 0)"/>
       <use xlink:href="#DejaVuSans-48" transform="translate(575.640625 0)"/>
       <use xlink:href="#DejaVuSans-47" transform="translate(637.171875 0)"/>
       <use xlink:href="#DejaVuSans-3" transform="translate(700.65625 0)"/>
       <use xlink:href="#DejaVuSans-4f" transform="translate(732.4375 0)"/>
       <use xlink:href="#DejaVuSans-48" transform="translate(760.21875 0)"/>
       <use xlink:href="#DejaVuSans-44" transform="translate(821.75 0)"/>
       <use xlink:href="#DejaVuSans-47" transform="translate(883.03125 0)"/>
      </g>
     </g>
    </g>
    <g id="ytick_2">
     <g id="line2d_11">
      <g>
       <use xlink:href="#mcc00f97aca" x="194.13625" y="266.20454" style="stroke: #000000; stroke-width: 0.8"/>
      </g>
     </g>
     <g id="text_12">
      <!-- T1 single public source -->
      <g transform="translate(95.21125 269.243915) scale(0.08 -0.08)">
       <defs>
        <path id="DejaVuSans-53" d="M 1159 525 
L 1159 -1331 
L 581 -1331 
L 581 3500 
L 1159 3500 
L 1159 2969 
Q 1341 3281 1617 3432 
Q 1894 3584 2278 3584 
Q 2916 3584 3314 3078 
Q 3713 2572 3713 1747 
Q 3713 922 3314 415 
Q 2916 -91 2278 -91 
Q 1894 -91 1617 61 
Q 1341 213 1159 525 
z
M 3116 1747 
Q 3116 2381 2855 2742 
Q 2594 3103 2138 3103 
Q 1681 3103 1420 2742 
Q 1159 2381 1159 1747 
Q 1159 1113 1420 752 
Q 1681 391 2138 391 
Q 2594 391 2855 752 
Q 3116 1113 3116 1747 
z
" transform="scale(0.015625)"/>
        <path id="DejaVuSans-45" d="M 3116 1747 
Q 3116 2381 2855 2742 
Q 2594 3103 2138 3103 
Q 1681 3103 1420 2742 
Q 1159 2381 1159 1747 
Q 1159 1113 1420 752 
Q 1681 391 2138 391 
Q 2594 391 2855 752 
Q 3116 1113 3116 1747 
z
M 1159 2969 
Q 1341 3281 1617 3432 
Q 1894 3584 2278 3584 
Q 2916 3584 3314 3078 
Q 3713 2572 3713 1747 
Q 3713 922 3314 415 
Q 2916 -91 2278 -91 
Q 1894 -91 1617 61 
Q 1341 213 1159 525 
L 1159 0 
L 581 0 
L 581 4863 
L 1159 4863 
L 1159 2969 
z
" transform="scale(0.015625)"/>
       </defs>
       <use xlink:href="#DejaVuSans-37"/>
       <use xlink:href="#DejaVuSans-14" transform="translate(61.078125 0)"/>
       <use xlink:href="#DejaVuSans-3" transform="translate(124.703125 0)"/>
       <use xlink:href="#DejaVuSans-56" transform="translate(156.484375 0)"/>
       <use xlink:href="#DejaVuSans-4c" transform="translate(208.578125 0)"/>
       <use xlink:href="#DejaVuSans-51" transform="translate(236.359375 0)"/>
       <use xlink:href="#DejaVuSans-4a" transform="translate(299.734375 0)"/>
       <use xlink:href="#DejaVuSans-4f" transform="translate(363.21875 0)"/>
       <use xlink:href="#DejaVuSans-48" transform="translate(391 0)"/>
       <use xlink:href="#DejaVuSans-3" transform="translate(452.53125 0)"/>
       <use xlink:href="#DejaVuSans-53" transform="translate(484.3125 0)"/>
       <use xlink:href="#DejaVuSans-58" transform="translate(547.796875 0)"/>
       <use xlink:href="#DejaVuSans-45" transform="translate(611.171875 0)"/>
       <use xlink:href="#DejaVuSans-4f" transform="translate(674.65625 0)"/>
       <use xlink:href="#DejaVuSans-4c" transform="translate(702.4375 0)"/>
       <use xlink:href="#DejaVuSans-46" transform="translate(730.21875 0)"/>
       <use xlink:href="#DejaVuSans-3" transform="translate(785.203125 0)"/>
       <use xlink:href="#DejaVuSans-56" transform="translate(816.984375 0)"/>
       <use xlink:href="#DejaVuSans-52" transform="translate(869.078125 0)"/>
       <use xlink:href="#DejaVuSans-58" transform="translate(930.265625 0)"/>
       <use xlink:href="#DejaVuSans-55" transform="translate(993.640625 0)"/>
       <use xlink:href="#DejaVuSans-46" transform="translate(1032.546875 0)"/>
       <use xlink:href="#DejaVuSans-48" transform="translate(1087.53125 0)"/>
      </g>
     </g>
    </g>
    <g id="ytick_3">
     <g id="line2d_12">
      <g>
       <use xlink:href="#mcc00f97aca" x="194.13625" y="225.143525" style="stroke: #000000; stroke-width: 0.8"/>
      </g>
     </g>
     <g id="text_13">
      <!-- T2 corroborated record -->
      <g transform="translate(94.76625 228.1829) scale(0.08 -0.08)">
       <use xlink:href="#DejaVuSans-37"/>
       <use xlink:href="#DejaVuSans-15" transform="translate(61.078125 0)"/>
       <use xlink:href="#DejaVuSans-3" transform="translate(124.703125 0)"/>
       <use xlink:href="#DejaVuSans-46" transform="translate(156.484375 0)"/>
       <use xlink:href="#DejaVuSans-52" transform="translate(211.46875 0)"/>
       <use xlink:href="#DejaVuSans-55" transform="translate(272.65625 0)"/>
       <use xlink:href="#DejaVuSans-55" transform="translate(312.015625 0)"/>
       <use xlink:href="#DejaVuSans-52" transform="translate(350.921875 0)"/>
       <use xlink:href="#DejaVuSans-45" transform="translate(412.109375 0)"/>
       <use xlink:href="#DejaVuSans-52" transform="translate(475.59375 0)"/>
       <use xlink:href="#DejaVuSans-55" transform="translate(536.78125 0)"/>
       <use xlink:href="#DejaVuSans-44" transform="translate(577.890625 0)"/>
       <use xlink:href="#DejaVuSans-57" transform="translate(639.171875 0)"/>
       <use xlink:href="#DejaVuSans-48" transform="translate(678.375 0)"/>
       <use xlink:href="#DejaVuSans-47" transform="translate(739.90625 0)"/>
       <use xlink:href="#DejaVuSans-3" transform="translate(803.390625 0)"/>
       <use xlink:href="#DejaVuSans-55" transform="translate(835.171875 0)"/>
       <use xlink:href="#DejaVuSans-48" transform="translate(874.078125 0)"/>
       <use xlink:href="#DejaVuSans-46" transform="translate(935.609375 0)"/>
       <use xlink:href="#DejaVuSans-52" transform="translate(990.59375 0)"/>
       <use xlink:href="#DejaVuSans-55" transform="translate(1051.78125 0)"/>
       <use xlink:href="#DejaVuSans-47" transform="translate(1091.140625 0)"/>
      </g>
     </g>
    </g>
    <g id="ytick_4">
     <g id="line2d_13">
      <g>
       <use xlink:href="#mcc00f97aca" x="194.13625" y="184.08251" style="stroke: #000000; stroke-width: 0.8"/>
      </g>
     </g>
     <g id="text_14">
      <!-- T3 authoritative source -->
      <g transform="translate(93.86875 187.121885) scale(0.08 -0.08)">
       <defs>
        <path id="DejaVuSans-16" d="M 2597 2516 
Q 3050 2419 3304 2112 
Q 3559 1806 3559 1356 
Q 3559 666 3084 287 
Q 2609 -91 1734 -91 
Q 1441 -91 1130 -33 
Q 819 25 488 141 
L 488 750 
Q 750 597 1062 519 
Q 1375 441 1716 441 
Q 2309 441 2620 675 
Q 2931 909 2931 1356 
Q 2931 1769 2642 2001 
Q 2353 2234 1838 2234 
L 1294 2234 
L 1294 2753 
L 1863 2753 
Q 2328 2753 2575 2939 
Q 2822 3125 2822 3475 
Q 2822 3834 2567 4026 
Q 2313 4219 1838 4219 
Q 1578 4219 1281 4162 
Q 984 4106 628 3988 
L 628 4550 
Q 988 4650 1302 4700 
Q 1616 4750 1894 4750 
Q 2613 4750 3031 4423 
Q 3450 4097 3450 3541 
Q 3450 3153 3228 2886 
Q 3006 2619 2597 2516 
z
" transform="scale(0.015625)"/>
        <path id="DejaVuSans-4b" d="M 3513 2113 
L 3513 0 
L 2938 0 
L 2938 2094 
Q 2938 2591 2744 2837 
Q 2550 3084 2163 3084 
Q 1697 3084 1428 2787 
Q 1159 2491 1159 1978 
L 1159 0 
L 581 0 
L 581 4863 
L 1159 4863 
L 1159 2956 
Q 1366 3272 1645 3428 
Q 1925 3584 2291 3584 
Q 2894 3584 3203 3211 
Q 3513 2838 3513 2113 
z
" transform="scale(0.015625)"/>
       </defs>
       <use xlink:href="#DejaVuSans-37"/>
       <use xlink:href="#DejaVuSans-16" transform="translate(61.078125 0)"/>
       <use xlink:href="#DejaVuSans-3" transform="translate(124.703125 0)"/>
       <use xlink:href="#DejaVuSans-44" transform="translate(156.484375 0)"/>
       <use xlink:href="#DejaVuSans-58" transform="translate(217.765625 0)"/>
       <use xlink:href="#DejaVuSans-57" transform="translate(281.140625 0)"/>
       <use xlink:href="#DejaVuSans-4b" transform="translate(320.34375 0)"/>
       <use xlink:href="#DejaVuSans-52" transform="translate(383.71875 0)"/>
       <use xlink:href="#DejaVuSans-55" transform="translate(444.90625 0)"/>
       <use xlink:href="#DejaVuSans-4c" transform="translate(486.015625 0)"/>
       <use xlink:href="#DejaVuSans-57" transform="translate(513.796875 0)"/>
       <use xlink:href="#DejaVuSans-44" transform="translate(553 0)"/>
       <use xlink:href="#DejaVuSans-57" transform="translate(614.28125 0)"/>
       <use xlink:href="#DejaVuSans-4c" transform="translate(653.484375 0)"/>
       <use xlink:href="#DejaVuSans-59" transform="translate(681.265625 0)"/>
       <use xlink:href="#DejaVuSans-48" transform="translate(740.453125 0)"/>
       <use xlink:href="#DejaVuSans-3" transform="translate(801.984375 0)"/>
       <use xlink:href="#DejaVuSans-56" transform="translate(833.765625 0)"/>
       <use xlink:href="#DejaVuSans-52" transform="translate(885.859375 0)"/>
       <use xlink:href="#DejaVuSans-58" transform="translate(947.046875 0)"/>
       <use xlink:href="#DejaVuSans-55" transform="translate(1010.421875 0)"/>
       <use xlink:href="#DejaVuSans-46" transform="translate(1049.328125 0)"/>
       <use xlink:href="#DejaVuSans-48" transform="translate(1104.3125 0)"/>
      </g>
     </g>
    </g>
    <g id="ytick_5">
     <g id="line2d_14">
      <g>
       <use xlink:href="#mcc00f97aca" x="194.13625" y="143.021495" style="stroke: #000000; stroke-width: 0.8"/>
      </g>
     </g>
     <g id="text_15">
      <!-- T3 authoritative source (direct URL resolved) -->
      <g transform="translate(7.2 146.06087) scale(0.08 -0.08)">
       <defs>
        <path id="DejaVuSans-b" d="M 1984 4856 
Q 1566 4138 1362 3434 
Q 1159 2731 1159 2009 
Q 1159 1288 1364 580 
Q 1569 -128 1984 -844 
L 1484 -844 
Q 1016 -109 783 600 
Q 550 1309 550 2009 
Q 550 2706 781 3412 
Q 1013 4119 1484 4856 
L 1984 4856 
z
" transform="scale(0.015625)"/>
        <path id="DejaVuSans-38" d="M 556 4666 
L 1191 4666 
L 1191 1831 
Q 1191 1081 1462 751 
Q 1734 422 2344 422 
Q 2950 422 3222 751 
Q 3494 1081 3494 1831 
L 3494 4666 
L 4128 4666 
L 4128 1753 
Q 4128 841 3676 375 
Q 3225 -91 2344 -91 
Q 1459 -91 1007 375 
Q 556 841 556 1753 
L 556 4666 
z
" transform="scale(0.015625)"/>
        <path id="DejaVuSans-35" d="M 2841 2188 
Q 3044 2119 3236 1894 
Q 3428 1669 3622 1275 
L 4263 0 
L 3584 0 
L 2988 1197 
Q 2756 1666 2539 1819 
Q 2322 1972 1947 1972 
L 1259 1972 
L 1259 0 
L 628 0 
L 628 4666 
L 2053 4666 
Q 2853 4666 3247 4331 
Q 3641 3997 3641 3322 
Q 3641 2881 3436 2590 
Q 3231 2300 2841 2188 
z
M 1259 4147 
L 1259 2491 
L 2053 2491 
Q 2509 2491 2742 2702 
Q 2975 2913 2975 3322 
Q 2975 3731 2742 3939 
Q 2509 4147 2053 4147 
L 1259 4147 
z
" transform="scale(0.015625)"/>
        <path id="DejaVuSans-c" d="M 513 4856 
L 1013 4856 
Q 1481 4119 1714 3412 
Q 1947 2706 1947 2009 
Q 1947 1309 1714 600 
Q 1481 -109 1013 -844 
L 513 -844 
Q 928 -128 1133 580 
Q 1338 1288 1338 2009 
Q 1338 2731 1133 3434 
Q 928 4138 513 4856 
z
" transform="scale(0.015625)"/>
       </defs>
       <use xlink:href="#DejaVuSans-37"/>
       <use xlink:href="#DejaVuSans-16" transform="translate(61.078125 0)"/>
       <use xlink:href="#DejaVuSans-3" transform="translate(124.703125 0)"/>
       <use xlink:href="#DejaVuSans-44" transform="translate(156.484375 0)"/>
       <use xlink:href="#DejaVuSans-58" transform="translate(217.765625 0)"/>
       <use xlink:href="#DejaVuSans-57" transform="translate(281.140625 0)"/>
       <use xlink:href="#DejaVuSans-4b" transform="translate(320.34375 0)"/>
       <use xlink:href="#DejaVuSans-52" transform="translate(383.71875 0)"/>
       <use xlink:href="#DejaVuSans-55" transform="translate(444.90625 0)"/>
       <use xlink:href="#DejaVuSans-4c" transform="translate(486.015625 0)"/>
       <use xlink:href="#DejaVuSans-57" transform="translate(513.796875 0)"/>
       <use xlink:href="#DejaVuSans-44" transform="translate(553 0)"/>
       <use xlink:href="#DejaVuSans-57" transform="translate(614.28125 0)"/>
       <use xlink:href="#DejaVuSans-4c" transform="translate(653.484375 0)"/>
       <use xlink:href="#DejaVuSans-59" transform="translate(681.265625 0)"/>
       <use xlink:href="#DejaVuSans-48" transform="translate(740.453125 0)"/>
       <use xlink:href="#DejaVuSans-3" transform="translate(801.984375 0)"/>
       <use xlink:href="#DejaVuSans-56" transform="translate(833.765625 0)"/>
       <use xlink:href="#DejaVuSans-52" transform="translate(885.859375 0)"/>
       <use xlink:href="#DejaVuSans-58" transform="translate(947.046875 0)"/>
       <use xlink:href="#DejaVuSans-55" transform="translate(1010.421875 0)"/>
       <use xlink:href="#DejaVuSans-46" transform="translate(1049.328125 0)"/>
       <use xlink:href="#DejaVuSans-48" transform="translate(1104.3125 0)"/>
       <use xlink:href="#DejaVuSans-3" transform="translate(1165.84375 0)"/>
       <use xlink:href="#DejaVuSans-b" transform="translate(1197.625 0)"/>
       <use xlink:href="#DejaVuSans-47" transform="translate(1236.640625 0)"/>
       <use xlink:href="#DejaVuSans-4c" transform="translate(1300.125 0)"/>
       <use xlink:href="#DejaVuSans-55" transform="translate(1327.90625 0)"/>
       <use xlink:href="#DejaVuSans-48" transform="translate(1366.8125 0)"/>
       <use xlink:href="#DejaVuSans-46" transform="translate(1428.34375 0)"/>
       <use xlink:href="#DejaVuSans-57" transform="translate(1483.328125 0)"/>
       <use xlink:href="#DejaVuSans-3" transform="translate(1522.53125 0)"/>
       <use xlink:href="#DejaVuSans-38" transform="translate(1554.3125 0)"/>
       <use xlink:href="#DejaVuSans-35" transform="translate(1627.5 0)"/>
       <use xlink:href="#DejaVuSans-2f" transform="translate(1696.984375 0)"/>
       <use xlink:href="#DejaVuSans-3" transform="translate(1752.703125 0)"/>
       <use xlink:href="#DejaVuSans-55" transform="translate(1784.484375 0)"/>
       <use xlink:href="#DejaVuSans-48" transform="translate(1823.390625 0)"/>
       <use xlink:href="#DejaVuSans-56" transform="translate(1884.921875 0)"/>
       <use xlink:href="#DejaVuSans-52" transform="translate(1937.015625 0)"/>
       <use xlink:href="#DejaVuSans-4f" transform="translate(1998.203125 0)"/>
       <use xlink:href="#DejaVuSans-59" transform="translate(2025.984375 0)"/>
       <use xlink:href="#DejaVuSans-48" transform="translate(2085.171875 0)"/>
       <use xlink:href="#DejaVuSans-47" transform="translate(2146.703125 0)"/>
       <use xlink:href="#DejaVuSans-c" transform="translate(2210.1875 0)"/>
      </g>
     </g>
    </g>
    <g id="ytick_6">
     <g id="line2d_15">
      <g>
       <use xlink:href="#mcc00f97aca" x="194.13625" y="101.960479" style="stroke: #000000; stroke-width: 0.8"/>
      </g>
     </g>
     <g id="text_16">
      <!-- T4 technically validated record -->
      <g transform="translate(63.47375 104.999854) scale(0.08 -0.08)">
       <defs>
        <path id="DejaVuSans-5c" d="M 2059 -325 
Q 1816 -950 1584 -1140 
Q 1353 -1331 966 -1331 
L 506 -1331 
L 506 -850 
L 844 -850 
Q 1081 -850 1212 -737 
Q 1344 -625 1503 -206 
L 1606 56 
L 191 3500 
L 800 3500 
L 1894 763 
L 2988 3500 
L 3597 3500 
L 2059 -325 
z
" transform="scale(0.015625)"/>
       </defs>
       <use xlink:href="#DejaVuSans-37"/>
       <use xlink:href="#DejaVuSans-17" transform="translate(61.078125 0)"/>
       <use xlink:href="#DejaVuSans-3" transform="translate(124.703125 0)"/>
       <use xlink:href="#DejaVuSans-57" transform="translate(156.484375 0)"/>
       <use xlink:href="#DejaVuSans-48" transform="translate(195.6875 0)"/>
       <use xlink:href="#DejaVuSans-46" transform="translate(257.21875 0)"/>
       <use xlink:href="#DejaVuSans-4b" transform="translate(312.203125 0)"/>
       <use xlink:href="#DejaVuSans-51" transform="translate(375.578125 0)"/>
       <use xlink:href="#DejaVuSans-4c" transform="translate(438.953125 0)"/>
       <use xlink:href="#DejaVuSans-46" transform="translate(466.734375 0)"/>
       <use xlink:href="#DejaVuSans-44" transform="translate(521.71875 0)"/>
       <use xlink:href="#DejaVuSans-4f" transform="translate(583 0)"/>
       <use xlink:href="#DejaVuSans-4f" transform="translate(610.78125 0)"/>
       <use xlink:href="#DejaVuSans-5c" transform="translate(638.5625 0)"/>
       <use xlink:href="#DejaVuSans-3" transform="translate(697.75 0)"/>
       <use xlink:href="#DejaVuSans-59" transform="translate(729.53125 0)"/>
       <use xlink:href="#DejaVuSans-44" transform="translate(788.71875 0)"/>
       <use xlink:href="#DejaVuSans-4f" transform="translate(850 0)"/>
       <use xlink:href="#DejaVuSans-4c" transform="translate(877.78125 0)"/>
       <use xlink:href="#DejaVuSans-47" transform="translate(905.5625 0)"/>
       <use xlink:href="#DejaVuSans-44" transform="translate(969.046875 0)"/>
       <use xlink:href="#DejaVuSans-57" transform="translate(1030.328125 0)"/>
       <use xlink:href="#DejaVuSans-48" transform="translate(1069.53125 0)"/>
       <use xlink:href="#DejaVuSans-47" transform="translate(1131.0625 0)"/>
       <use xlink:href="#DejaVuSans-3" transform="translate(1194.546875 0)"/>
       <use xlink:href="#DejaVuSans-55" transform="translate(1226.328125 0)"/>
       <use xlink:href="#DejaVuSans-48" transform="translate(1265.234375 0)"/>
       <use xlink:href="#DejaVuSans-46" transform="translate(1326.765625 0)"/>
       <use xlink:href="#DejaVuSans-52" transform="translate(1381.75 0)"/>
       <use xlink:href="#DejaVuSans-55" transform="translate(1442.9375 0)"/>
       <use xlink:href="#DejaVuSans-47" transform="translate(1482.296875 0)"/>
      </g>
     </g>
    </g>
   </g>
   <g id="patch_9">
    <path d="M 194.13625 335.597656 
L 194.13625 73.628379 
" style="fill: none; stroke: #000000; stroke-width: 0.8; stroke-linejoin: miter; stroke-linecap: square"/>
   </g>
   <g id="patch_10">
    <path d="M 194.13625 335.597656 
L 548.970114 335.597656 
" style="fill: none; stroke: #000000; stroke-width: 0.8; stroke-linejoin: miter; stroke-linecap: square"/>
   </g>
   <g id="text_17">
    <!-- 0 -->
    <g transform="translate(198.310766 309.603446) scale(0.09 -0.09)">
     <defs>
      <path id="DejaVuSans-Bold-13" d="M 2944 2338 
Q 2944 3213 2780 3570 
Q 2616 3928 2228 3928 
Q 1841 3928 1675 3570 
Q 1509 3213 1509 2338 
Q 1509 1453 1675 1090 
Q 1841 728 2228 728 
Q 2613 728 2778 1090 
Q 2944 1453 2944 2338 
z
M 4147 2328 
Q 4147 1169 3647 539 
Q 3147 -91 2228 -91 
Q 1306 -91 806 539 
Q 306 1169 306 2328 
Q 306 3491 806 4120 
Q 1306 4750 2228 4750 
Q 3147 4750 3647 4120 
Q 4147 3491 4147 2328 
z
" transform="scale(0.015625)"/>
     </defs>
     <use xlink:href="#DejaVuSans-Bold-13"/>
    </g>
   </g>
   <g id="text_18">
    <!-- 6 -->
    <g transform="translate(323.546247 268.542431) scale(0.09 -0.09)">
     <defs>
      <path id="DejaVuSans-Bold-19" d="M 2316 2303 
Q 2000 2303 1842 2098 
Q 1684 1894 1684 1484 
Q 1684 1075 1842 870 
Q 2000 666 2316 666 
Q 2634 666 2792 870 
Q 2950 1075 2950 1484 
Q 2950 1894 2792 2098 
Q 2634 2303 2316 2303 
z
M 3803 4544 
L 3803 3681 
Q 3506 3822 3243 3889 
Q 2981 3956 2731 3956 
Q 2194 3956 1894 3657 
Q 1594 3359 1544 2772 
Q 1750 2925 1990 3001 
Q 2231 3078 2516 3078 
Q 3231 3078 3670 2659 
Q 4109 2241 4109 1563 
Q 4109 813 3618 361 
Q 3128 -91 2303 -91 
Q 1394 -91 895 523 
Q 397 1138 397 2266 
Q 397 3422 980 4083 
Q 1563 4744 2578 4744 
Q 2900 4744 3203 4694 
Q 3506 4644 3803 4544 
z
" transform="scale(0.015625)"/>
     </defs>
     <use xlink:href="#DejaVuSans-Bold-19"/>
    </g>
   </g>
   <g id="text_19">
    <!-- 0 -->
    <g transform="translate(198.310766 227.481416) scale(0.09 -0.09)">
     <use xlink:href="#DejaVuSans-Bold-13"/>
    </g>
   </g>
   <g id="text_20">
    <!-- 14 -->
    <g transform="translate(490.526889 186.420401) scale(0.09 -0.09)">
     <defs>
      <path id="DejaVuSans-Bold-14" d="M 750 831 
L 1813 831 
L 1813 3847 
L 722 3622 
L 722 4441 
L 1806 4666 
L 2950 4666 
L 2950 831 
L 4013 831 
L 4013 0 
L 750 0 
L 750 831 
z
" transform="scale(0.015625)"/>
      <path id="DejaVuSans-Bold-17" d="M 2356 3675 
L 1038 1722 
L 2356 1722 
L 2356 3675 
z
M 2156 4666 
L 3494 4666 
L 3494 1722 
L 4159 1722 
L 4159 850 
L 3494 850 
L 3494 0 
L 2356 0 
L 2356 850 
L 288 850 
L 288 1881 
L 2156 4666 
z
" transform="scale(0.015625)"/>
     </defs>
     <use xlink:href="#DejaVuSans-Bold-14"/>
     <use xlink:href="#DejaVuSans-Bold-17" transform="translate(69.578125 0)"/>
    </g>
   </g>
   <g id="text_21">
    <!-- 1 -->
    <g transform="translate(219.183346 145.359385) scale(0.09 -0.09)">
     <use xlink:href="#DejaVuSans-Bold-14"/>
    </g>
   </g>
   <g id="text_22">
    <!-- 0 -->
    <g transform="translate(198.310766 104.29837) scale(0.09 -0.09)">
     <use xlink:href="#DejaVuSans-Bold-13"/>
    </g>
   </g>
   <g id="text_23">
    <!-- Evidence-tier distribution -->
    <g transform="translate(302.120838 54.425371) scale(0.11 -0.11)">
     <defs>
      <path id="DejaVuSans-28" d="M 628 4666 
L 3578 4666 
L 3578 4134 
L 1259 4134 
L 1259 2753 
L 3481 2753 
L 3481 2222 
L 1259 2222 
L 1259 531 
L 3634 531 
L 3634 0 
L 628 0 
L 628 4666 
z
" transform="scale(0.015625)"/>
      <path id="DejaVuSans-10" d="M 313 2009 
L 1997 2009 
L 1997 1497 
L 313 1497 
L 313 2009 
z
" transform="scale(0.015625)"/>
     </defs>
     <use xlink:href="#DejaVuSans-28"/>
     <use xlink:href="#DejaVuSans-59" transform="translate(63.1875 0)"/>
     <use xlink:href="#DejaVuSans-4c" transform="translate(122.375 0)"/>
     <use xlink:href="#DejaVuSans-47" transform="translate(150.15625 0)"/>
     <use xlink:href="#DejaVuSans-48" transform="translate(213.640625 0)"/>
     <use xlink:href="#DejaVuSans-51" transform="translate(275.171875 0)"/>
     <use xlink:href="#DejaVuSans-46" transform="translate(338.546875 0)"/>
     <use xlink:href="#DejaVuSans-48" transform="translate(393.53125 0)"/>
     <use xlink:href="#DejaVuSans-10" transform="translate(455.0625 0)"/>
     <use xlink:href="#DejaVuSans-57" transform="translate(491.140625 0)"/>
     <use xlink:href="#DejaVuSans-4c" transform="translate(530.34375 0)"/>
     <use xlink:href="#DejaVuSans-48" transform="translate(558.125 0)"/>
     <use xlink:href="#DejaVuSans-55" transform="translate(619.65625 0)"/>
     <use xlink:href="#DejaVuSans-3" transform="translate(660.765625 0)"/>
     <use xlink:href="#DejaVuSans-47" transform="translate(692.546875 0)"/>
     <use xlink:href="#DejaVuSans-4c" transform="translate(756.03125 0)"/>
     <use xlink:href="#DejaVuSans-56" transform="translate(783.8125 0)"/>
     <use xlink:href="#DejaVuSans-57" transform="translate(835.90625 0)"/>
     <use xlink:href="#DejaVuSans-55" transform="translate(875.109375 0)"/>
     <use xlink:href="#DejaVuSans-4c" transform="translate(916.21875 0)"/>
     <use xlink:href="#DejaVuSans-45" transform="translate(944 0)"/>
     <use xlink:href="#DejaVuSans-58" transform="translate(1007.484375 0)"/>
     <use xlink:href="#DejaVuSans-57" transform="translate(1070.859375 0)"/>
     <use xlink:href="#DejaVuSans-4c" transform="translate(1110.0625 0)"/>
     <use xlink:href="#DejaVuSans-52" transform="translate(1137.84375 0)"/>
     <use xlink:href="#DejaVuSans-51" transform="translate(1199.03125 0)"/>
    </g>
    <!-- (publication-safe lineages) -->
    <g transform="translate(298.481385 67.628379) scale(0.11 -0.11)">
     <defs>
      <path id="DejaVuSans-49" d="M 2375 4863 
L 2375 4384 
L 1825 4384 
Q 1516 4384 1395 4259 
Q 1275 4134 1275 3809 
L 1275 3500 
L 2222 3500 
L 2222 3053 
L 1275 3053 
L 1275 0 
L 697 0 
L 697 3053 
L 147 3053 
L 147 3500 
L 697 3500 
L 697 3744 
Q 697 4328 969 4595 
Q 1241 4863 1831 4863 
L 2375 4863 
z
" transform="scale(0.015625)"/>
     </defs>
     <use xlink:href="#DejaVuSans-b"/>
     <use xlink:href="#DejaVuSans-53" transform="translate(39.015625 0)"/>
     <use xlink:href="#DejaVuSans-58" transform="translate(102.5 0)"/>
     <use xlink:href="#DejaVuSans-45" transform="translate(165.875 0)"/>
     <use xlink:href="#DejaVuSans-4f" transform="translate(229.359375 0)"/>
     <use xlink:href="#DejaVuSans-4c" transform="translate(257.140625 0)"/>
     <use xlink:href="#DejaVuSans-46" transform="translate(284.921875 0)"/>
     <use xlink:href="#DejaVuSans-44" transform="translate(339.90625 0)"/>
     <use xlink:href="#DejaVuSans-57" transform="translate(401.1875 0)"/>
     <use xlink:href="#DejaVuSans-4c" transform="translate(440.390625 0)"/>
     <use xlink:href="#DejaVuSans-52" transform="translate(468.171875 0)"/>
     <use xlink:href="#DejaVuSans-51" transform="translate(529.359375 0)"/>
     <use xlink:href="#DejaVuSans-10" transform="translate(592.734375 0)"/>
     <use xlink:href="#DejaVuSans-56" transform="translate(628.8125 0)"/>
     <use xlink:href="#DejaVuSans-44" transform="translate(680.90625 0)"/>
     <use xlink:href="#DejaVuSans-49" transform="translate(742.1875 0)"/>
     <use xlink:href="#DejaVuSans-48" transform="translate(777.390625 0)"/>
     <use xlink:href="#DejaVuSans-3" transform="translate(838.921875 0)"/>
     <use xlink:href="#DejaVuSans-4f" transform="translate(870.703125 0)"/>
     <use xlink:href="#DejaVuSans-4c" transform="translate(898.484375 0)"/>
     <use xlink:href="#DejaVuSans-51" transform="translate(926.265625 0)"/>
     <use xlink:href="#DejaVuSans-48" transform="translate(989.640625 0)"/>
     <use xlink:href="#DejaVuSans-44" transform="translate(1051.171875 0)"/>
     <use xlink:href="#DejaVuSans-4a" transform="translate(1112.453125 0)"/>
     <use xlink:href="#DejaVuSans-48" transform="translate(1175.9375 0)"/>
     <use xlink:href="#DejaVuSans-56" transform="translate(1237.46875 0)"/>
     <use xlink:href="#DejaVuSans-c" transform="translate(1289.5625 0)"/>
    </g>
   </g>
  </g>
  <g id="axes_2">
   <g id="patch_11">
    <path d="M 706.537557 99.825307 
C 686.814742 99.825307 667.486918 105.393557 650.787133 115.886727 
C 634.087348 126.379897 620.6845 141.377691 612.127092 159.147334 
C 603.569683 176.916976 600.200474 196.746716 602.408729 216.345519 
C 604.616984 235.944321 612.314251 254.527169 624.611225 269.947087 
C 636.9082 285.367005 653.312333 297.006358 671.92837 303.520391 
C 690.544407 310.034424 710.626693 311.162221 729.855016 306.773482 
C 749.083339 302.384743 766.687521 292.655255 780.633658 278.709119 
C 794.579794 264.762982 804.309282 247.1588 808.698021 227.930477 
L 706.537557 204.613018 
z
" style="fill: #2ca25f"/>
   </g>
   <g id="patch_12">
    <path d="M 808.698021 227.930477 
C 812.200876 212.583465 812.200876 196.64257 808.698021 181.295558 
C 805.195166 165.948546 798.278671 151.586297 788.463888 139.278948 
C 778.649106 126.9716 766.186012 117.032615 752.003241 110.202552 
C 737.820469 103.372489 722.279246 99.825307 706.537557 99.825307 
L 706.537557 204.613018 
z
" style="fill: #e31a1c"/>
   </g>
   <g id="matplotlib.axis_3"/>
   <g id="matplotlib.axis_4"/>
   <g id="text_24">
    <!-- High -->
    <g transform="translate(598.031092 278.558931) scale(0.08 -0.08)">
     <defs>
      <path id="DejaVuSans-2b" d="M 628 4666 
L 1259 4666 
L 1259 2753 
L 3553 2753 
L 3553 4666 
L 4184 4666 
L 4184 0 
L 3553 0 
L 3553 2222 
L 1259 2222 
L 1259 0 
L 628 0 
L 628 4666 
z
" transform="scale(0.015625)"/>
     </defs>
     <use xlink:href="#DejaVuSans-2b"/>
     <use xlink:href="#DejaVuSans-4c" transform="translate(75.203125 0)"/>
     <use xlink:href="#DejaVuSans-4a" transform="translate(102.984375 0)"/>
     <use xlink:href="#DejaVuSans-4b" transform="translate(166.46875 0)"/>
    </g>
   </g>
   <g id="text_25">
    <!-- Low -->
    <g transform="translate(796.656521 134.823667) scale(0.08 -0.08)">
     <defs>
      <path id="DejaVuSans-5a" d="M 269 3500 
L 844 3500 
L 1563 769 
L 2278 3500 
L 2956 3500 
L 3675 769 
L 4391 3500 
L 4966 3500 
L 4050 0 
L 3372 0 
L 2619 2869 
L 1863 0 
L 1184 0 
L 269 3500 
z
" transform="scale(0.015625)"/>
     </defs>
     <use xlink:href="#DejaVuSans-2f"/>
     <use xlink:href="#DejaVuSans-52" transform="translate(53.96875 0)"/>
     <use xlink:href="#DejaVuSans-5a" transform="translate(115.15625 0)"/>
    </g>
   </g>
   <g id="text_26">
    <!-- 71% -->
    <g transform="translate(647.379805 246.15135) scale(0.09 -0.09)">
     <defs>
      <path id="DejaVuSans-1a" d="M 525 4666 
L 3525 4666 
L 3525 4397 
L 1831 0 
L 1172 0 
L 2766 4134 
L 525 4134 
L 525 4666 
z
" transform="scale(0.015625)"/>
      <path id="DejaVuSans-8" d="M 4653 2053 
Q 4381 2053 4226 1822 
Q 4072 1591 4072 1178 
Q 4072 772 4226 539 
Q 4381 306 4653 306 
Q 4919 306 5073 539 
Q 5228 772 5228 1178 
Q 5228 1588 5073 1820 
Q 4919 2053 4653 2053 
z
M 4653 2450 
Q 5147 2450 5437 2106 
Q 5728 1763 5728 1178 
Q 5728 594 5436 251 
Q 5144 -91 4653 -91 
Q 4153 -91 3862 251 
Q 3572 594 3572 1178 
Q 3572 1766 3864 2108 
Q 4156 2450 4653 2450 
z
M 1428 4353 
Q 1159 4353 1004 4120 
Q 850 3888 850 3481 
Q 850 3069 1003 2837 
Q 1156 2606 1428 2606 
Q 1700 2606 1854 2837 
Q 2009 3069 2009 3481 
Q 2009 3884 1853 4118 
Q 1697 4353 1428 4353 
z
M 4250 4750 
L 4750 4750 
L 1831 -91 
L 1331 -91 
L 4250 4750 
z
M 1428 4750 
Q 1922 4750 2215 4408 
Q 2509 4066 2509 3481 
Q 2509 2891 2217 2550 
Q 1925 2209 1428 2209 
Q 931 2209 642 2551 
Q 353 2894 353 3481 
Q 353 4063 643 4406 
Q 934 4750 1428 4750 
z
" transform="scale(0.015625)"/>
     </defs>
     <use xlink:href="#DejaVuSans-1a"/>
     <use xlink:href="#DejaVuSans-14" transform="translate(63.625 0)"/>
     <use xlink:href="#DejaVuSans-8" transform="translate(127.25 0)"/>
    </g>
   </g>
   <g id="text_27">
    <!-- 29% -->
    <g transform="translate(745.691403 167.750467) scale(0.09 -0.09)">
     <defs>
      <path id="DejaVuSans-1c" d="M 703 97 
L 703 672 
Q 941 559 1184 500 
Q 1428 441 1663 441 
Q 2288 441 2617 861 
Q 2947 1281 2994 2138 
Q 2813 1869 2534 1725 
Q 2256 1581 1919 1581 
Q 1219 1581 811 2004 
Q 403 2428 403 3163 
Q 403 3881 828 4315 
Q 1253 4750 1959 4750 
Q 2769 4750 3195 4129 
Q 3622 3509 3622 2328 
Q 3622 1225 3098 567 
Q 2575 -91 1691 -91 
Q 1453 -91 1209 -44 
Q 966 3 703 97 
z
M 1959 2075 
Q 2384 2075 2632 2365 
Q 2881 2656 2881 3163 
Q 2881 3666 2632 3958 
Q 2384 4250 1959 4250 
Q 1534 4250 1286 3958 
Q 1038 3666 1038 3163 
Q 1038 2656 1286 2365 
Q 1534 2075 1959 2075 
z
" transform="scale(0.015625)"/>
     </defs>
     <use xlink:href="#DejaVuSans-15"/>
     <use xlink:href="#DejaVuSans-1c" transform="translate(63.625 0)"/>
     <use xlink:href="#DejaVuSans-8" transform="translate(127.25 0)"/>
    </g>
   </g>
   <g id="text_28">
    <!-- Confidence cap distribution -->
    <g transform="translate(630.887635 54.425371) scale(0.11 -0.11)">
     <defs>
      <path id="DejaVuSans-26" d="M 4122 4306 
L 4122 3641 
Q 3803 3938 3442 4084 
Q 3081 4231 2675 4231 
Q 1875 4231 1450 3742 
Q 1025 3253 1025 2328 
Q 1025 1406 1450 917 
Q 1875 428 2675 428 
Q 3081 428 3442 575 
Q 3803 722 4122 1019 
L 4122 359 
Q 3791 134 3420 21 
Q 3050 -91 2638 -91 
Q 1578 -91 968 557 
Q 359 1206 359 2328 
Q 359 3453 968 4101 
Q 1578 4750 2638 4750 
Q 3056 4750 3426 4639 
Q 3797 4528 4122 4306 
z
" transform="scale(0.015625)"/>
      <path id="DejaVuSans-13af" d="M 3431 3500 
L 3431 0 
L 2853 0 
L 2853 3053 
L 1275 3053 
L 1275 0 
L 697 0 
L 697 3053 
L 147 3053 
L 147 3500 
L 697 3500 
L 697 3744 
Q 697 4316 967 4589 
Q 1238 4863 1797 4863 
L 2375 4863 
L 2375 4384 
L 1825 4384 
Q 1516 4384 1395 4259 
Q 1275 4134 1275 3809 
L 1275 3500 
L 3431 3500 
z
M 2853 4856 
L 3431 4856 
L 3431 4128 
L 2853 4128 
L 2853 4856 
z
" transform="scale(0.015625)"/>
     </defs>
     <use xlink:href="#DejaVuSans-26"/>
     <use xlink:href="#DejaVuSans-52" transform="translate(69.828125 0)"/>
     <use xlink:href="#DejaVuSans-51" transform="translate(131.015625 0)"/>
     <use xlink:href="#DejaVuSans-13af" transform="translate(194.390625 0)"/>
     <use xlink:href="#DejaVuSans-47" transform="translate(257.375 0)"/>
     <use xlink:href="#DejaVuSans-48" transform="translate(320.859375 0)"/>
     <use xlink:href="#DejaVuSans-51" transform="translate(382.390625 0)"/>
     <use xlink:href="#DejaVuSans-46" transform="translate(445.765625 0)"/>
     <use xlink:href="#DejaVuSans-48" transform="translate(500.75 0)"/>
     <use xlink:href="#DejaVuSans-3" transform="translate(562.28125 0)"/>
     <use xlink:href="#DejaVuSans-46" transform="translate(594.0625 0)"/>
     <use xlink:href="#DejaVuSans-44" transform="translate(649.046875 0)"/>
     <use xlink:href="#DejaVuSans-53" transform="translate(710.328125 0)"/>
     <use xlink:href="#DejaVuSans-3" transform="translate(773.8125 0)"/>
     <use xlink:href="#DejaVuSans-47" transform="translate(805.59375 0)"/>
     <use xlink:href="#DejaVuSans-4c" transform="translate(869.078125 0)"/>
     <use xlink:href="#DejaVuSans-56" transform="translate(896.859375 0)"/>
     <use xlink:href="#DejaVuSans-57" transform="translate(948.953125 0)"/>
     <use xlink:href="#DejaVuSans-55" transform="translate(988.15625 0)"/>
     <use xlink:href="#DejaVuSans-4c" transform="translate(1029.265625 0)"/>
     <use xlink:href="#DejaVuSans-45" transform="translate(1057.046875 0)"/>
     <use xlink:href="#DejaVuSans-58" transform="translate(1120.53125 0)"/>
     <use xlink:href="#DejaVuSans-57" transform="translate(1183.90625 0)"/>
     <use xlink:href="#DejaVuSans-4c" transform="translate(1223.109375 0)"/>
     <use xlink:href="#DejaVuSans-52" transform="translate(1250.890625 0)"/>
     <use xlink:href="#DejaVuSans-51" transform="translate(1312.078125 0)"/>
    </g>
    <!-- Denominator: 21 publication-safe lineages -->
    <g transform="translate(589.512166 67.628379) scale(0.11 -0.11)">
     <defs>
      <path id="DejaVuSans-27" d="M 1259 4147 
L 1259 519 
L 2022 519 
Q 2988 519 3436 956 
Q 3884 1394 3884 2338 
Q 3884 3275 3436 3711 
Q 2988 4147 2022 4147 
L 1259 4147 
z
M 628 4666 
L 1925 4666 
Q 3281 4666 3915 4102 
Q 4550 3538 4550 2338 
Q 4550 1131 3912 565 
Q 3275 0 1925 0 
L 628 0 
L 628 4666 
z
" transform="scale(0.015625)"/>
      <path id="DejaVuSans-50" d="M 3328 2828 
Q 3544 3216 3844 3400 
Q 4144 3584 4550 3584 
Q 5097 3584 5394 3201 
Q 5691 2819 5691 2113 
L 5691 0 
L 5113 0 
L 5113 2094 
Q 5113 2597 4934 2840 
Q 4756 3084 4391 3084 
Q 3944 3084 3684 2787 
Q 3425 2491 3425 1978 
L 3425 0 
L 2847 0 
L 2847 2094 
Q 2847 2600 2669 2842 
Q 2491 3084 2119 3084 
Q 1678 3084 1418 2786 
Q 1159 2488 1159 1978 
L 1159 0 
L 581 0 
L 581 3500 
L 1159 3500 
L 1159 2956 
Q 1356 3278 1631 3431 
Q 1906 3584 2284 3584 
Q 2666 3584 2933 3390 
Q 3200 3197 3328 2828 
z
" transform="scale(0.015625)"/>
      <path id="DejaVuSans-1d" d="M 750 794 
L 1409 794 
L 1409 0 
L 750 0 
L 750 794 
z
M 750 3309 
L 1409 3309 
L 1409 2516 
L 750 2516 
L 750 3309 
z
" transform="scale(0.015625)"/>
     </defs>
     <use xlink:href="#DejaVuSans-27"/>
     <use xlink:href="#DejaVuSans-48" transform="translate(77 0)"/>
     <use xlink:href="#DejaVuSans-51" transform="translate(138.53125 0)"/>
     <use xlink:href="#DejaVuSans-52" transform="translate(201.90625 0)"/>
     <use xlink:href="#DejaVuSans-50" transform="translate(263.09375 0)"/>
     <use xlink:href="#DejaVuSans-4c" transform="translate(360.5 0)"/>
     <use xlink:href="#DejaVuSans-51" transform="translate(388.28125 0)"/>
     <use xlink:href="#DejaVuSans-44" transform="translate(451.65625 0)"/>
     <use xlink:href="#DejaVuSans-57" transform="translate(512.9375 0)"/>
     <use xlink:href="#DejaVuSans-52" transform="translate(552.140625 0)"/>
     <use xlink:href="#DejaVuSans-55" transform="translate(613.328125 0)"/>
     <use xlink:href="#DejaVuSans-1d" transform="translate(652.6875 0)"/>
     <use xlink:href="#DejaVuSans-3" transform="translate(686.375 0)"/>
     <use xlink:href="#DejaVuSans-15" transform="translate(718.15625 0)"/>
     <use xlink:href="#DejaVuSans-14" transform="translate(781.78125 0)"/>
     <use xlink:href="#DejaVuSans-3" transform="translate(845.40625 0)"/>
     <use xlink:href="#DejaVuSans-53" transform="translate(877.1875 0)"/>
     <use xlink:href="#DejaVuSans-58" transform="translate(940.671875 0)"/>
     <use xlink:href="#DejaVuSans-45" transform="translate(1004.046875 0)"/>
     <use xlink:href="#DejaVuSans-4f" transform="translate(1067.53125 0)"/>
     <use xlink:href="#DejaVuSans-4c" transform="translate(1095.3125 0)"/>
     <use xlink:href="#DejaVuSans-46" transform="translate(1123.09375 0)"/>
     <use xlink:href="#DejaVuSans-44" transform="translate(1178.078125 0)"/>
     <use xlink:href="#DejaVuSans-57" transform="translate(1239.359375 0)"/>
     <use xlink:href="#DejaVuSans-4c" transform="translate(1278.5625 0)"/>
     <use xlink:href="#DejaVuSans-52" transform="translate(1306.34375 0)"/>
     <use xlink:href="#DejaVuSans-51" transform="translate(1367.53125 0)"/>
     <use xlink:href="#DejaVuSans-10" transform="translate(1430.90625 0)"/>
     <use xlink:href="#DejaVuSans-56" transform="translate(1466.984375 0)"/>
     <use xlink:href="#DejaVuSans-44" transform="translate(1519.078125 0)"/>
     <use xlink:href="#DejaVuSans-49" transform="translate(1580.359375 0)"/>
     <use xlink:href="#DejaVuSans-48" transform="translate(1615.5625 0)"/>
     <use xlink:href="#DejaVuSans-3" transform="translate(1677.09375 0)"/>
     <use xlink:href="#DejaVuSans-4f" transform="translate(1708.875 0)"/>
     <use xlink:href="#DejaVuSans-4c" transform="translate(1736.65625 0)"/>
     <use xlink:href="#DejaVuSans-51" transform="translate(1764.4375 0)"/>
     <use xlink:href="#DejaVuSans-48" transform="translate(1827.8125 0)"/>
     <use xlink:href="#DejaVuSans-44" transform="translate(1889.34375 0)"/>
     <use xlink:href="#DejaVuSans-4a" transform="translate(1950.625 0)"/>
     <use xlink:href="#DejaVuSans-48" transform="translate(2014.109375 0)"/>
     <use xlink:href="#DejaVuSans-56" transform="translate(2075.640625 0)"/>
    </g>
   </g>
  </g>
  <g id="text_29">
   <!-- Figure 3. Evidence-Tier Funnel and Confidence Cap -->
   <g transform="translate(292.498672 15.558281) scale(0.11 -0.11)">
    <defs>
     <path id="DejaVuSans-29" d="M 628 4666 
L 3309 4666 
L 3309 4134 
L 1259 4134 
L 1259 2759 
L 3109 2759 
L 3109 2228 
L 1259 2228 
L 1259 0 
L 628 0 
L 628 4666 
z
" transform="scale(0.015625)"/>
     <path id="DejaVuSans-11" d="M 684 794 
L 1344 794 
L 1344 0 
L 684 0 
L 684 794 
z
" transform="scale(0.015625)"/>
    </defs>
    <use xlink:href="#DejaVuSans-29"/>
    <use xlink:href="#DejaVuSans-4c" transform="translate(50.234375 0)"/>
    <use xlink:href="#DejaVuSans-4a" transform="translate(78.015625 0)"/>
    <use xlink:href="#DejaVuSans-58" transform="translate(141.5 0)"/>
    <use xlink:href="#DejaVuSans-55" transform="translate(204.875 0)"/>
    <use xlink:href="#DejaVuSans-48" transform="translate(243.78125 0)"/>
    <use xlink:href="#DejaVuSans-3" transform="translate(305.3125 0)"/>
    <use xlink:href="#DejaVuSans-16" transform="translate(337.09375 0)"/>
    <use xlink:href="#DejaVuSans-11" transform="translate(400.71875 0)"/>
    <use xlink:href="#DejaVuSans-3" transform="translate(432.5 0)"/>
    <use xlink:href="#DejaVuSans-28" transform="translate(464.28125 0)"/>
    <use xlink:href="#DejaVuSans-59" transform="translate(527.46875 0)"/>
    <use xlink:href="#DejaVuSans-4c" transform="translate(586.65625 0)"/>
    <use xlink:href="#DejaVuSans-47" transform="translate(614.4375 0)"/>
    <use xlink:href="#DejaVuSans-48" transform="translate(677.921875 0)"/>
    <use xlink:href="#DejaVuSans-51" transform="translate(739.453125 0)"/>
    <use xlink:href="#DejaVuSans-46" transform="translate(802.828125 0)"/>
    <use xlink:href="#DejaVuSans-48" transform="translate(857.8125 0)"/>
    <use xlink:href="#DejaVuSans-10" transform="translate(919.34375 0)"/>
    <use xlink:href="#DejaVuSans-37" transform="translate(946.25 0)"/>
    <use xlink:href="#DejaVuSans-4c" transform="translate(1004.25 0)"/>
    <use xlink:href="#DejaVuSans-48" transform="translate(1032.03125 0)"/>
    <use xlink:href="#DejaVuSans-55" transform="translate(1093.5625 0)"/>
    <use xlink:href="#DejaVuSans-3" transform="translate(1134.671875 0)"/>
    <use xlink:href="#DejaVuSans-29" transform="translate(1166.453125 0)"/>
    <use xlink:href="#DejaVuSans-58" transform="translate(1218.5 0)"/>
    <use xlink:href="#DejaVuSans-51" transform="translate(1281.875 0)"/>
    <use xlink:href="#DejaVuSans-51" transform="translate(1345.25 0)"/>
    <use xlink:href="#DejaVuSans-48" transform="translate(1408.625 0)"/>
    <use xlink:href="#DejaVuSans-4f" transform="translate(1470.15625 0)"/>
    <use xlink:href="#DejaVuSans-3" transform="translate(1497.9375 0)"/>
    <use xlink:href="#DejaVuSans-44" transform="translate(1529.71875 0)"/>
    <use xlink:href="#DejaVuSans-51" transform="translate(1591 0)"/>
    <use xlink:href="#DejaVuSans-47" transform="translate(1654.375 0)"/>
    <use xlink:href="#DejaVuSans-3" transform="translate(1717.859375 0)"/>
    <use xlink:href="#DejaVuSans-26" transform="translate(1749.640625 0)"/>
    <use xlink:href="#DejaVuSans-52" transform="translate(1819.46875 0)"/>
    <use xlink:href="#DejaVuSans-51" transform="translate(1880.65625 0)"/>
    <use xlink:href="#DejaVuSans-13af" transform="translate(1944.03125 0)"/>
    <use xlink:href="#DejaVuSans-47" transform="translate(2007.015625 0)"/>
    <use xlink:href="#DejaVuSans-48" transform="translate(2070.5 0)"/>
    <use xlink:href="#DejaVuSans-51" transform="translate(2132.03125 0)"/>
    <use xlink:href="#DejaVuSans-46" transform="translate(2195.40625 0)"/>
    <use xlink:href="#DejaVuSans-48" transform="translate(2250.390625 0)"/>
    <use xlink:href="#DejaVuSans-3" transform="translate(2311.921875 0)"/>
    <use xlink:href="#DejaVuSans-26" transform="translate(2343.703125 0)"/>
    <use xlink:href="#DejaVuSans-44" transform="translate(2413.53125 0)"/>
    <use xlink:href="#DejaVuSans-53" transform="translate(2474.8125 0)"/>
   </g>
  </g>
 </g>
 <defs>
  <clipPath id="pedaceaa279">
   <rect x="194.13625" y="73.628379" width="354.833864" height="261.969277"/>
  </clipPath>
 </defs>
</svg>
