<?xml version="1.0" encoding="utf-8" standalone="no"?>
<!DOCTYPE svg PUBLIC "-//W3C//DTD SVG 1.1//EN"
  "http://www.w3.org/Graphics/SVG/1.1/DTD/svg11.dtd">
<svg xmlns:xlink="http://www.w3.org/1999/xlink" width="643.61125pt" height="404.703145pt" viewBox="0 0 643.61125 404.703145" xmlns="http://www.w3.org/2000/svg" version="1.1">
 <metadata>
  <rdf:RDF xmlns:dc="http://purl.org/dc/elements/1.1/" xmlns:cc="http://creativecommons.org/ns#" xmlns:rdf="http://www.w3.org/1999/02/22-rdf-syntax-ns#">
   <cc:Work>
    <dc:type rdf:resource="http://purl.org/dc/dcmitype/StillImage"/>
    <dc:date>2026-06-18T00:03:29.176079</dc:date>
    <dc:format>image/svg+xml</dc:format>
    <dc:creator>
     <cc:Agent>
      <dc:title>Matplotlib v3.11.0, https://matplotlib.org/</dc:title>
     </cc:Agent>
    </dc:creator>
   </cc:Work>
  </rdf:RDF>
 </metadata>
 <defs>
  <style type="text/css">*{stroke-linejoin: round; stroke-linecap: butt}</style>
 </defs>
 <g id="figure_1">
  <g id="patch_1">
   <path d="M 0 404.703145 
L 643.61125 404.703145 
L 643.61125 0 
L 0 0 
z
" style="fill: #ffffff"/>
  </g>
  <g id="axes_1">
   <g id="patch_2">
    <path d="M 78.41125 368.502363 
L 636.41125 368.502363 
L 636.41125 35.862363 
L 78.41125 35.862363 
z
" style="fill: #ffffff"/>
   </g>
   <g id="patch_3">
    <path d="M 78.41125 353.382363 
L 507.642019 353.382363 
L 507.642019 332.880668 
L 78.41125 332.880668 
z
" clip-path="url(#pda7509221c)" style="fill: #2ca25f; stroke: #333333; stroke-width: 0.5; stroke-linejoin: miter"/>
   </g>
   <g id="patch_4">
    <path d="M 78.41125 327.755245 
L 250.103558 327.755245 
L 250.103558 307.25355 
L 78.41125 307.25355 
z
" clip-path="url(#pda7509221c)" style="fill: #fd8d3c; stroke: #333333; stroke-width: 0.5; stroke-linejoin: miter"/>
   </g>
   <g id="patch_5">
    <path d="M 78.41125 302.128126 
L 250.103558 302.128126 
L 250.103558 281.626431 
L 78.41125 281.626431 
z
" clip-path="url(#pda7509221c)" style="fill: #2ca25f; stroke: #333333; stroke-width: 0.5; stroke-linejoin: miter"/>
   </g>
   <g id="patch_6">
    <path d="M 78.41125 276.501007 
L 250.103558 276.501007 
L 250.103558 255.999312 
L 78.41125 255.999312 
z
" clip-path="url(#pda7509221c)" style="fill: #2ca25f; stroke: #333333; stroke-width: 0.5; stroke-linejoin: miter"/>
   </g>
   <g id="patch_7">
    <path d="M 78.41125 250.873889 
L 250.103558 250.873889 
L 250.103558 230.372194 
L 78.41125 230.372194 
z
" clip-path="url(#pda7509221c)" style="fill: #2ca25f; stroke: #333333; stroke-width: 0.5; stroke-linejoin: miter"/>
   </g>
   <g id="patch_8">
    <path d="M 78.41125 225.24677 
L 164.257404 225.24677 
L 164.257404 204.745075 
L 78.41125 204.745075 
z
" clip-path="url(#pda7509221c)" style="fill: #2ca25f; stroke: #333333; stroke-width: 0.5; stroke-linejoin: miter"/>
   </g>
   <g id="patch_9">
    <path d="M 78.41125 199.619651 
L 164.257404 199.619651 
L 164.257404 179.117957 
L 78.41125 179.117957 
z
" clip-path="url(#pda7509221c)" style="fill: #2ca25f; stroke: #333333; stroke-width: 0.5; stroke-linejoin: miter"/>
   </g>
   <g id="patch_10">
    <path d="M 78.41125 173.992533 
L 164.257404 173.992533 
L 164.257404 153.490838 
L 78.41125 153.490838 
z
" clip-path="url(#pda7509221c)" style="fill: #fd8d3c; stroke: #333333; stroke-width: 0.5; stroke-linejoin: miter"/>
   </g>
   <g id="patch_11">
    <path d="M 78.41125 148.365414 
L 164.257404 148.365414 
L 164.257404 127.863719 
L 78.41125 127.863719 
z
" clip-path="url(#pda7509221c)" style="fill: #2ca25f; stroke: #333333; stroke-width: 0.5; stroke-linejoin: miter"/>
   </g>
   <g id="patch_12">
    <path d="M 78.41125 122.738295 
L 164.257404 122.738295 
L 164.257404 102.236601 
L 78.41125 102.236601 
z
" clip-path="url(#pda7509221c)" style="fill: #2ca25f; stroke: #333333; stroke-width: 0.5; stroke-linejoin: miter"/>
   </g>
   <g id="patch_13">
    <path d="M 78.41125 97.111177 
L 164.257404 97.111177 
L 164.257404 76.609482 
L 78.41125 76.609482 
z
" clip-path="url(#pda7509221c)" style="fill: #fd8d3c; stroke: #333333; stroke-width: 0.5; stroke-linejoin: miter"/>
   </g>
   <g id="patch_14">
    <path d="M 78.41125 71.484058 
L 164.257404 71.484058 
L 164.257404 50.982363 
L 78.41125 50.982363 
z
" clip-path="url(#pda7509221c)" style="fill: #2ca25f; stroke: #333333; stroke-width: 0.5; stroke-linejoin: miter"/>
   </g>
   <g id="matplotlib.axis_1">
    <g id="xtick_1">
     <g id="line2d_1">
      <defs>
       <path id="m40d3dd227d" d="M 0 0 
L 0 3.5 
" style="stroke: #000000; stroke-width: 0.8"/>
      </defs>
      <g>
       <use xlink:href="#m40d3dd227d" x="78.41125" y="368.502363" style="stroke: #000000; stroke-width: 0.8"/>
      </g>
     </g>
     <g id="text_1">
      <!-- 0 -->
      <g transform="translate(75.86625 381.580488) scale(0.08 -0.08)">
       <defs>
        <path id="DejaVuSans-13" d="M 2034 4250 
Q 1547 4250 1301 3770 
Q 1056 3291 1056 2328 
Q 1056 1369 1301 889 
Q 1547 409 2034 409 
Q 2525 409 2770 889 
Q 3016 1369 3016 2328 
Q 3016 3291 2770 3770 
Q 2525 4250 2034 4250 
z
M 2034 4750 
Q 2819 4750 3233 4129 
Q 3647 3509 3647 2328 
Q 3647 1150 3233 529 
Q 2819 -91 2034 -91 
Q 1250 -91 836 529 
Q 422 1150 422 2328 
Q 422 3509 836 4129 
Q 1250 4750 2034 4750 
z
" transform="scale(0.015625)"/>
       </defs>
       <use xlink:href="#DejaVuSans-13"/>
      </g>
     </g>
    </g>
    <g id="xtick_2">
     <g id="line2d_2">
      <g>
       <use xlink:href="#m40d3dd227d" x="164.257404" y="368.502363" style="stroke: #000000; stroke-width: 0.8"/>
      </g>
     </g>
     <g id="text_2">
      <!-- 1 -->
      <g transform="translate(161.712404 381.580488) scale(0.08 -0.08)">
       <defs>
        <path id="DejaVuSans-14" d="M 794 531 
L 1825 531 
L 1825 4091 
L 703 3866 
L 703 4441 
L 1819 4666 
L 2450 4666 
L 2450 531 
L 3481 531 
L 3481 0 
L 794 0 
L 794 531 
z
" transform="scale(0.015625)"/>
       </defs>
       <use xlink:href="#DejaVuSans-14"/>
      </g>
     </g>
    </g>
    <g id="xtick_3">
     <g id="line2d_3">
      <g>
       <use xlink:href="#m40d3dd227d" x="250.103558" y="368.502363" style="stroke: #000000; stroke-width: 0.8"/>
      </g>
     </g>
     <g id="text_3">
      <!-- 2 -->
      <g transform="translate(247.558558 381.580488) scale(0.08 -0.08)">
       <defs>
        <path id="DejaVuSans-15" d="M 1228 531 
L 3431 531 
L 3431 0 
L 469 0 
L 469 531 
Q 828 903 1448 1529 
Q 2069 2156 2228 2338 
Q 2531 2678 2651 2914 
Q 2772 3150 2772 3378 
Q 2772 3750 2511 3984 
Q 2250 4219 1831 4219 
Q 1534 4219 1204 4116 
Q 875 4013 500 3803 
L 500 4441 
Q 881 4594 1212 4672 
Q 1544 4750 1819 4750 
Q 2544 4750 2975 4387 
Q 3406 4025 3406 3419 
Q 3406 3131 3298 2873 
Q 3191 2616 2906 2266 
Q 2828 2175 2409 1742 
Q 1991 1309 1228 531 
z
" transform="scale(0.015625)"/>
       </defs>
       <use xlink:href="#DejaVuSans-15"/>
      </g>
     </g>
    </g>
    <g id="xtick_4">
     <g id="line2d_4">
      <g>
       <use xlink:href="#m40d3dd227d" x="335.949712" y="368.502363" style="stroke: #000000; stroke-width: 0.8"/>
      </g>
     </g>
     <g id="text_4">
      <!-- 3 -->
      <g transform="translate(333.404712 381.580488) scale(0.08 -0.08)">
       <defs>
        <path id="DejaVuSans-16" d="M 2597 2516 
Q 3050 2419 3304 2112 
Q 3559 1806 3559 1356 
Q 3559 666 3084 287 
Q 2609 -91 1734 -91 
Q 1441 -91 1130 -33 
Q 819 25 488 141 
L 488 750 
Q 750 597 1062 519 
Q 1375 441 1716 441 
Q 2309 441 2620 675 
Q 2931 909 2931 1356 
Q 2931 1769 2642 2001 
Q 2353 2234 1838 2234 
L 1294 2234 
L 1294 2753 
L 1863 2753 
Q 2328 2753 2575 2939 
Q 2822 3125 2822 3475 
Q 2822 3834 2567 4026 
Q 2313 4219 1838 4219 
Q 1578 4219 1281 4162 
Q 984 4106 628 3988 
L 628 4550 
Q 988 4650 1302 4700 
Q 1616 4750 1894 4750 
Q 2613 4750 3031 4423 
Q 3450 4097 3450 3541 
Q 3450 3153 3228 2886 
Q 3006 2619 2597 2516 
z
" transform="scale(0.015625)"/>
       </defs>
       <use xlink:href="#DejaVuSans-16"/>
      </g>
     </g>
    </g>
    <g id="xtick_5">
     <g id="line2d_5">
      <g>
       <use xlink:href="#m40d3dd227d" x="421.795865" y="368.502363" style="stroke: #000000; stroke-width: 0.8"/>
      </g>
     </g>
     <g id="text_5">
      <!-- 4 -->
      <g transform="translate(419.250865 381.580488) scale(0.08 -0.08)">
       <defs>
        <path id="DejaVuSans-17" d="M 2419 4116 
L 825 1625 
L 2419 1625 
L 2419 4116 
z
M 2253 4666 
L 3047 4666 
L 3047 1625 
L 3713 1625 
L 3713 1100 
L 3047 1100 
L 3047 0 
L 2419 0 
L 2419 1100 
L 313 1100 
L 313 1709 
L 2253 4666 
z
" transform="scale(0.015625)"/>
       </defs>
       <use xlink:href="#DejaVuSans-17"/>
      </g>
     </g>
    </g>
    <g id="xtick_6">
     <g id="line2d_6">
      <g>
       <use xlink:href="#m40d3dd227d" x="507.642019" y="368.502363" style="stroke: #000000; stroke-width: 0.8"/>
      </g>
     </g>
     <g id="text_6">
      <!-- 5 -->
      <g transform="translate(505.097019 381.580488) scale(0.08 -0.08)">
       <defs>
        <path id="DejaVuSans-18" d="M 691 4666 
L 3169 4666 
L 3169 4134 
L 1269 4134 
L 1269 2991 
Q 1406 3038 1543 3061 
Q 1681 3084 1819 3084 
Q 2600 3084 3056 2656 
Q 3513 2228 3513 1497 
Q 3513 744 3044 326 
Q 2575 -91 1722 -91 
Q 1428 -91 1123 -41 
Q 819 9 494 109 
L 494 744 
Q 775 591 1075 516 
Q 1375 441 1709 441 
Q 2250 441 2565 725 
Q 2881 1009 2881 1497 
Q 2881 1984 2565 2268 
Q 2250 2553 1709 2553 
Q 1456 2553 1204 2497 
Q 953 2441 691 2322 
L 691 4666 
z
" transform="scale(0.015625)"/>
       </defs>
       <use xlink:href="#DejaVuSans-18"/>
      </g>
     </g>
    </g>
    <g id="xtick_7">
     <g id="line2d_7">
      <g>
       <use xlink:href="#m40d3dd227d" x="593.488173" y="368.502363" style="stroke: #000000; stroke-width: 0.8"/>
      </g>
     </g>
     <g id="text_7">
      <!-- 6 -->
      <g transform="translate(590.943173 381.580488) scale(0.08 -0.08)">
       <defs>
        <path id="DejaVuSans-19" d="M 2113 2584 
Q 1688 2584 1439 2293 
Q 1191 2003 1191 1497 
Q 1191 994 1439 701 
Q 1688 409 2113 409 
Q 2538 409 2786 701 
Q 3034 994 3034 1497 
Q 3034 2003 2786 2293 
Q 2538 2584 2113 2584 
z
M 3366 4563 
L 3366 3988 
Q 3128 4100 2886 4159 
Q 2644 4219 2406 4219 
Q 1781 4219 1451 3797 
Q 1122 3375 1075 2522 
Q 1259 2794 1537 2939 
Q 1816 3084 2150 3084 
Q 2853 3084 3261 2657 
Q 3669 2231 3669 1497 
Q 3669 778 3244 343 
Q 2819 -91 2113 -91 
Q 1303 -91 875 529 
Q 447 1150 447 2328 
Q 447 3434 972 4092 
Q 1497 4750 2381 4750 
Q 2619 4750 2861 4703 
Q 3103 4656 3366 4563 
z
" transform="scale(0.015625)"/>
       </defs>
       <use xlink:href="#DejaVuSans-19"/>
      </g>
     </g>
    </g>
    <g id="text_8">
     <!-- Record count -->
     <g transform="translate(324.438594 395.100801) scale(0.1 -0.1)">
      <defs>
       <path id="DejaVuSans-35" d="M 2841 2188 
Q 3044 2119 3236 1894 
Q 3428 1669 3622 1275 
L 4263 0 
L 3584 0 
L 2988 1197 
Q 2756 1666 2539 1819 
Q 2322 1972 1947 1972 
L 1259 1972 
L 1259 0 
L 628 0 
L 628 4666 
L 2053 4666 
Q 2853 4666 3247 4331 
Q 3641 3997 3641 3322 
Q 3641 2881 3436 2590 
Q 3231 2300 2841 2188 
z
M 1259 4147 
L 1259 2491 
L 2053 2491 
Q 2509 2491 2742 2702 
Q 2975 2913 2975 3322 
Q 2975 3731 2742 3939 
Q 2509 4147 2053 4147 
L 1259 4147 
z
" transform="scale(0.015625)"/>
       <path id="DejaVuSans-48" d="M 3597 1894 
L 3597 1613 
L 953 1613 
Q 991 1019 1311 708 
Q 1631 397 2203 397 
Q 2534 397 2845 478 
Q 3156 559 3463 722 
L 3463 178 
Q 3153 47 2828 -22 
Q 2503 -91 2169 -91 
Q 1331 -91 842 396 
Q 353 884 353 1716 
Q 353 2575 817 3079 
Q 1281 3584 2069 3584 
Q 2775 3584 3186 3129 
Q 3597 2675 3597 1894 
z
M 3022 2063 
Q 3016 2534 2758 2815 
Q 2500 3097 2075 3097 
Q 1594 3097 1305 2825 
Q 1016 2553 972 2059 
L 3022 2063 
z
" transform="scale(0.015625)"/>
       <path id="DejaVuSans-46" d="M 3122 3366 
L 3122 2828 
Q 2878 2963 2633 3030 
Q 2388 3097 2138 3097 
Q 1578 3097 1268 2742 
Q 959 2388 959 1747 
Q 959 1106 1268 751 
Q 1578 397 2138 397 
Q 2388 397 2633 464 
Q 2878 531 3122 666 
L 3122 134 
Q 2881 22 2623 -34 
Q 2366 -91 2075 -91 
Q 1284 -91 818 406 
Q 353 903 353 1747 
Q 353 2603 823 3093 
Q 1294 3584 2113 3584 
Q 2378 3584 2631 3529 
Q 2884 3475 3122 3366 
z
" transform="scale(0.015625)"/>
       <path id="DejaVuSans-52" d="M 1959 3097 
Q 1497 3097 1228 2736 
Q 959 2375 959 1747 
Q 959 1119 1226 758 
Q 1494 397 1959 397 
Q 2419 397 2687 759 
Q 2956 1122 2956 1747 
Q 2956 2369 2687 2733 
Q 2419 3097 1959 3097 
z
M 1959 3584 
Q 2709 3584 3137 3096 
Q 3566 2609 3566 1747 
Q 3566 888 3137 398 
Q 2709 -91 1959 -91 
Q 1206 -91 779 398 
Q 353 888 353 1747 
Q 353 2609 779 3096 
Q 1206 3584 1959 3584 
z
" transform="scale(0.015625)"/>
       <path id="DejaVuSans-55" d="M 2631 2963 
Q 2534 3019 2420 3045 
Q 2306 3072 2169 3072 
Q 1681 3072 1420 2755 
Q 1159 2438 1159 1844 
L 1159 0 
L 581 0 
L 581 3500 
L 1159 3500 
L 1159 2956 
Q 1341 3275 1631 3429 
Q 1922 3584 2338 3584 
Q 2397 3584 2469 3576 
Q 2541 3569 2628 3553 
L 2631 2963 
z
" transform="scale(0.015625)"/>
       <path id="DejaVuSans-47" d="M 2906 2969 
L 2906 4863 
L 3481 4863 
L 3481 0 
L 2906 0 
L 2906 525 
Q 2725 213 2448 61 
Q 2172 -91 1784 -91 
Q 1150 -91 751 415 
Q 353 922 353 1747 
Q 353 2572 751 3078 
Q 1150 3584 1784 3584 
Q 2172 3584 2448 3432 
Q 2725 3281 2906 2969 
z
M 947 1747 
Q 947 1113 1208 752 
Q 1469 391 1925 391 
Q 2381 391 2643 752 
Q 2906 1113 2906 1747 
Q 2906 2381 2643 2742 
Q 2381 3103 1925 3103 
Q 1469 3103 1208 2742 
Q 947 2381 947 1747 
z
" transform="scale(0.015625)"/>
       <path id="DejaVuSans-3" transform="scale(0.015625)"/>
       <path id="DejaVuSans-58" d="M 544 1381 
L 544 3500 
L 1119 3500 
L 1119 1403 
Q 1119 906 1312 657 
Q 1506 409 1894 409 
Q 2359 409 2629 706 
Q 2900 1003 2900 1516 
L 2900 3500 
L 3475 3500 
L 3475 0 
L 2900 0 
L 2900 538 
Q 2691 219 2414 64 
Q 2138 -91 1772 -91 
Q 1169 -91 856 284 
Q 544 659 544 1381 
z
M 1991 3584 
L 1991 3584 
z
" transform="scale(0.015625)"/>
       <path id="DejaVuSans-51" d="M 3513 2113 
L 3513 0 
L 2938 0 
L 2938 2094 
Q 2938 2591 2744 2837 
Q 2550 3084 2163 3084 
Q 1697 3084 1428 2787 
Q 1159 2491 1159 1978 
L 1159 0 
L 581 0 
L 581 3500 
L 1159 3500 
L 1159 2956 
Q 1366 3272 1645 3428 
Q 1925 3584 2291 3584 
Q 2894 3584 3203 3211 
Q 3513 2838 3513 2113 
z
" transform="scale(0.015625)"/>
       <path id="DejaVuSans-57" d="M 1172 4494 
L 1172 3500 
L 2356 3500 
L 2356 3053 
L 1172 3053 
L 1172 1153 
Q 1172 725 1289 603 
Q 1406 481 1766 481 
L 2356 481 
L 2356 0 
L 1766 0 
Q 1100 0 847 248 
Q 594 497 594 1153 
L 594 3053 
L 172 3053 
L 172 3500 
L 594 3500 
L 594 4494 
L 1172 4494 
z
" transform="scale(0.015625)"/>
      </defs>
      <use xlink:href="#DejaVuSans-35"/>
      <use xlink:href="#DejaVuSans-48" transform="translate(65 0)"/>
      <use xlink:href="#DejaVuSans-46" transform="translate(126.53125 0)"/>
      <use xlink:href="#DejaVuSans-52" transform="translate(181.515625 0)"/>
      <use xlink:href="#DejaVuSans-55" transform="translate(242.703125 0)"/>
      <use xlink:href="#DejaVuSans-47" transform="translate(282.0625 0)"/>
      <use xlink:href="#DejaVuSans-3" transform="translate(345.546875 0)"/>
      <use xlink:href="#DejaVuSans-46" transform="translate(377.328125 0)"/>
      <use xlink:href="#DejaVuSans-52" transform="translate(432.3125 0)"/>
      <use xlink:href="#DejaVuSans-58" transform="translate(493.5 0)"/>
      <use xlink:href="#DejaVuSans-51" transform="translate(556.875 0)"/>
      <use xlink:href="#DejaVuSans-57" transform="translate(620.25 0)"/>
     </g>
    </g>
   </g>
   <g id="matplotlib.axis_2">
    <g id="ytick_1">
     <g id="line2d_8">
      <defs>
       <path id="m201d8b6b40" d="M 0 0 
L -3.5 0 
" style="stroke: #000000; stroke-width: 0.8"/>
      </defs>
      <g>
       <use xlink:href="#m201d8b6b40" x="78.41125" y="343.131516" style="stroke: #000000; stroke-width: 0.8"/>
      </g>
     </g>
     <g id="text_9">
      <!-- Global -->
      <g transform="translate(45.89125 346.170891) scale(0.08 -0.08)">
       <defs>
        <path id="DejaVuSans-2a" d="M 3809 666 
L 3809 1919 
L 2778 1919 
L 2778 2438 
L 4434 2438 
L 4434 434 
Q 4069 175 3628 42 
Q 3188 -91 2688 -91 
Q 1594 -91 976 548 
Q 359 1188 359 2328 
Q 359 3472 976 4111 
Q 1594 4750 2688 4750 
Q 3144 4750 3555 4637 
Q 3966 4525 4313 4306 
L 4313 3634 
Q 3963 3931 3569 4081 
Q 3175 4231 2741 4231 
Q 1884 4231 1454 3753 
Q 1025 3275 1025 2328 
Q 1025 1384 1454 906 
Q 1884 428 2741 428 
Q 3075 428 3337 486 
Q 3600 544 3809 666 
z
" transform="scale(0.015625)"/>
        <path id="DejaVuSans-4f" d="M 603 4863 
L 1178 4863 
L 1178 0 
L 603 0 
L 603 4863 
z
" transform="scale(0.015625)"/>
        <path id="DejaVuSans-45" d="M 3116 1747 
Q 3116 2381 2855 2742 
Q 2594 3103 2138 3103 
Q 1681 3103 1420 2742 
Q 1159 2381 1159 1747 
Q 1159 1113 1420 752 
Q 1681 391 2138 391 
Q 2594 391 2855 752 
Q 3116 1113 3116 1747 
z
M 1159 2969 
Q 1341 3281 1617 3432 
Q 1894 3584 2278 3584 
Q 2916 3584 3314 3078 
Q 3713 2572 3713 1747 
Q 3713 922 3314 415 
Q 2916 -91 2278 -91 
Q 1894 -91 1617 61 
Q 1341 213 1159 525 
L 1159 0 
L 581 0 
L 581 4863 
L 1159 4863 
L 1159 2969 
z
" transform="scale(0.015625)"/>
        <path id="DejaVuSans-44" d="M 2194 1759 
Q 1497 1759 1228 1600 
Q 959 1441 959 1056 
Q 959 750 1161 570 
Q 1363 391 1709 391 
Q 2188 391 2477 730 
Q 2766 1069 2766 1631 
L 2766 1759 
L 2194 1759 
z
M 3341 1997 
L 3341 0 
L 2766 0 
L 2766 531 
Q 2569 213 2275 61 
Q 1981 -91 1556 -91 
Q 1019 -91 701 211 
Q 384 513 384 1019 
Q 384 1609 779 1909 
Q 1175 2209 1959 2209 
L 2766 2209 
L 2766 2266 
Q 2766 2663 2505 2880 
Q 2244 3097 1772 3097 
Q 1472 3097 1187 3025 
Q 903 2953 641 2809 
L 641 3341 
Q 956 3463 1253 3523 
Q 1550 3584 1831 3584 
Q 2591 3584 2966 3190 
Q 3341 2797 3341 1997 
z
" transform="scale(0.015625)"/>
       </defs>
       <use xlink:href="#DejaVuSans-2a"/>
       <use xlink:href="#DejaVuSans-4f" transform="translate(77.484375 0)"/>
       <use xlink:href="#DejaVuSans-52" transform="translate(105.265625 0)"/>
       <use xlink:href="#DejaVuSans-45" transform="translate(166.453125 0)"/>
       <use xlink:href="#DejaVuSans-44" transform="translate(229.9375 0)"/>
       <use xlink:href="#DejaVuSans-4f" transform="translate(291.21875 0)"/>
      </g>
     </g>
    </g>
    <g id="ytick_2">
     <g id="line2d_9">
      <g>
       <use xlink:href="#m201d8b6b40" x="78.41125" y="317.504397" style="stroke: #000000; stroke-width: 0.8"/>
      </g>
     </g>
     <g id="text_10">
      <!-- Finland -->
      <g transform="translate(42.82625 320.543772) scale(0.08 -0.08)">
       <defs>
        <path id="DejaVuSans-29" d="M 628 4666 
L 3309 4666 
L 3309 4134 
L 1259 4134 
L 1259 2759 
L 3109 2759 
L 3109 2228 
L 1259 2228 
L 1259 0 
L 628 0 
L 628 4666 
z
" transform="scale(0.015625)"/>
        <path id="DejaVuSans-4c" d="M 603 3500 
L 1178 3500 
L 1178 0 
L 603 0 
L 603 3500 
z
M 603 4863 
L 1178 4863 
L 1178 4134 
L 603 4134 
L 603 4863 
z
" transform="scale(0.015625)"/>
       </defs>
       <use xlink:href="#DejaVuSans-29"/>
       <use xlink:href="#DejaVuSans-4c" transform="translate(50.234375 0)"/>
       <use xlink:href="#DejaVuSans-51" transform="translate(78.015625 0)"/>
       <use xlink:href="#DejaVuSans-4f" transform="translate(141.390625 0)"/>
       <use xlink:href="#DejaVuSans-44" transform="translate(169.171875 0)"/>
       <use xlink:href="#DejaVuSans-51" transform="translate(230.453125 0)"/>
       <use xlink:href="#DejaVuSans-47" transform="translate(293.828125 0)"/>
      </g>
     </g>
    </g>
    <g id="ytick_3">
     <g id="line2d_10">
      <g>
       <use xlink:href="#m201d8b6b40" x="78.41125" y="291.877279" style="stroke: #000000; stroke-width: 0.8"/>
      </g>
     </g>
     <g id="text_11">
      <!-- Slovenia -->
      <g transform="translate(37.3625 294.916654) scale(0.08 -0.08)">
       <defs>
        <path id="DejaVuSans-36" d="M 3425 4513 
L 3425 3897 
Q 3066 4069 2747 4153 
Q 2428 4238 2131 4238 
Q 1616 4238 1336 4038 
Q 1056 3838 1056 3469 
Q 1056 3159 1242 3001 
Q 1428 2844 1947 2747 
L 2328 2669 
Q 3034 2534 3370 2195 
Q 3706 1856 3706 1288 
Q 3706 609 3251 259 
Q 2797 -91 1919 -91 
Q 1588 -91 1214 -16 
Q 841 59 441 206 
L 441 856 
Q 825 641 1194 531 
Q 1563 422 1919 422 
Q 2459 422 2753 634 
Q 3047 847 3047 1241 
Q 3047 1584 2836 1778 
Q 2625 1972 2144 2069 
L 1759 2144 
Q 1053 2284 737 2584 
Q 422 2884 422 3419 
Q 422 4038 858 4394 
Q 1294 4750 2059 4750 
Q 2388 4750 2728 4690 
Q 3069 4631 3425 4513 
z
" transform="scale(0.015625)"/>
        <path id="DejaVuSans-59" d="M 191 3500 
L 800 3500 
L 1894 563 
L 2988 3500 
L 3597 3500 
L 2284 0 
L 1503 0 
L 191 3500 
z
" transform="scale(0.015625)"/>
       </defs>
       <use xlink:href="#DejaVuSans-36"/>
       <use xlink:href="#DejaVuSans-4f" transform="translate(63.484375 0)"/>
       <use xlink:href="#DejaVuSans-52" transform="translate(91.265625 0)"/>
       <use xlink:href="#DejaVuSans-59" transform="translate(152.453125 0)"/>
       <use xlink:href="#DejaVuSans-48" transform="translate(211.640625 0)"/>
       <use xlink:href="#DejaVuSans-51" transform="translate(273.171875 0)"/>
       <use xlink:href="#DejaVuSans-4c" transform="translate(336.546875 0)"/>
       <use xlink:href="#DejaVuSans-44" transform="translate(364.328125 0)"/>
      </g>
     </g>
    </g>
    <g id="ytick_4">
     <g id="line2d_11">
      <g>
       <use xlink:href="#m201d8b6b40" x="78.41125" y="266.25016" style="stroke: #000000; stroke-width: 0.8"/>
      </g>
     </g>
     <g id="text_12">
      <!-- US -->
      <g transform="translate(60.4775 269.289222) scale(0.08 -0.08)">
       <defs>
        <path id="DejaVuSans-38" d="M 556 4666 
L 1191 4666 
L 1191 1831 
Q 1191 1081 1462 751 
Q 1734 422 2344 422 
Q 2950 422 3222 751 
Q 3494 1081 3494 1831 
L 3494 4666 
L 4128 4666 
L 4128 1753 
Q 4128 841 3676 375 
Q 3225 -91 2344 -91 
Q 1459 -91 1007 375 
Q 556 841 556 1753 
L 556 4666 
z
" transform="scale(0.015625)"/>
       </defs>
       <use xlink:href="#DejaVuSans-38"/>
       <use xlink:href="#DejaVuSans-36" transform="translate(73.1875 0)"/>
      </g>
     </g>
    </g>
    <g id="ytick_5">
     <g id="line2d_12">
      <g>
       <use xlink:href="#m201d8b6b40" x="78.41125" y="240.623041" style="stroke: #000000; stroke-width: 0.8"/>
      </g>
     </g>
     <g id="text_13">
      <!-- United Kingdom -->
      <g transform="translate(7.2 243.662416) scale(0.08 -0.08)">
       <defs>
        <path id="DejaVuSans-2e" d="M 628 4666 
L 1259 4666 
L 1259 2694 
L 3353 4666 
L 4166 4666 
L 1850 2491 
L 4331 0 
L 3500 0 
L 1259 2247 
L 1259 0 
L 628 0 
L 628 4666 
z
" transform="scale(0.015625)"/>
        <path id="DejaVuSans-4a" d="M 2906 1791 
Q 2906 2416 2648 2759 
Q 2391 3103 1925 3103 
Q 1463 3103 1205 2759 
Q 947 2416 947 1791 
Q 947 1169 1205 825 
Q 1463 481 1925 481 
Q 2391 481 2648 825 
Q 2906 1169 2906 1791 
z
M 3481 434 
Q 3481 -459 3084 -895 
Q 2688 -1331 1869 -1331 
Q 1566 -1331 1297 -1286 
Q 1028 -1241 775 -1147 
L 775 -588 
Q 1028 -725 1275 -790 
Q 1522 -856 1778 -856 
Q 2344 -856 2625 -561 
Q 2906 -266 2906 331 
L 2906 616 
Q 2728 306 2450 153 
Q 2172 0 1784 0 
Q 1141 0 747 490 
Q 353 981 353 1791 
Q 353 2603 747 3093 
Q 1141 3584 1784 3584 
Q 2172 3584 2450 3431 
Q 2728 3278 2906 2969 
L 2906 3500 
L 3481 3500 
L 3481 434 
z
" transform="scale(0.015625)"/>
        <path id="DejaVuSans-50" d="M 3328 2828 
Q 3544 3216 3844 3400 
Q 4144 3584 4550 3584 
Q 5097 3584 5394 3201 
Q 5691 2819 5691 2113 
L 5691 0 
L 5113 0 
L 5113 2094 
Q 5113 2597 4934 2840 
Q 4756 3084 4391 3084 
Q 3944 3084 3684 2787 
Q 3425 2491 3425 1978 
L 3425 0 
L 2847 0 
L 2847 2094 
Q 2847 2600 2669 2842 
Q 2491 3084 2119 3084 
Q 1678 3084 1418 2786 
Q 1159 2488 1159 1978 
L 1159 0 
L 581 0 
L 581 3500 
L 1159 3500 
L 1159 2956 
Q 1356 3278 1631 3431 
Q 1906 3584 2284 3584 
Q 2666 3584 2933 3390 
Q 3200 3197 3328 2828 
z
" transform="scale(0.015625)"/>
       </defs>
       <use xlink:href="#DejaVuSans-38"/>
       <use xlink:href="#DejaVuSans-51" transform="translate(73.1875 0)"/>
       <use xlink:href="#DejaVuSans-4c" transform="translate(136.5625 0)"/>
       <use xlink:href="#DejaVuSans-57" transform="translate(164.34375 0)"/>
       <use xlink:href="#DejaVuSans-48" transform="translate(203.546875 0)"/>
       <use xlink:href="#DejaVuSans-47" transform="translate(265.078125 0)"/>
       <use xlink:href="#DejaVuSans-3" transform="translate(328.5625 0)"/>
       <use xlink:href="#DejaVuSans-2e" transform="translate(360.34375 0)"/>
       <use xlink:href="#DejaVuSans-4c" transform="translate(425.921875 0)"/>
       <use xlink:href="#DejaVuSans-51" transform="translate(453.703125 0)"/>
       <use xlink:href="#DejaVuSans-4a" transform="translate(517.078125 0)"/>
       <use xlink:href="#DejaVuSans-47" transform="translate(580.5625 0)"/>
       <use xlink:href="#DejaVuSans-52" transform="translate(644.046875 0)"/>
       <use xlink:href="#DejaVuSans-50" transform="translate(705.234375 0)"/>
      </g>
     </g>
    </g>
    <g id="ytick_6">
     <g id="line2d_13">
      <g>
       <use xlink:href="#m201d8b6b40" x="78.41125" y="214.995923" style="stroke: #000000; stroke-width: 0.8"/>
      </g>
     </g>
     <g id="text_14">
      <!-- CA -->
      <g transform="translate(60.3525 218.034985) scale(0.08 -0.08)">
       <defs>
        <path id="DejaVuSans-26" d="M 4122 4306 
L 4122 3641 
Q 3803 3938 3442 4084 
Q 3081 4231 2675 4231 
Q 1875 4231 1450 3742 
Q 1025 3253 1025 2328 
Q 1025 1406 1450 917 
Q 1875 428 2675 428 
Q 3081 428 3442 575 
Q 3803 722 4122 1019 
L 4122 359 
Q 3791 134 3420 21 
Q 3050 -91 2638 -91 
Q 1578 -91 968 557 
Q 359 1206 359 2328 
Q 359 3453 968 4101 
Q 1578 4750 2638 4750 
Q 3056 4750 3426 4639 
Q 3797 4528 4122 4306 
z
" transform="scale(0.015625)"/>
        <path id="DejaVuSans-24" d="M 2188 4044 
L 1331 1722 
L 3047 1722 
L 2188 4044 
z
M 1831 4666 
L 2547 4666 
L 4325 0 
L 3669 0 
L 3244 1197 
L 1141 1197 
L 716 0 
L 50 0 
L 1831 4666 
z
" transform="scale(0.015625)"/>
       </defs>
       <use xlink:href="#DejaVuSans-26"/>
       <use xlink:href="#DejaVuSans-24" transform="translate(69.828125 0)"/>
      </g>
     </g>
    </g>
    <g id="ytick_7">
     <g id="line2d_14">
      <g>
       <use xlink:href="#m201d8b6b40" x="78.41125" y="189.368804" style="stroke: #000000; stroke-width: 0.8"/>
      </g>
     </g>
     <g id="text_15">
      <!-- Denmark -->
      <g transform="translate(34.6425 192.408179) scale(0.08 -0.08)">
       <defs>
        <path id="DejaVuSans-27" d="M 1259 4147 
L 1259 519 
L 2022 519 
Q 2988 519 3436 956 
Q 3884 1394 3884 2338 
Q 3884 3275 3436 3711 
Q 2988 4147 2022 4147 
L 1259 4147 
z
M 628 4666 
L 1925 4666 
Q 3281 4666 3915 4102 
Q 4550 3538 4550 2338 
Q 4550 1131 3912 565 
Q 3275 0 1925 0 
L 628 0 
L 628 4666 
z
" transform="scale(0.015625)"/>
        <path id="DejaVuSans-4e" d="M 581 4863 
L 1159 4863 
L 1159 1991 
L 2875 3500 
L 3609 3500 
L 1753 1863 
L 3688 0 
L 2938 0 
L 1159 1709 
L 1159 0 
L 581 0 
L 581 4863 
z
" transform="scale(0.015625)"/>
       </defs>
       <use xlink:href="#DejaVuSans-27"/>
       <use xlink:href="#DejaVuSans-48" transform="translate(77 0)"/>
       <use xlink:href="#DejaVuSans-51" transform="translate(138.53125 0)"/>
       <use xlink:href="#DejaVuSans-50" transform="translate(201.90625 0)"/>
       <use xlink:href="#DejaVuSans-44" transform="translate(299.3125 0)"/>
       <use xlink:href="#DejaVuSans-55" transform="translate(360.59375 0)"/>
       <use xlink:href="#DejaVuSans-4e" transform="translate(401.703125 0)"/>
      </g>
     </g>
    </g>
    <g id="ytick_8">
     <g id="line2d_15">
      <g>
       <use xlink:href="#m201d8b6b40" x="78.41125" y="163.741685" style="stroke: #000000; stroke-width: 0.8"/>
      </g>
     </g>
     <g id="text_16">
      <!-- Estonia -->
      <g transform="translate(41.9625 166.78106) scale(0.08 -0.08)">
       <defs>
        <path id="DejaVuSans-28" d="M 628 4666 
L 3578 4666 
L 3578 4134 
L 1259 4134 
L 1259 2753 
L 3481 2753 
L 3481 2222 
L 1259 2222 
L 1259 531 
L 3634 531 
L 3634 0 
L 628 0 
L 628 4666 
z
" transform="scale(0.015625)"/>
        <path id="DejaVuSans-56" d="M 2834 3397 
L 2834 2853 
Q 2591 2978 2328 3040 
Q 2066 3103 1784 3103 
Q 1356 3103 1142 2972 
Q 928 2841 928 2578 
Q 928 2378 1081 2264 
Q 1234 2150 1697 2047 
L 1894 2003 
Q 2506 1872 2764 1633 
Q 3022 1394 3022 966 
Q 3022 478 2636 193 
Q 2250 -91 1575 -91 
Q 1294 -91 989 -36 
Q 684 19 347 128 
L 347 722 
Q 666 556 975 473 
Q 1284 391 1588 391 
Q 1994 391 2212 530 
Q 2431 669 2431 922 
Q 2431 1156 2273 1281 
Q 2116 1406 1581 1522 
L 1381 1569 
Q 847 1681 609 1914 
Q 372 2147 372 2553 
Q 372 3047 722 3315 
Q 1072 3584 1716 3584 
Q 2034 3584 2315 3537 
Q 2597 3491 2834 3397 
z
" transform="scale(0.015625)"/>
       </defs>
       <use xlink:href="#DejaVuSans-28"/>
       <use xlink:href="#DejaVuSans-56" transform="translate(63.1875 0)"/>
       <use xlink:href="#DejaVuSans-57" transform="translate(115.28125 0)"/>
       <use xlink:href="#DejaVuSans-52" transform="translate(154.484375 0)"/>
       <use xlink:href="#DejaVuSans-51" transform="translate(215.671875 0)"/>
       <use xlink:href="#DejaVuSans-4c" transform="translate(279.046875 0)"/>
       <use xlink:href="#DejaVuSans-44" transform="translate(306.828125 0)"/>
      </g>
     </g>
    </g>
    <g id="ytick_9">
     <g id="line2d_16">
      <g>
       <use xlink:href="#m201d8b6b40" x="78.41125" y="138.114567" style="stroke: #000000; stroke-width: 0.8"/>
      </g>
     </g>
     <g id="text_17">
      <!-- France -->
      <g transform="translate(44.81 141.153629) scale(0.08 -0.08)">
       <use xlink:href="#DejaVuSans-29"/>
       <use xlink:href="#DejaVuSans-55" transform="translate(50.234375 0)"/>
       <use xlink:href="#DejaVuSans-44" transform="translate(91.34375 0)"/>
       <use xlink:href="#DejaVuSans-51" transform="translate(152.625 0)"/>
       <use xlink:href="#DejaVuSans-46" transform="translate(216 0)"/>
       <use xlink:href="#DejaVuSans-48" transform="translate(270.984375 0)"/>
      </g>
     </g>
    </g>
    <g id="ytick_10">
     <g id="line2d_17">
      <g>
       <use xlink:href="#m201d8b6b40" x="78.41125" y="112.487448" style="stroke: #000000; stroke-width: 0.8"/>
      </g>
     </g>
     <g id="text_18">
      <!-- Italy -->
      <g transform="translate(54.055 115.526823) scale(0.08 -0.08)">
       <defs>
        <path id="DejaVuSans-2c" d="M 628 4666 
L 1259 4666 
L 1259 0 
L 628 0 
L 628 4666 
z
" transform="scale(0.015625)"/>
        <path id="DejaVuSans-5c" d="M 2059 -325 
Q 1816 -950 1584 -1140 
Q 1353 -1331 966 -1331 
L 506 -1331 
L 506 -850 
L 844 -850 
Q 1081 -850 1212 -737 
Q 1344 -625 1503 -206 
L 1606 56 
L 191 3500 
L 800 3500 
L 1894 763 
L 2988 3500 
L 3597 3500 
L 2059 -325 
z
" transform="scale(0.015625)"/>
       </defs>
       <use xlink:href="#DejaVuSans-2c"/>
       <use xlink:href="#DejaVuSans-57" transform="translate(29.5 0)"/>
       <use xlink:href="#DejaVuSans-44" transform="translate(68.703125 0)"/>
       <use xlink:href="#DejaVuSans-4f" transform="translate(129.984375 0)"/>
       <use xlink:href="#DejaVuSans-5c" transform="translate(157.765625 0)"/>
      </g>
     </g>
    </g>
    <g id="ytick_11">
     <g id="line2d_18">
      <g>
       <use xlink:href="#m201d8b6b40" x="78.41125" y="86.860329" style="stroke: #000000; stroke-width: 0.8"/>
      </g>
     </g>
     <g id="text_19">
      <!-- Lithuania -->
      <g transform="translate(34.3575 89.899704) scale(0.08 -0.08)">
       <defs>
        <path id="DejaVuSans-2f" d="M 628 4666 
L 1259 4666 
L 1259 531 
L 3531 531 
L 3531 0 
L 628 0 
L 628 4666 
z
" transform="scale(0.015625)"/>
        <path id="DejaVuSans-4b" d="M 3513 2113 
L 3513 0 
L 2938 0 
L 2938 2094 
Q 2938 2591 2744 2837 
Q 2550 3084 2163 3084 
Q 1697 3084 1428 2787 
Q 1159 2491 1159 1978 
L 1159 0 
L 581 0 
L 581 4863 
L 1159 4863 
L 1159 2956 
Q 1366 3272 1645 3428 
Q 1925 3584 2291 3584 
Q 2894 3584 3203 3211 
Q 3513 2838 3513 2113 
z
" transform="scale(0.015625)"/>
       </defs>
       <use xlink:href="#DejaVuSans-2f"/>
       <use xlink:href="#DejaVuSans-4c" transform="translate(55.71875 0)"/>
       <use xlink:href="#DejaVuSans-57" transform="translate(83.5 0)"/>
       <use xlink:href="#DejaVuSans-4b" transform="translate(122.703125 0)"/>
       <use xlink:href="#DejaVuSans-58" transform="translate(186.078125 0)"/>
       <use xlink:href="#DejaVuSans-44" transform="translate(249.453125 0)"/>
       <use xlink:href="#DejaVuSans-51" transform="translate(310.734375 0)"/>
       <use xlink:href="#DejaVuSans-4c" transform="translate(374.109375 0)"/>
       <use xlink:href="#DejaVuSans-44" transform="translate(401.890625 0)"/>
      </g>
     </g>
    </g>
    <g id="ytick_12">
     <g id="line2d_19">
      <g>
       <use xlink:href="#m201d8b6b40" x="78.41125" y="61.233211" style="stroke: #000000; stroke-width: 0.8"/>
      </g>
     </g>
     <g id="text_20">
      <!-- United States -->
      <g transform="translate(17.24 64.272586) scale(0.08 -0.08)">
       <use xlink:href="#DejaVuSans-38"/>
       <use xlink:href="#DejaVuSans-51" transform="translate(73.1875 0)"/>
       <use xlink:href="#DejaVuSans-4c" transform="translate(136.5625 0)"/>
       <use xlink:href="#DejaVuSans-57" transform="translate(164.34375 0)"/>
       <use xlink:href="#DejaVuSans-48" transform="translate(203.546875 0)"/>
       <use xlink:href="#DejaVuSans-47" transform="translate(265.078125 0)"/>
       <use xlink:href="#DejaVuSans-3" transform="translate(328.5625 0)"/>
       <use xlink:href="#DejaVuSans-36" transform="translate(360.34375 0)"/>
       <use xlink:href="#DejaVuSans-57" transform="translate(423.828125 0)"/>
       <use xlink:href="#DejaVuSans-44" transform="translate(463.03125 0)"/>
       <use xlink:href="#DejaVuSans-57" transform="translate(524.3125 0)"/>
       <use xlink:href="#DejaVuSans-48" transform="translate(563.515625 0)"/>
       <use xlink:href="#DejaVuSans-56" transform="translate(625.046875 0)"/>
      </g>
     </g>
    </g>
   </g>
   <g id="patch_15">
    <path d="M 78.41125 368.502363 
L 78.41125 35.862363 
" style="fill: none; stroke: #000000; stroke-width: 0.8; stroke-linejoin: miter; stroke-linecap: square"/>
   </g>
   <g id="patch_16">
    <path d="M 78.41125 368.502363 
L 636.41125 368.502363 
" style="fill: none; stroke: #000000; stroke-width: 0.8; stroke-linejoin: miter; stroke-linecap: square"/>
   </g>
   <g id="text_21">
    <!-- ENGLISH -->
    <g style="fill: #333333" transform="translate(516.226635 344.949875) scale(0.07 -0.07)">
     <defs>
      <path id="DejaVuSans-31" d="M 628 4666 
L 1478 4666 
L 3547 763 
L 3547 4666 
L 4159 4666 
L 4159 0 
L 3309 0 
L 1241 3903 
L 1241 0 
L 628 0 
L 628 4666 
z
" transform="scale(0.015625)"/>
      <path id="DejaVuSans-2b" d="M 628 4666 
L 1259 4666 
L 1259 2753 
L 3553 2753 
L 3553 4666 
L 4184 4666 
L 4184 0 
L 3553 0 
L 3553 2222 
L 1259 2222 
L 1259 0 
L 628 0 
L 628 4666 
z
" transform="scale(0.015625)"/>
     </defs>
     <use xlink:href="#DejaVuSans-28"/>
     <use xlink:href="#DejaVuSans-31" transform="translate(63.1875 0)"/>
     <use xlink:href="#DejaVuSans-2a" transform="translate(138 0)"/>
     <use xlink:href="#DejaVuSans-2f" transform="translate(215.484375 0)"/>
     <use xlink:href="#DejaVuSans-2c" transform="translate(271.203125 0)"/>
     <use xlink:href="#DejaVuSans-36" transform="translate(300.703125 0)"/>
     <use xlink:href="#DejaVuSans-2b" transform="translate(364.1875 0)"/>
    </g>
   </g>
   <g id="text_22">
    <!-- FI ⚑2 -->
    <g style="fill: #333333" transform="translate(258.688173 319.322757) scale(0.07 -0.07)">
     <defs>
      <path id="DejaVuSans-f68" d="M 1313 4513 
L 1078 4513 
L 1075 4678 
L 1919 4678 
L 1919 4513 
L 1681 4513 
L 1681 4431 
Q 1847 4456 2006 4456 
Q 2613 4456 3147 4081 
Q 3675 3794 4178 3794 
Q 4422 3794 4656 3859 
L 4656 1500 
Q 4325 1413 4006 1413 
Q 3472 1413 2976 1653 
Q 2481 1894 2081 1894 
Q 1831 1894 1613 1800 
L 1613 19 
L 1313 19 
L 1313 4513 
z
" transform="scale(0.015625)"/>
     </defs>
     <use xlink:href="#DejaVuSans-29"/>
     <use xlink:href="#DejaVuSans-2c" transform="translate(57.515625 0)"/>
     <use xlink:href="#DejaVuSans-3" transform="translate(87.015625 0)"/>
     <use xlink:href="#DejaVuSans-f68" transform="translate(118.796875 0)"/>
     <use xlink:href="#DejaVuSans-15" transform="translate(208.453125 0)"/>
    </g>
   </g>
   <g id="text_23">
    <!-- SL ⚑2 -->
    <g style="fill: #333333" transform="translate(258.688173 293.695638) scale(0.07 -0.07)">
     <use xlink:href="#DejaVuSans-36"/>
     <use xlink:href="#DejaVuSans-2f" transform="translate(63.484375 0)"/>
     <use xlink:href="#DejaVuSans-3" transform="translate(119.203125 0)"/>
     <use xlink:href="#DejaVuSans-f68" transform="translate(150.984375 0)"/>
     <use xlink:href="#DejaVuSans-15" transform="translate(240.640625 0)"/>
    </g>
   </g>
   <g id="text_24">
    <!-- EN -->
    <g style="fill: #333333" transform="translate(258.688173 268.068519) scale(0.07 -0.07)">
     <use xlink:href="#DejaVuSans-28"/>
     <use xlink:href="#DejaVuSans-31" transform="translate(63.1875 0)"/>
    </g>
   </g>
   <g id="text_25">
    <!-- EN -->
    <g style="fill: #333333" transform="translate(258.688173 242.441401) scale(0.07 -0.07)">
     <use xlink:href="#DejaVuSans-28"/>
     <use xlink:href="#DejaVuSans-31" transform="translate(63.1875 0)"/>
    </g>
   </g>
   <g id="text_26">
    <!-- EN -->
    <g style="fill: #333333" transform="translate(172.842019 216.814282) scale(0.07 -0.07)">
     <use xlink:href="#DejaVuSans-28"/>
     <use xlink:href="#DejaVuSans-31" transform="translate(63.1875 0)"/>
    </g>
   </g>
   <g id="text_27">
    <!-- DA ⚑1 -->
    <g style="fill: #333333" transform="translate(172.842019 191.187163) scale(0.07 -0.07)">
     <use xlink:href="#DejaVuSans-27"/>
     <use xlink:href="#DejaVuSans-24" transform="translate(75.25 0)"/>
     <use xlink:href="#DejaVuSans-3" transform="translate(143.65625 0)"/>
     <use xlink:href="#DejaVuSans-f68" transform="translate(175.4375 0)"/>
     <use xlink:href="#DejaVuSans-14" transform="translate(265.09375 0)"/>
    </g>
   </g>
   <g id="text_28">
    <!-- ET ⚑1 -->
    <g style="fill: #333333" transform="translate(172.842019 165.560045) scale(0.07 -0.07)">
     <defs>
      <path id="DejaVuSans-37" d="M -19 4666 
L 3928 4666 
L 3928 4134 
L 2272 4134 
L 2272 0 
L 1638 0 
L 1638 4134 
L -19 4134 
L -19 4666 
z
" transform="scale(0.015625)"/>
     </defs>
     <use xlink:href="#DejaVuSans-28"/>
     <use xlink:href="#DejaVuSans-37" transform="translate(63.1875 0)"/>
     <use xlink:href="#DejaVuSans-3" transform="translate(124.265625 0)"/>
     <use xlink:href="#DejaVuSans-f68" transform="translate(156.046875 0)"/>
     <use xlink:href="#DejaVuSans-14" transform="translate(245.703125 0)"/>
    </g>
   </g>
   <g id="text_29">
    <!-- FR ⚑1 -->
    <g style="fill: #333333" transform="translate(172.842019 139.932926) scale(0.07 -0.07)">
     <use xlink:href="#DejaVuSans-29"/>
     <use xlink:href="#DejaVuSans-35" transform="translate(57.515625 0)"/>
     <use xlink:href="#DejaVuSans-3" transform="translate(127 0)"/>
     <use xlink:href="#DejaVuSans-f68" transform="translate(158.78125 0)"/>
     <use xlink:href="#DejaVuSans-14" transform="translate(248.4375 0)"/>
    </g>
   </g>
   <g id="text_30">
    <!-- IT -->
    <g style="fill: #333333" transform="translate(172.842019 114.305807) scale(0.07 -0.07)">
     <use xlink:href="#DejaVuSans-2c"/>
     <use xlink:href="#DejaVuSans-37" transform="translate(29.5 0)"/>
    </g>
   </g>
   <g id="text_31">
    <!-- LT ⚑1 -->
    <g style="fill: #333333" transform="translate(172.842019 88.678689) scale(0.07 -0.07)">
     <use xlink:href="#DejaVuSans-2f"/>
     <use xlink:href="#DejaVuSans-37" transform="translate(41.953125 0)"/>
     <use xlink:href="#DejaVuSans-3" transform="translate(103.03125 0)"/>
     <use xlink:href="#DejaVuSans-f68" transform="translate(134.8125 0)"/>
     <use xlink:href="#DejaVuSans-14" transform="translate(224.46875 0)"/>
    </g>
   </g>
   <g id="text_32">
    <!-- EN -->
    <g style="fill: #333333" transform="translate(172.842019 63.05157) scale(0.07 -0.07)">
     <use xlink:href="#DejaVuSans-28"/>
     <use xlink:href="#DejaVuSans-31" transform="translate(63.1875 0)"/>
    </g>
   </g>
   <g id="text_33">
    <!-- ⚑ = translation review needed. Shows visibility surface, not prevalence or completeness. -->
    <g style="fill: #636363" transform="translate(200.930078 386.711649) scale(0.07 -0.07)">
     <defs>
      <path id="DejaVuSans-Oblique-e70" d="M 744 4469 
L 513 4469 
L 509 4631 
L 1344 4631 
L 1344 4469 
L 1109 4469 
L 1109 4388 
Q 1894 4513 2559 4041 
Q 3338 3616 4056 3822 
L 4056 1484 
Q 3175 1256 2387 1640 
Q 1600 2025 1041 1781 
L 1041 19 
L 744 19 
L 744 4469 
z
" transform="scale(0.015625)"/>
      <path id="DejaVuSans-Oblique-3" transform="scale(0.015625)"/>
      <path id="DejaVuSans-Oblique-20" d="M 678 2906 
L 4684 2906 
L 4684 2381 
L 678 2381 
L 678 2906 
z
M 678 1631 
L 4684 1631 
L 4684 1100 
L 678 1100 
L 678 1631 
z
" transform="scale(0.015625)"/>
      <path id="DejaVuSans-Oblique-57" d="M 2706 3500 
L 2619 3053 
L 1472 3053 
L 1100 1153 
Q 1081 1047 1072 975 
Q 1063 903 1063 863 
Q 1063 663 1183 572 
Q 1303 481 1569 481 
L 2150 481 
L 2053 0 
L 1503 0 
Q 991 0 739 200 
Q 488 400 488 806 
Q 488 878 497 964 
Q 506 1050 525 1153 
L 897 3053 
L 409 3053 
L 500 3500 
L 978 3500 
L 1172 4494 
L 1747 4494 
L 1556 3500 
L 2706 3500 
z
" transform="scale(0.015625)"/>
      <path id="DejaVuSans-Oblique-55" d="M 2853 2969 
Q 2766 3016 2653 3041 
Q 2541 3066 2413 3066 
Q 1953 3066 1609 2717 
Q 1266 2369 1153 1784 
L 800 0 
L 225 0 
L 909 3500 
L 1484 3500 
L 1375 2956 
Q 1603 3259 1920 3421 
Q 2238 3584 2597 3584 
Q 2691 3584 2781 3573 
Q 2872 3563 2963 3538 
L 2853 2969 
z
" transform="scale(0.015625)"/>
      <path id="DejaVuSans-Oblique-44" d="M 3438 1997 
L 3047 0 
L 2472 0 
L 2578 531 
Q 2325 219 2001 64 
Q 1678 -91 1281 -91 
Q 834 -91 548 182 
Q 263 456 263 884 
Q 263 1497 752 1853 
Q 1241 2209 2100 2209 
L 2900 2209 
L 2931 2363 
Q 2938 2388 2941 2417 
Q 2944 2447 2944 2509 
Q 2944 2788 2717 2942 
Q 2491 3097 2081 3097 
Q 1800 3097 1504 3025 
Q 1209 2953 897 2809 
L 997 3341 
Q 1322 3463 1633 3523 
Q 1944 3584 2234 3584 
Q 2853 3584 3176 3315 
Q 3500 3047 3500 2534 
Q 3500 2431 3484 2292 
Q 3469 2153 3438 1997 
z
M 2816 1759 
L 2241 1759 
Q 1534 1759 1195 1570 
Q 856 1381 856 984 
Q 856 709 1029 553 
Q 1203 397 1509 397 
Q 1978 397 2328 733 
Q 2678 1069 2791 1631 
L 2816 1759 
z
" transform="scale(0.015625)"/>
      <path id="DejaVuSans-Oblique-51" d="M 3566 2113 
L 3156 0 
L 2578 0 
L 2988 2091 
Q 3016 2238 3031 2350 
Q 3047 2463 3047 2528 
Q 3047 2791 2881 2937 
Q 2716 3084 2419 3084 
Q 1956 3084 1622 2776 
Q 1288 2469 1184 1941 
L 800 0 
L 225 0 
L 903 3500 
L 1478 3500 
L 1363 2950 
Q 1603 3253 1940 3418 
Q 2278 3584 2650 3584 
Q 3113 3584 3367 3334 
Q 3622 3084 3622 2631 
Q 3622 2519 3608 2391 
Q 3594 2263 3566 2113 
z
" transform="scale(0.015625)"/>
      <path id="DejaVuSans-Oblique-56" d="M 3200 3397 
L 3091 2853 
Q 2863 2978 2609 3040 
Q 2356 3103 2088 3103 
Q 1634 3103 1373 2948 
Q 1113 2794 1113 2528 
Q 1113 2219 1719 2053 
Q 1766 2041 1788 2034 
L 1972 1978 
Q 2547 1819 2739 1644 
Q 2931 1469 2931 1166 
Q 2931 609 2489 259 
Q 2047 -91 1331 -91 
Q 1053 -91 747 -37 
Q 441 16 72 128 
L 184 722 
Q 500 559 806 475 
Q 1113 391 1394 391 
Q 1816 391 2080 572 
Q 2344 753 2344 1031 
Q 2344 1331 1650 1516 
L 1591 1531 
L 1394 1581 
Q 956 1697 753 1886 
Q 550 2075 550 2369 
Q 550 2928 970 3256 
Q 1391 3584 2113 3584 
Q 2397 3584 2667 3537 
Q 2938 3491 3200 3397 
z
" transform="scale(0.015625)"/>
      <path id="DejaVuSans-Oblique-4f" d="M 1172 4863 
L 1747 4863 
L 800 0 
L 225 0 
L 1172 4863 
z
" transform="scale(0.015625)"/>
      <path id="DejaVuSans-Oblique-4c" d="M 1172 4863 
L 1747 4863 
L 1606 4134 
L 1031 4134 
L 1172 4863 
z
M 909 3500 
L 1484 3500 
L 800 0 
L 225 0 
L 909 3500 
z
" transform="scale(0.015625)"/>
      <path id="DejaVuSans-Oblique-52" d="M 1625 -91 
Q 1009 -91 651 289 
Q 294 669 294 1325 
Q 294 1706 417 2101 
Q 541 2497 738 2766 
Q 1047 3184 1428 3384 
Q 1809 3584 2291 3584 
Q 2888 3584 3255 3212 
Q 3622 2841 3622 2241 
Q 3622 1825 3500 1412 
Q 3378 1000 3181 728 
Q 2875 309 2494 109 
Q 2113 -91 1625 -91 
z
M 891 1344 
Q 891 869 1089 633 
Q 1288 397 1691 397 
Q 2269 397 2648 901 
Q 3028 1406 3028 2181 
Q 3028 2634 2825 2865 
Q 2622 3097 2228 3097 
Q 1903 3097 1650 2945 
Q 1397 2794 1197 2484 
Q 1050 2253 970 1956 
Q 891 1659 891 1344 
z
" transform="scale(0.015625)"/>
      <path id="DejaVuSans-Oblique-48" d="M 3078 2063 
Q 3088 2113 3092 2166 
Q 3097 2219 3097 2272 
Q 3097 2653 2873 2875 
Q 2650 3097 2266 3097 
Q 1838 3097 1509 2826 
Q 1181 2556 1013 2059 
L 3078 2063 
z
M 3578 1613 
L 903 1613 
Q 884 1494 878 1425 
Q 872 1356 872 1306 
Q 872 872 1139 634 
Q 1406 397 1894 397 
Q 2269 397 2603 481 
Q 2938 566 3225 728 
L 3116 159 
Q 2806 34 2476 -28 
Q 2147 -91 1806 -91 
Q 1078 -91 686 257 
Q 294 606 294 1247 
Q 294 1794 489 2264 
Q 684 2734 1063 3103 
Q 1306 3334 1642 3459 
Q 1978 3584 2356 3584 
Q 2950 3584 3301 3228 
Q 3653 2872 3653 2272 
Q 3653 2128 3634 1964 
Q 3616 1800 3578 1613 
z
" transform="scale(0.015625)"/>
      <path id="DejaVuSans-Oblique-59" d="M 459 3500 
L 1069 3500 
L 1581 525 
L 3256 3500 
L 3866 3500 
L 1875 0 
L 1100 0 
L 459 3500 
z
" transform="scale(0.015625)"/>
      <path id="DejaVuSans-Oblique-5a" d="M 544 3500 
L 1113 3500 
L 1259 684 
L 2566 3500 
L 3231 3500 
L 3425 684 
L 4666 3500 
L 5241 3500 
L 3641 0 
L 2969 0 
L 2797 2900 
L 1459 0 
L 781 0 
L 544 3500 
z
" transform="scale(0.015625)"/>
      <path id="DejaVuSans-Oblique-47" d="M 2675 525 
Q 2444 222 2128 65 
Q 1813 -91 1428 -91 
Q 903 -91 598 267 
Q 294 625 294 1247 
Q 294 1766 478 2236 
Q 663 2706 1013 3078 
Q 1244 3325 1534 3454 
Q 1825 3584 2144 3584 
Q 2481 3584 2739 3421 
Q 2997 3259 3138 2956 
L 3513 4863 
L 4091 4863 
L 3144 0 
L 2566 0 
L 2675 525 
z
M 891 1350 
Q 891 897 1095 644 
Q 1300 391 1663 391 
Q 1931 391 2161 520 
Q 2391 650 2566 903 
Q 2750 1166 2856 1509 
Q 2963 1853 2963 2188 
Q 2963 2622 2758 2865 
Q 2553 3109 2194 3109 
Q 1922 3109 1687 2981 
Q 1453 2853 1288 2613 
Q 1106 2353 998 2009 
Q 891 1666 891 1350 
z
" transform="scale(0.015625)"/>
      <path id="DejaVuSans-Oblique-11" d="M 525 794 
L 1184 794 
L 1031 0 
L 372 0 
L 525 794 
z
" transform="scale(0.015625)"/>
      <path id="DejaVuSans-Oblique-36" d="M 3859 4513 
L 3738 3897 
Q 3422 4066 3111 4152 
Q 2800 4238 2509 4238 
Q 1944 4238 1609 3991 
Q 1275 3744 1275 3334 
Q 1275 3109 1398 2989 
Q 1522 2869 2034 2731 
L 2413 2638 
Q 3053 2472 3303 2217 
Q 3553 1963 3553 1503 
Q 3553 797 2998 353 
Q 2444 -91 1538 -91 
Q 1166 -91 791 -17 
Q 416 56 38 206 
L 166 856 
Q 513 641 861 531 
Q 1209 422 1556 422 
Q 2147 422 2503 684 
Q 2859 947 2859 1369 
Q 2859 1650 2717 1795 
Q 2575 1941 2106 2059 
L 1728 2156 
Q 1081 2325 845 2545 
Q 609 2766 609 3163 
Q 609 3859 1145 4304 
Q 1681 4750 2541 4750 
Q 2875 4750 3203 4690 
Q 3531 4631 3859 4513 
z
" transform="scale(0.015625)"/>
      <path id="DejaVuSans-Oblique-4b" d="M 3566 2113 
L 3156 0 
L 2578 0 
L 2988 2091 
Q 3016 2238 3031 2350 
Q 3047 2463 3047 2528 
Q 3047 2791 2881 2937 
Q 2716 3084 2419 3084 
Q 1956 3084 1617 2771 
Q 1278 2459 1178 1941 
L 800 0 
L 225 0 
L 1172 4863 
L 1747 4863 
L 1375 2950 
Q 1594 3244 1934 3414 
Q 2275 3584 2650 3584 
Q 3113 3584 3367 3334 
Q 3622 3084 3622 2631 
Q 3622 2519 3608 2391 
Q 3594 2263 3566 2113 
z
" transform="scale(0.015625)"/>
      <path id="DejaVuSans-Oblique-45" d="M 3169 2138 
Q 3169 2591 2961 2847 
Q 2753 3103 2388 3103 
Q 2122 3103 1889 2973 
Q 1656 2844 1484 2597 
Q 1303 2338 1198 1995 
Q 1094 1653 1094 1313 
Q 1094 881 1298 636 
Q 1503 391 1863 391 
Q 2134 391 2365 517 
Q 2597 644 2772 891 
Q 2950 1147 3059 1487 
Q 3169 1828 3169 2138 
z
M 1381 2969 
Q 1594 3256 1914 3420 
Q 2234 3584 2584 3584 
Q 3122 3584 3439 3221 
Q 3756 2859 3756 2241 
Q 3756 1734 3570 1259 
Q 3384 784 3041 416 
Q 2816 172 2522 40 
Q 2228 -91 1906 -91 
Q 1566 -91 1316 65 
Q 1066 222 909 531 
L 806 0 
L 231 0 
L 1178 4863 
L 1753 4863 
L 1381 2969 
z
" transform="scale(0.015625)"/>
      <path id="DejaVuSans-Oblique-5c" d="M 1588 -325 
Q 1188 -997 936 -1164 
Q 684 -1331 294 -1331 
L -159 -1331 
L -63 -850 
L 269 -850 
Q 509 -850 678 -719 
Q 847 -588 1056 -206 
L 1234 128 
L 459 3500 
L 1069 3500 
L 1650 819 
L 3256 3500 
L 3859 3500 
L 1588 -325 
z
" transform="scale(0.015625)"/>
      <path id="DejaVuSans-Oblique-58" d="M 428 1388 
L 838 3500 
L 1416 3500 
L 1006 1409 
Q 975 1256 961 1147 
Q 947 1038 947 966 
Q 947 700 1109 554 
Q 1272 409 1569 409 
Q 2031 409 2368 721 
Q 2706 1034 2809 1563 
L 3194 3500 
L 3769 3500 
L 3091 0 
L 2516 0 
L 2631 550 
Q 2388 244 2052 76 
Q 1716 -91 1338 -91 
Q 878 -91 622 161 
Q 366 413 366 863 
Q 366 956 381 1097 
Q 397 1238 428 1388 
z
" transform="scale(0.015625)"/>
      <path id="DejaVuSans-Oblique-49" d="M 3059 4863 
L 2969 4384 
L 2419 4384 
Q 2106 4384 1964 4261 
Q 1822 4138 1753 3809 
L 1691 3500 
L 2638 3500 
L 2553 3053 
L 1606 3053 
L 1013 0 
L 434 0 
L 1031 3053 
L 481 3053 
L 563 3500 
L 1113 3500 
L 1159 3744 
Q 1278 4363 1576 4613 
Q 1875 4863 2516 4863 
L 3059 4863 
z
" transform="scale(0.015625)"/>
      <path id="DejaVuSans-Oblique-46" d="M 3431 3366 
L 3316 2797 
Q 3109 2947 2876 3022 
Q 2644 3097 2394 3097 
Q 2119 3097 1870 3000 
Q 1622 2903 1453 2725 
Q 1184 2453 1037 2087 
Q 891 1722 891 1331 
Q 891 859 1127 628 
Q 1363 397 1844 397 
Q 2081 397 2348 469 
Q 2616 541 2906 684 
L 2797 116 
Q 2547 13 2283 -39 
Q 2019 -91 1741 -91 
Q 1044 -91 669 257 
Q 294 606 294 1253 
Q 294 1797 489 2255 
Q 684 2713 1069 3078 
Q 1331 3328 1684 3456 
Q 2038 3584 2456 3584 
Q 2700 3584 2940 3529 
Q 3181 3475 3431 3366 
z
" transform="scale(0.015625)"/>
      <path id="DejaVuSans-Oblique-f" d="M 575 794 
L 1234 794 
L 1131 256 
L 422 -744 
L 19 -744 
L 469 256 
L 575 794 
z
" transform="scale(0.015625)"/>
      <path id="DejaVuSans-Oblique-53" d="M 3175 2156 
Q 3175 2616 2975 2859 
Q 2775 3103 2400 3103 
Q 2144 3103 1911 2972 
Q 1678 2841 1497 2591 
Q 1319 2344 1212 1994 
Q 1106 1644 1106 1300 
Q 1106 863 1306 627 
Q 1506 391 1875 391 
Q 2147 391 2380 519 
Q 2613 647 2778 891 
Q 2956 1147 3065 1494 
Q 3175 1841 3175 2156 
z
M 1394 2969 
Q 1625 3272 1939 3428 
Q 2253 3584 2638 3584 
Q 3175 3584 3472 3232 
Q 3769 2881 3769 2247 
Q 3769 1728 3584 1258 
Q 3400 788 3053 416 
Q 2822 169 2531 39 
Q 2241 -91 1919 -91 
Q 1547 -91 1294 64 
Q 1041 219 916 525 
L 556 -1331 
L -19 -1331 
L 922 3500 
L 1497 3500 
L 1394 2969 
z
" transform="scale(0.015625)"/>
      <path id="DejaVuSans-Oblique-50" d="M 5747 2113 
L 5338 0 
L 4763 0 
L 5166 2094 
Q 5191 2228 5203 2325 
Q 5216 2422 5216 2491 
Q 5216 2772 5059 2928 
Q 4903 3084 4622 3084 
Q 4203 3084 3875 2770 
Q 3547 2456 3450 1953 
L 3066 0 
L 2491 0 
L 2900 2094 
Q 2925 2209 2937 2307 
Q 2950 2406 2950 2484 
Q 2950 2769 2794 2926 
Q 2638 3084 2363 3084 
Q 1938 3084 1609 2770 
Q 1281 2456 1184 1953 
L 800 0 
L 225 0 
L 909 3500 
L 1484 3500 
L 1375 2956 
Q 1609 3263 1923 3423 
Q 2238 3584 2597 3584 
Q 2978 3584 3223 3384 
Q 3469 3184 3519 2828 
Q 3781 3197 4126 3390 
Q 4472 3584 4856 3584 
Q 5306 3584 5551 3325 
Q 5797 3066 5797 2591 
Q 5797 2488 5784 2364 
Q 5772 2241 5747 2113 
z
" transform="scale(0.015625)"/>
     </defs>
     <use xlink:href="#DejaVuSans-Oblique-e70"/>
     <use xlink:href="#DejaVuSans-Oblique-3" transform="translate(75 0)"/>
     <use xlink:href="#DejaVuSans-Oblique-20" transform="translate(106.78125 0)"/>
     <use xlink:href="#DejaVuSans-Oblique-3" transform="translate(190.578125 0)"/>
     <use xlink:href="#DejaVuSans-Oblique-57" transform="translate(222.359375 0)"/>
     <use xlink:href="#DejaVuSans-Oblique-55" transform="translate(261.5625 0)"/>
     <use xlink:href="#DejaVuSans-Oblique-44" transform="translate(302.671875 0)"/>
     <use xlink:href="#DejaVuSans-Oblique-51" transform="translate(363.953125 0)"/>
     <use xlink:href="#DejaVuSans-Oblique-56" transform="translate(427.328125 0)"/>
     <use xlink:href="#DejaVuSans-Oblique-4f" transform="translate(479.421875 0)"/>
     <use xlink:href="#DejaVuSans-Oblique-44" transform="translate(507.203125 0)"/>
     <use xlink:href="#DejaVuSans-Oblique-57" transform="translate(568.484375 0)"/>
     <use xlink:href="#DejaVuSans-Oblique-4c" transform="translate(607.6875 0)"/>
     <use xlink:href="#DejaVuSans-Oblique-52" transform="translate(635.46875 0)"/>
     <use xlink:href="#DejaVuSans-Oblique-51" transform="translate(696.65625 0)"/>
     <use xlink:href="#DejaVuSans-Oblique-3" transform="translate(760.03125 0)"/>
     <use xlink:href="#DejaVuSans-Oblique-55" transform="translate(791.8125 0)"/>
     <use xlink:href="#DejaVuSans-Oblique-48" transform="translate(832.921875 0)"/>
     <use xlink:href="#DejaVuSans-Oblique-59" transform="translate(894.453125 0)"/>
     <use xlink:href="#DejaVuSans-Oblique-4c" transform="translate(953.640625 0)"/>
     <use xlink:href="#DejaVuSans-Oblique-48" transform="translate(981.421875 0)"/>
     <use xlink:href="#DejaVuSans-Oblique-5a" transform="translate(1042.953125 0)"/>
     <use xlink:href="#DejaVuSans-Oblique-3" transform="translate(1124.734375 0)"/>
     <use xlink:href="#DejaVuSans-Oblique-51" transform="translate(1156.515625 0)"/>
     <use xlink:href="#DejaVuSans-Oblique-48" transform="translate(1219.890625 0)"/>
     <use xlink:href="#DejaVuSans-Oblique-48" transform="translate(1281.421875 0)"/>
     <use xlink:href="#DejaVuSans-Oblique-47" transform="translate(1342.953125 0)"/>
     <use xlink:href="#DejaVuSans-Oblique-48" transform="translate(1406.4375 0)"/>
     <use xlink:href="#DejaVuSans-Oblique-47" transform="translate(1467.96875 0)"/>
     <use xlink:href="#DejaVuSans-Oblique-11" transform="translate(1531.453125 0)"/>
     <use xlink:href="#DejaVuSans-Oblique-3" transform="translate(1563.234375 0)"/>
     <use xlink:href="#DejaVuSans-Oblique-36" transform="translate(1595.015625 0)"/>
     <use xlink:href="#DejaVuSans-Oblique-4b" transform="translate(1658.5 0)"/>
     <use xlink:href="#DejaVuSans-Oblique-52" transform="translate(1721.875 0)"/>
     <use xlink:href="#DejaVuSans-Oblique-5a" transform="translate(1783.0625 0)"/>
     <use xlink:href="#DejaVuSans-Oblique-56" transform="translate(1864.84375 0)"/>
     <use xlink:href="#DejaVuSans-Oblique-3" transform="translate(1916.9375 0)"/>
     <use xlink:href="#DejaVuSans-Oblique-59" transform="translate(1948.71875 0)"/>
     <use xlink:href="#DejaVuSans-Oblique-4c" transform="translate(2007.90625 0)"/>
     <use xlink:href="#DejaVuSans-Oblique-56" transform="translate(2035.6875 0)"/>
     <use xlink:href="#DejaVuSans-Oblique-4c" transform="translate(2087.78125 0)"/>
     <use xlink:href="#DejaVuSans-Oblique-45" transform="translate(2115.5625 0)"/>
     <use xlink:href="#DejaVuSans-Oblique-4c" transform="translate(2179.046875 0)"/>
     <use xlink:href="#DejaVuSans-Oblique-4f" transform="translate(2206.828125 0)"/>
     <use xlink:href="#DejaVuSans-Oblique-4c" transform="translate(2234.609375 0)"/>
     <use xlink:href="#DejaVuSans-Oblique-57" transform="translate(2262.390625 0)"/>
     <use xlink:href="#DejaVuSans-Oblique-5c" transform="translate(2301.59375 0)"/>
     <use xlink:href="#DejaVuSans-Oblique-3" transform="translate(2360.78125 0)"/>
     <use xlink:href="#DejaVuSans-Oblique-56" transform="translate(2392.5625 0)"/>
     <use xlink:href="#DejaVuSans-Oblique-58" transform="translate(2444.65625 0)"/>
     <use xlink:href="#DejaVuSans-Oblique-55" transform="translate(2508.03125 0)"/>
     <use xlink:href="#DejaVuSans-Oblique-49" transform="translate(2549.140625 0)"/>
     <use xlink:href="#DejaVuSans-Oblique-44" transform="translate(2584.34375 0)"/>
     <use xlink:href="#DejaVuSans-Oblique-46" transform="translate(2645.625 0)"/>
     <use xlink:href="#DejaVuSans-Oblique-48" transform="translate(2700.609375 0)"/>
     <use xlink:href="#DejaVuSans-Oblique-f" transform="translate(2762.140625 0)"/>
     <use xlink:href="#DejaVuSans-Oblique-3" transform="translate(2793.921875 0)"/>
     <use xlink:href="#DejaVuSans-Oblique-51" transform="translate(2825.703125 0)"/>
     <use xlink:href="#DejaVuSans-Oblique-52" transform="translate(2889.078125 0)"/>
     <use xlink:href="#DejaVuSans-Oblique-57" transform="translate(2950.265625 0)"/>
     <use xlink:href="#DejaVuSans-Oblique-3" transform="translate(2989.46875 0)"/>
     <use xlink:href="#DejaVuSans-Oblique-53" transform="translate(3021.25 0)"/>
     <use xlink:href="#DejaVuSans-Oblique-55" transform="translate(3084.734375 0)"/>
     <use xlink:href="#DejaVuSans-Oblique-48" transform="translate(3125.84375 0)"/>
     <use xlink:href="#DejaVuSans-Oblique-59" transform="translate(3187.375 0)"/>
     <use xlink:href="#DejaVuSans-Oblique-44" transform="translate(3246.5625 0)"/>
     <use xlink:href="#DejaVuSans-Oblique-4f" transform="translate(3307.84375 0)"/>
     <use xlink:href="#DejaVuSans-Oblique-48" transform="translate(3335.625 0)"/>
     <use xlink:href="#DejaVuSans-Oblique-51" transform="translate(3397.15625 0)"/>
     <use xlink:href="#DejaVuSans-Oblique-46" transform="translate(3460.53125 0)"/>
     <use xlink:href="#DejaVuSans-Oblique-48" transform="translate(3515.515625 0)"/>
     <use xlink:href="#DejaVuSans-Oblique-3" transform="translate(3577.046875 0)"/>
     <use xlink:href="#DejaVuSans-Oblique-52" transform="translate(3608.828125 0)"/>
     <use xlink:href="#DejaVuSans-Oblique-55" transform="translate(3670.015625 0)"/>
     <use xlink:href="#DejaVuSans-Oblique-3" transform="translate(3711.125 0)"/>
     <use xlink:href="#DejaVuSans-Oblique-46" transform="translate(3742.90625 0)"/>
     <use xlink:href="#DejaVuSans-Oblique-52" transform="translate(3797.890625 0)"/>
     <use xlink:href="#DejaVuSans-Oblique-50" transform="translate(3859.078125 0)"/>
     <use xlink:href="#DejaVuSans-Oblique-53" transform="translate(3956.484375 0)"/>
     <use xlink:href="#DejaVuSans-Oblique-4f" transform="translate(4019.96875 0)"/>
     <use xlink:href="#DejaVuSans-Oblique-48" transform="translate(4047.75 0)"/>
     <use xlink:href="#DejaVuSans-Oblique-57" transform="translate(4109.28125 0)"/>
     <use xlink:href="#DejaVuSans-Oblique-48" transform="translate(4148.484375 0)"/>
     <use xlink:href="#DejaVuSans-Oblique-51" transform="translate(4210.015625 0)"/>
     <use xlink:href="#DejaVuSans-Oblique-48" transform="translate(4273.390625 0)"/>
     <use xlink:href="#DejaVuSans-Oblique-56" transform="translate(4334.921875 0)"/>
     <use xlink:href="#DejaVuSans-Oblique-56" transform="translate(4387.015625 0)"/>
     <use xlink:href="#DejaVuSans-Oblique-11" transform="translate(4439.109375 0)"/>
    </g>
    <!-- 21 publication-safe lineages across jurisdictions. -->
    <g style="fill: #636363" transform="translate(272.371641 395.113563) scale(0.07 -0.07)">
     <defs>
      <path id="DejaVuSans-Oblique-15" d="M 2950 2253 
L 934 525 
L 3163 525 
L 3053 0 
L 25 0 
L 128 531 
L 2234 2338 
Q 2656 2703 2832 2979 
Q 3009 3256 3009 3547 
Q 3009 3850 2796 4040 
Q 2584 4231 2241 4231 
Q 1944 4231 1581 4125 
Q 1219 4019 806 3816 
L 922 4441 
Q 1309 4594 1662 4672 
Q 2016 4750 2316 4750 
Q 2928 4750 3301 4425 
Q 3675 4100 3675 3572 
Q 3675 3216 3497 2892 
Q 3319 2569 2950 2253 
z
" transform="scale(0.015625)"/>
      <path id="DejaVuSans-Oblique-14" d="M 416 531 
L 1447 531 
L 2144 4122 
L 978 3897 
L 1088 4441 
L 2247 4666 
L 2881 4666 
L 2075 531 
L 3103 531 
L 3003 0 
L 313 0 
L 416 531 
z
" transform="scale(0.015625)"/>
      <path id="DejaVuSans-Oblique-10" d="M 391 2009 
L 2075 2009 
L 1978 1497 
L 288 1497 
L 391 2009 
z
" transform="scale(0.015625)"/>
      <path id="DejaVuSans-Oblique-4a" d="M 3816 3500 
L 3219 434 
Q 3047 -456 2561 -893 
Q 2075 -1331 1253 -1331 
Q 950 -1331 690 -1286 
Q 431 -1241 206 -1147 
L 313 -588 
Q 525 -725 762 -790 
Q 1000 -856 1269 -856 
Q 1816 -856 2167 -557 
Q 2519 -259 2631 300 
L 2681 563 
Q 2441 288 2122 144 
Q 1803 0 1434 0 
Q 903 0 598 351 
Q 294 703 294 1319 
Q 294 1803 478 2267 
Q 663 2731 997 3091 
Q 1219 3328 1514 3456 
Q 1809 3584 2131 3584 
Q 2484 3584 2746 3420 
Q 3009 3256 3138 2956 
L 3238 3500 
L 3816 3500 
z
M 2950 2216 
Q 2950 2641 2750 2872 
Q 2550 3103 2181 3103 
Q 1953 3103 1747 3012 
Q 1541 2922 1394 2759 
Q 1156 2491 1023 2127 
Q 891 1763 891 1375 
Q 891 944 1092 712 
Q 1294 481 1672 481 
Q 2219 481 2584 976 
Q 2950 1472 2950 2216 
z
" transform="scale(0.015625)"/>
      <path id="DejaVuSans-Oblique-4d" d="M 928 3500 
L 1503 3500 
L 813 -63 
L 809 -78 
Q 694 -675 544 -897 
Q 403 -1106 132 -1218 
Q -138 -1331 -506 -1331 
L -722 -1331 
L -628 -844 
L -481 -844 
Q -144 -844 -1 -703 
Q 141 -563 238 -63 
L 928 3500 
z
M 1197 4863 
L 1772 4863 
L 1631 4134 
L 1056 4134 
L 1197 4863 
z
" transform="scale(0.015625)"/>
     </defs>
     <use xlink:href="#DejaVuSans-Oblique-15"/>
     <use xlink:href="#DejaVuSans-Oblique-14" transform="translate(63.625 0)"/>
     <use xlink:href="#DejaVuSans-Oblique-3" transform="translate(127.25 0)"/>
     <use xlink:href="#DejaVuSans-Oblique-53" transform="translate(159.03125 0)"/>
     <use xlink:href="#DejaVuSans-Oblique-58" transform="translate(222.515625 0)"/>
     <use xlink:href="#DejaVuSans-Oblique-45" transform="translate(285.890625 0)"/>
     <use xlink:href="#DejaVuSans-Oblique-4f" transform="translate(349.375 0)"/>
     <use xlink:href="#DejaVuSans-Oblique-4c" transform="translate(377.15625 0)"/>
     <use xlink:href="#DejaVuSans-Oblique-46" transform="translate(404.9375 0)"/>
     <use xlink:href="#DejaVuSans-Oblique-44" transform="translate(459.921875 0)"/>
     <use xlink:href="#DejaVuSans-Oblique-57" transform="translate(521.203125 0)"/>
     <use xlink:href="#DejaVuSans-Oblique-4c" transform="translate(560.40625 0)"/>
     <use xlink:href="#DejaVuSans-Oblique-52" transform="translate(588.1875 0)"/>
     <use xlink:href="#DejaVuSans-Oblique-51" transform="translate(649.375 0)"/>
     <use xlink:href="#DejaVuSans-Oblique-10" transform="translate(712.75 0)"/>
     <use xlink:href="#DejaVuSans-Oblique-56" transform="translate(748.828125 0)"/>
     <use xlink:href="#DejaVuSans-Oblique-44" transform="translate(800.921875 0)"/>
     <use xlink:href="#DejaVuSans-Oblique-49" transform="translate(862.203125 0)"/>
     <use xlink:href="#DejaVuSans-Oblique-48" transform="translate(897.40625 0)"/>
     <use xlink:href="#DejaVuSans-Oblique-3" transform="translate(958.9375 0)"/>
     <use xlink:href="#DejaVuSans-Oblique-4f" transform="translate(990.71875 0)"/>
     <use xlink:href="#DejaVuSans-Oblique-4c" transform="translate(1018.5 0)"/>
     <use xlink:href="#DejaVuSans-Oblique-51" transform="translate(1046.28125 0)"/>
     <use xlink:href="#DejaVuSans-Oblique-48" transform="translate(1109.65625 0)"/>
     <use xlink:href="#DejaVuSans-Oblique-44" transform="translate(1171.1875 0)"/>
     <use xlink:href="#DejaVuSans-Oblique-4a" transform="translate(1232.46875 0)"/>
     <use xlink:href="#DejaVuSans-Oblique-48" transform="translate(1295.953125 0)"/>
     <use xlink:href="#DejaVuSans-Oblique-56" transform="translate(1357.484375 0)"/>
     <use xlink:href="#DejaVuSans-Oblique-3" transform="translate(1409.578125 0)"/>
     <use xlink:href="#DejaVuSans-Oblique-44" transform="translate(1441.359375 0)"/>
     <use xlink:href="#DejaVuSans-Oblique-46" transform="translate(1502.640625 0)"/>
     <use xlink:href="#DejaVuSans-Oblique-55" transform="translate(1557.625 0)"/>
     <use xlink:href="#DejaVuSans-Oblique-52" transform="translate(1598.734375 0)"/>
     <use xlink:href="#DejaVuSans-Oblique-56" transform="translate(1659.921875 0)"/>
     <use xlink:href="#DejaVuSans-Oblique-56" transform="translate(1712.015625 0)"/>
     <use xlink:href="#DejaVuSans-Oblique-3" transform="translate(1764.109375 0)"/>
     <use xlink:href="#DejaVuSans-Oblique-4d" transform="translate(1795.890625 0)"/>
     <use xlink:href="#DejaVuSans-Oblique-58" transform="translate(1823.671875 0)"/>
     <use xlink:href="#DejaVuSans-Oblique-55" transform="translate(1887.046875 0)"/>
     <use xlink:href="#DejaVuSans-Oblique-4c" transform="translate(1928.15625 0)"/>
     <use xlink:href="#DejaVuSans-Oblique-56" transform="translate(1955.9375 0)"/>
     <use xlink:href="#DejaVuSans-Oblique-47" transform="translate(2008.03125 0)"/>
     <use xlink:href="#DejaVuSans-Oblique-4c" transform="translate(2071.515625 0)"/>
     <use xlink:href="#DejaVuSans-Oblique-46" transform="translate(2099.296875 0)"/>
     <use xlink:href="#DejaVuSans-Oblique-57" transform="translate(2154.28125 0)"/>
     <use xlink:href="#DejaVuSans-Oblique-4c" transform="translate(2193.484375 0)"/>
     <use xlink:href="#DejaVuSans-Oblique-52" transform="translate(2221.265625 0)"/>
     <use xlink:href="#DejaVuSans-Oblique-51" transform="translate(2282.453125 0)"/>
     <use xlink:href="#DejaVuSans-Oblique-56" transform="translate(2345.828125 0)"/>
     <use xlink:href="#DejaVuSans-Oblique-11" transform="translate(2397.921875 0)"/>
    </g>
   </g>
   <g id="text_34">
    <!-- Figure 5. Jurisdiction and Language Coverage -->
    <g transform="translate(232.446094 16.659355) scale(0.11 -0.11)">
     <defs>
      <path id="DejaVuSans-11" d="M 684 794 
L 1344 794 
L 1344 0 
L 684 0 
L 684 794 
z
" transform="scale(0.015625)"/>
      <path id="DejaVuSans-2d" d="M 628 4666 
L 1259 4666 
L 1259 325 
Q 1259 -519 939 -900 
Q 619 -1281 -91 -1281 
L -331 -1281 
L -331 -750 
L -134 -750 
Q 284 -750 456 -515 
Q 628 -281 628 325 
L 628 4666 
z
" transform="scale(0.015625)"/>
     </defs>
     <use xlink:href="#DejaVuSans-29"/>
     <use xlink:href="#DejaVuSans-4c" transform="translate(50.234375 0)"/>
     <use xlink:href="#DejaVuSans-4a" transform="translate(78.015625 0)"/>
     <use xlink:href="#DejaVuSans-58" transform="translate(141.5 0)"/>
     <use xlink:href="#DejaVuSans-55" transform="translate(204.875 0)"/>
     <use xlink:href="#DejaVuSans-48" transform="translate(243.78125 0)"/>
     <use xlink:href="#DejaVuSans-3" transform="translate(305.3125 0)"/>
     <use xlink:href="#DejaVuSans-18" transform="translate(337.09375 0)"/>
     <use xlink:href="#DejaVuSans-11" transform="translate(400.71875 0)"/>
     <use xlink:href="#DejaVuSans-3" transform="translate(432.5 0)"/>
     <use xlink:href="#DejaVuSans-2d" transform="translate(464.28125 0)"/>
     <use xlink:href="#DejaVuSans-58" transform="translate(493.78125 0)"/>
     <use xlink:href="#DejaVuSans-55" transform="translate(557.15625 0)"/>
     <use xlink:href="#DejaVuSans-4c" transform="translate(598.265625 0)"/>
     <use xlink:href="#DejaVuSans-56" transform="translate(626.046875 0)"/>
     <use xlink:href="#DejaVuSans-47" transform="translate(678.140625 0)"/>
     <use xlink:href="#DejaVuSans-4c" transform="translate(741.625 0)"/>
     <use xlink:href="#DejaVuSans-46" transform="translate(769.40625 0)"/>
     <use xlink:href="#DejaVuSans-57" transform="translate(824.390625 0)"/>
     <use xlink:href="#DejaVuSans-4c" transform="translate(863.59375 0)"/>
     <use xlink:href="#DejaVuSans-52" transform="translate(891.375 0)"/>
     <use xlink:href="#DejaVuSans-51" transform="translate(952.5625 0)"/>
     <use xlink:href="#DejaVuSans-3" transform="translate(1015.9375 0)"/>
     <use xlink:href="#DejaVuSans-44" transform="translate(1047.71875 0)"/>
     <use xlink:href="#DejaVuSans-51" transform="translate(1109 0)"/>
     <use xlink:href="#DejaVuSans-47" transform="translate(1172.375 0)"/>
     <use xlink:href="#DejaVuSans-3" transform="translate(1235.859375 0)"/>
     <use xlink:href="#DejaVuSans-2f" transform="translate(1267.640625 0)"/>
     <use xlink:href="#DejaVuSans-44" transform="translate(1323.359375 0)"/>
     <use xlink:href="#DejaVuSans-51" transform="translate(1384.640625 0)"/>
     <use xlink:href="#DejaVuSans-4a" transform="translate(1448.015625 0)"/>
     <use xlink:href="#DejaVuSans-58" transform="translate(1511.5 0)"/>
     <use xlink:href="#DejaVuSans-44" transform="translate(1574.875 0)"/>
     <use xlink:href="#DejaVuSans-4a" transform="translate(1636.15625 0)"/>
     <use xlink:href="#DejaVuSans-48" transform="translate(1699.640625 0)"/>
     <use xlink:href="#DejaVuSans-3" transform="translate(1761.171875 0)"/>
     <use xlink:href="#DejaVuSans-26" transform="translate(1792.953125 0)"/>
     <use xlink:href="#DejaVuSans-52" transform="translate(1862.78125 0)"/>
     <use xlink:href="#DejaVuSans-59" transform="translate(1923.96875 0)"/>
     <use xlink:href="#DejaVuSans-48" transform="translate(1983.15625 0)"/>
     <use xlink:href="#DejaVuSans-55" transform="translate(2044.6875 0)"/>
     <use xlink:href="#DejaVuSans-44" transform="translate(2085.796875 0)"/>
     <use xlink:href="#DejaVuSans-4a" transform="translate(2147.078125 0)"/>
     <use xlink:href="#DejaVuSans-48" transform="translate(2210.5625 0)"/>
    </g>
    <!-- Denominator: 12 jurisdiction/language rows from reviewed-core corpus -->
    <g transform="translate(161.343984 29.862363) scale(0.11 -0.11)">
     <defs>
      <path id="DejaVuSans-1d" d="M 750 794 
L 1409 794 
L 1409 0 
L 750 0 
L 750 794 
z
M 750 3309 
L 1409 3309 
L 1409 2516 
L 750 2516 
L 750 3309 
z
" transform="scale(0.015625)"/>
      <path id="DejaVuSans-4d" d="M 603 3500 
L 1178 3500 
L 1178 -63 
Q 1178 -731 923 -1031 
Q 669 -1331 103 -1331 
L -116 -1331 
L -116 -844 
L 38 -844 
Q 366 -844 484 -692 
Q 603 -541 603 -63 
L 603 3500 
z
M 603 4863 
L 1178 4863 
L 1178 4134 
L 603 4134 
L 603 4863 
z
" transform="scale(0.015625)"/>
      <path id="DejaVuSans-12" d="M 1625 4666 
L 2156 4666 
L 531 -594 
L 0 -594 
L 1625 4666 
z
" transform="scale(0.015625)"/>
      <path id="DejaVuSans-5a" d="M 269 3500 
L 844 3500 
L 1563 769 
L 2278 3500 
L 2956 3500 
L 3675 769 
L 4391 3500 
L 4966 3500 
L 4050 0 
L 3372 0 
L 2619 2869 
L 1863 0 
L 1184 0 
L 269 3500 
z
" transform="scale(0.015625)"/>
      <path id="DejaVuSans-49" d="M 2375 4863 
L 2375 4384 
L 1825 4384 
Q 1516 4384 1395 4259 
Q 1275 4134 1275 3809 
L 1275 3500 
L 2222 3500 
L 2222 3053 
L 1275 3053 
L 1275 0 
L 697 0 
L 697 3053 
L 147 3053 
L 147 3500 
L 697 3500 
L 697 3744 
Q 697 4328 969 4595 
Q 1241 4863 1831 4863 
L 2375 4863 
z
" transform="scale(0.015625)"/>
      <path id="DejaVuSans-10" d="M 313 2009 
L 1997 2009 
L 1997 1497 
L 313 1497 
L 313 2009 
z
" transform="scale(0.015625)"/>
      <path id="DejaVuSans-53" d="M 1159 525 
L 1159 -1331 
L 581 -1331 
L 581 3500 
L 1159 3500 
L 1159 2969 
Q 1341 3281 1617 3432 
Q 1894 3584 2278 3584 
Q 2916 3584 3314 3078 
Q 3713 2572 3713 1747 
Q 3713 922 3314 415 
Q 2916 -91 2278 -91 
Q 1894 -91 1617 61 
Q 1341 213 1159 525 
z
M 3116 1747 
Q 3116 2381 2855 2742 
Q 2594 3103 2138 3103 
Q 1681 3103 1420 2742 
Q 1159 2381 1159 1747 
Q 1159 1113 1420 752 
Q 1681 391 2138 391 
Q 2594 391 2855 752 
Q 3116 1113 3116 1747 
z
" transform="scale(0.015625)"/>
     </defs>
     <use xlink:href="#DejaVuSans-27"/>
     <use xlink:href="#DejaVuSans-48" transform="translate(77 0)"/>
     <use xlink:href="#DejaVuSans-51" transform="translate(138.53125 0)"/>
     <use xlink:href="#DejaVuSans-52" transform="translate(201.90625 0)"/>
     <use xlink:href="#DejaVuSans-50" transform="translate(263.09375 0)"/>
     <use xlink:href="#DejaVuSans-4c" transform="translate(360.5 0)"/>
     <use xlink:href="#DejaVuSans-51" transform="translate(388.28125 0)"/>
     <use xlink:href="#DejaVuSans-44" transform="translate(451.65625 0)"/>
     <use xlink:href="#DejaVuSans-57" transform="translate(512.9375 0)"/>
     <use xlink:href="#DejaVuSans-52" transform="translate(552.140625 0)"/>
     <use xlink:href="#DejaVuSans-55" transform="translate(613.328125 0)"/>
     <use xlink:href="#DejaVuSans-1d" transform="translate(652.6875 0)"/>
     <use xlink:href="#DejaVuSans-3" transform="translate(686.375 0)"/>
     <use xlink:href="#DejaVuSans-14" transform="translate(718.15625 0)"/>
     <use xlink:href="#DejaVuSans-15" transform="translate(781.78125 0)"/>
     <use xlink:href="#DejaVuSans-3" transform="translate(845.40625 0)"/>
     <use xlink:href="#DejaVuSans-4d" transform="translate(877.1875 0)"/>
     <use xlink:href="#DejaVuSans-58" transform="translate(904.96875 0)"/>
     <use xlink:href="#DejaVuSans-55" transform="translate(968.34375 0)"/>
     <use xlink:href="#DejaVuSans-4c" transform="translate(1009.453125 0)"/>
     <use xlink:href="#DejaVuSans-56" transform="translate(1037.234375 0)"/>
     <use xlink:href="#DejaVuSans-47" transform="translate(1089.328125 0)"/>
     <use xlink:href="#DejaVuSans-4c" transform="translate(1152.8125 0)"/>
     <use xlink:href="#DejaVuSans-46" transform="translate(1180.59375 0)"/>
     <use xlink:href="#DejaVuSans-57" transform="translate(1235.578125 0)"/>
     <use xlink:href="#DejaVuSans-4c" transform="translate(1274.78125 0)"/>
     <use xlink:href="#DejaVuSans-52" transform="translate(1302.5625 0)"/>
     <use xlink:href="#DejaVuSans-51" transform="translate(1363.75 0)"/>
     <use xlink:href="#DejaVuSans-12" transform="translate(1427.125 0)"/>
     <use xlink:href="#DejaVuSans-4f" transform="translate(1460.8125 0)"/>
     <use xlink:href="#DejaVuSans-44" transform="translate(1488.59375 0)"/>
     <use xlink:href="#DejaVuSans-51" transform="translate(1549.875 0)"/>
     <use xlink:href="#DejaVuSans-4a" transform="translate(1613.25 0)"/>
     <use xlink:href="#DejaVuSans-58" transform="translate(1676.734375 0)"/>
     <use xlink:href="#DejaVuSans-44" transform="translate(1740.109375 0)"/>
     <use xlink:href="#DejaVuSans-4a" transform="translate(1801.390625 0)"/>
     <use xlink:href="#DejaVuSans-48" transform="translate(1864.875 0)"/>
     <use xlink:href="#DejaVuSans-3" transform="translate(1926.40625 0)"/>
     <use xlink:href="#DejaVuSans-55" transform="translate(1958.1875 0)"/>
     <use xlink:href="#DejaVuSans-52" transform="translate(1997.09375 0)"/>
     <use xlink:href="#DejaVuSans-5a" transform="translate(2058.28125 0)"/>
     <use xlink:href="#DejaVuSans-56" transform="translate(2140.0625 0)"/>
     <use xlink:href="#DejaVuSans-3" transform="translate(2192.15625 0)"/>
     <use xlink:href="#DejaVuSans-49" transform="translate(2223.9375 0)"/>
     <use xlink:href="#DejaVuSans-55" transform="translate(2259.140625 0)"/>
     <use xlink:href="#DejaVuSans-52" transform="translate(2298.046875 0)"/>
     <use xlink:href="#DejaVuSans-50" transform="translate(2359.234375 0)"/>
     <use xlink:href="#DejaVuSans-3" transform="translate(2456.640625 0)"/>
     <use xlink:href="#DejaVuSans-55" transform="translate(2488.421875 0)"/>
     <use xlink:href="#DejaVuSans-48" transform="translate(2527.328125 0)"/>
     <use xlink:href="#DejaVuSans-59" transform="translate(2588.859375 0)"/>
     <use xlink:href="#DejaVuSans-4c" transform="translate(2648.046875 0)"/>
     <use xlink:href="#DejaVuSans-48" transform="translate(2675.828125 0)"/>
     <use xlink:href="#DejaVuSans-5a" transform="translate(2737.359375 0)"/>
     <use xlink:href="#DejaVuSans-48" transform="translate(2819.140625 0)"/>
     <use xlink:href="#DejaVuSans-47" transform="translate(2880.671875 0)"/>
     <use xlink:href="#DejaVuSans-10" transform="translate(2944.15625 0)"/>
     <use xlink:href="#DejaVuSans-46" transform="translate(2980.234375 0)"/>
     <use xlink:href="#DejaVuSans-52" transform="translate(3035.21875 0)"/>
     <use xlink:href="#DejaVuSans-55" transform="translate(3096.40625 0)"/>
     <use xlink:href="#DejaVuSans-48" transform="translate(3135.3125 0)"/>
     <use xlink:href="#DejaVuSans-3" transform="translate(3196.84375 0)"/>
     <use xlink:href="#DejaVuSans-46" transform="translate(3228.625 0)"/>
     <use xlink:href="#DejaVuSans-52" transform="translate(3283.609375 0)"/>
     <use xlink:href="#DejaVuSans-55" transform="translate(3344.796875 0)"/>
     <use xlink:href="#DejaVuSans-53" transform="translate(3385.90625 0)"/>
     <use xlink:href="#DejaVuSans-58" transform="translate(3449.390625 0)"/>
     <use xlink:href="#DejaVuSans-56" transform="translate(3512.765625 0)"/>
    </g>
   </g>
   <g id="legend_1">
    <g id="patch_17">
     <path d="M 527.502187 365.002363 
L 631.51125 365.002363 
Q 632.91125 365.002363 632.91125 363.602363 
L 632.91125 343.30127 
Q 632.91125 341.90127 631.51125 341.90127 
L 527.502187 341.90127 
Q 526.102188 341.90127 526.102188 343.30127 
L 526.102188 363.602363 
Q 526.102188 365.002363 527.502187 365.002363 
z
" style="fill: #ffffff; opacity: 0.8; stroke: #cccccc; stroke-linejoin: miter"/>
    </g>
    <g id="patch_18">
     <path d="M 528.902187 350.020176 
L 542.902187 350.020176 
L 542.902187 345.120176 
L 528.902187 345.120176 
z
" style="fill: #2ca25f; stroke: #333333; stroke-linejoin: miter"/>
    </g>
    <g id="text_35">
     <!-- T3 authoritative source -->
     <g transform="translate(548.502187 350.020176) scale(0.07 -0.07)">
      <use xlink:href="#DejaVuSans-37"/>
      <use xlink:href="#DejaVuSans-16" transform="translate(61.078125 0)"/>
      <use xlink:href="#DejaVuSans-3" transform="translate(124.703125 0)"/>
      <use xlink:href="#DejaVuSans-44" transform="translate(156.484375 0)"/>
      <use xlink:href="#DejaVuSans-58" transform="translate(217.765625 0)"/>
      <use xlink:href="#DejaVuSans-57" transform="translate(281.140625 0)"/>
      <use xlink:href="#DejaVuSans-4b" transform="translate(320.34375 0)"/>
      <use xlink:href="#DejaVuSans-52" transform="translate(383.71875 0)"/>
      <use xlink:href="#DejaVuSans-55" transform="translate(444.90625 0)"/>
      <use xlink:href="#DejaVuSans-4c" transform="translate(486.015625 0)"/>
      <use xlink:href="#DejaVuSans-57" transform="translate(513.796875 0)"/>
      <use xlink:href="#DejaVuSans-44" transform="translate(553 0)"/>
      <use xlink:href="#DejaVuSans-57" transform="translate(614.28125 0)"/>
      <use xlink:href="#DejaVuSans-4c" transform="translate(653.484375 0)"/>
      <use xlink:href="#DejaVuSans-59" transform="translate(681.265625 0)"/>
      <use xlink:href="#DejaVuSans-48" transform="translate(740.453125 0)"/>
      <use xlink:href="#DejaVuSans-3" transform="translate(801.984375 0)"/>
      <use xlink:href="#DejaVuSans-56" transform="translate(833.765625 0)"/>
      <use xlink:href="#DejaVuSans-52" transform="translate(885.859375 0)"/>
      <use xlink:href="#DejaVuSans-58" transform="translate(947.046875 0)"/>
      <use xlink:href="#DejaVuSans-55" transform="translate(1010.421875 0)"/>
      <use xlink:href="#DejaVuSans-46" transform="translate(1049.328125 0)"/>
      <use xlink:href="#DejaVuSans-48" transform="translate(1104.3125 0)"/>
     </g>
    </g>
    <g id="patch_19">
     <path d="M 528.902187 360.520723 
L 542.902187 360.520723 
L 542.902187 355.620723 
L 528.902187 355.620723 
z
" style="fill: #fd8d3c; stroke: #333333; stroke-linejoin: miter"/>
    </g>
    <g id="text_36">
     <!-- T1 single public source -->
     <g transform="translate(548.502187 360.520723) scale(0.07 -0.07)">
      <use xlink:href="#DejaVuSans-37"/>
      <use xlink:href="#DejaVuSans-14" transform="translate(61.078125 0)"/>
      <use xlink:href="#DejaVuSans-3" transform="translate(124.703125 0)"/>
      <use xlink:href="#DejaVuSans-56" transform="translate(156.484375 0)"/>
      <use xlink:href="#DejaVuSans-4c" transform="translate(208.578125 0)"/>
      <use xlink:href="#DejaVuSans-51" transform="translate(236.359375 0)"/>
      <use xlink:href="#DejaVuSans-4a" transform="translate(299.734375 0)"/>
      <use xlink:href="#DejaVuSans-4f" transform="translate(363.21875 0)"/>
      <use xlink:href="#DejaVuSans-48" transform="translate(391 0)"/>
      <use xlink:href="#DejaVuSans-3" transform="translate(452.53125 0)"/>
      <use xlink:href="#DejaVuSans-53" transform="translate(484.3125 0)"/>
      <use xlink:href="#DejaVuSans-58" transform="translate(547.796875 0)"/>
      <use xlink:href="#DejaVuSans-45" transform="translate(611.171875 0)"/>
      <use xlink:href="#DejaVuSans-4f" transform="translate(674.65625 0)"/>
      <use xlink:href="#DejaVuSans-4c" transform="translate(702.4375 0)"/>
      <use xlink:href="#DejaVuSans-46" transform="translate(730.21875 0)"/>
      <use xlink:href="#DejaVuSans-3" transform="translate(785.203125 0)"/>
      <use xlink:href="#DejaVuSans-56" transform="translate(816.984375 0)"/>
      <use xlink:href="#DejaVuSans-52" transform="translate(869.078125 0)"/>
      <use xlink:href="#DejaVuSans-58" transform="translate(930.265625 0)"/>
      <use xlink:href="#DejaVuSans-55" transform="translate(993.640625 0)"/>
      <use xlink:href="#DejaVuSans-46" transform="translate(1032.546875 0)"/>
      <use xlink:href="#DejaVuSans-48" transform="translate(1087.53125 0)"/>
     </g>
    </g>
   </g>
  </g>
 </g>
 <defs>
  <clipPath id="pda7509221c">
   <rect x="78.41125" y="35.862363" width="558" height="332.64"/>
  </clipPath>
 </defs>
</svg>
