<svg xmlns="http://www.w3.org/2000/svg" width="1040" height="710" viewBox="0 0 1040 710" font-family="DejaVu Sans, sans-serif">
<rect width="1040" height="710" fill="#ffffff"/>
<text x="40" y="50" font-size="26" font-weight="bold" fill="#0a0c11">LIMEN reviewed-core: AI edge cases by theme and evidence tier</text>
<text x="40" y="80" font-size="15" fill="#5b6675">248 evidence-grade cases kept as separate denominator classes; media layer (46) excluded from the denominator.</text>
<rect x="40" y="100" width="14" height="14" fill="#34d399" rx="3"/>
<text x="60" y="112" font-size="14" fill="#0a0c11">Regulator/court (T3)</text>
<rect x="260" y="100" width="14" height="14" fill="#fbbf24" rx="3"/>
<text x="280" y="112" font-size="14" fill="#0a0c11">Contested (T2)</text>
<rect x="480" y="100" width="14" height="14" fill="#f87171" rx="3"/>
<text x="500" y="112" font-size="14" fill="#0a0c11">CVE</text>
<rect x="700" y="100" width="14" height="14" fill="#c084fc" rx="3"/>
<text x="720" y="112" font-size="14" fill="#0a0c11">Media (excluded)</text>
<text x="288" y="170" font-size="15" fill="#0a0c11" text-anchor="end">Legal &amp; procedural</text>
<rect x="300.0" y="154" width="639.1" height="24" fill="#34d399"/>
<text x="619.6" y="171" font-size="12" fill="#0a0c11" text-anchor="middle">42</text>
<rect x="939.1" y="154" width="60.9" height="24" fill="#fbbf24"/>
<text x="969.6" y="171" font-size="12" fill="#0a0c11" text-anchor="middle">4</text>
<text x="1006.0" y="171" font-size="13" fill="#5b6675">46</text>
<text x="288" y="210" font-size="15" fill="#0a0c11" text-anchor="end">Surveillance &amp; biometrics</text>
<rect x="300.0" y="194" width="350.0" height="24" fill="#34d399"/>
<text x="475.0" y="211" font-size="12" fill="#0a0c11" text-anchor="middle">23</text>
<rect x="650.0" y="194" width="197.8" height="24" fill="#fbbf24"/>
<text x="748.9" y="211" font-size="12" fill="#0a0c11" text-anchor="middle">13</text>
<rect x="847.8" y="194" width="137.0" height="24" fill="#c084fc"/>
<text x="916.3" y="211" font-size="12" fill="#0a0c11" text-anchor="middle">9</text>
<text x="990.8" y="211" font-size="13" fill="#5b6675">45</text>
<text x="288" y="250" font-size="15" fill="#0a0c11" text-anchor="end">Deepfakes &amp; synthetic media</text>
<rect x="300.0" y="234" width="289.1" height="24" fill="#34d399"/>
<text x="444.6" y="251" font-size="12" fill="#0a0c11" text-anchor="middle">19</text>
<rect x="589.1" y="234" width="319.6" height="24" fill="#fbbf24"/>
<text x="748.9" y="251" font-size="12" fill="#0a0c11" text-anchor="middle">21</text>
<rect x="908.7" y="234" width="30.4" height="24" fill="#c084fc"/>
<text x="923.9" y="251" font-size="12" fill="#0a0c11" text-anchor="middle">2</text>
<text x="945.1" y="251" font-size="13" fill="#5b6675">42</text>
<text x="288" y="290" font-size="15" fill="#0a0c11" text-anchor="end">AI-washing &amp; false claims</text>
<rect x="300.0" y="274" width="243.5" height="24" fill="#34d399"/>
<text x="421.7" y="291" font-size="12" fill="#0a0c11" text-anchor="middle">16</text>
<rect x="543.5" y="274" width="137.0" height="24" fill="#fbbf24"/>
<text x="612.0" y="291" font-size="12" fill="#0a0c11" text-anchor="middle">9</text>
<rect x="680.4" y="274" width="91.3" height="24" fill="#c084fc"/>
<text x="726.1" y="291" font-size="12" fill="#0a0c11" text-anchor="middle">6</text>
<text x="777.7" y="291" font-size="13" fill="#5b6675">31</text>
<text x="288" y="330" font-size="15" fill="#0a0c11" text-anchor="end">Agentic / control failure</text>
<rect x="300.0" y="314" width="152.2" height="24" fill="#34d399"/>
<text x="376.1" y="331" font-size="12" fill="#0a0c11" text-anchor="middle">10</text>
<rect x="452.2" y="314" width="91.3" height="24" fill="#fbbf24"/>
<text x="497.8" y="331" font-size="12" fill="#0a0c11" text-anchor="middle">6</text>
<rect x="543.5" y="314" width="106.5" height="24" fill="#c084fc"/>
<text x="596.7" y="331" font-size="12" fill="#0a0c11" text-anchor="middle">7</text>
<text x="656.0" y="331" font-size="13" fill="#5b6675">23</text>
<text x="288" y="370" font-size="15" fill="#0a0c11" text-anchor="end">Public sector</text>
<rect x="300.0" y="354" width="197.8" height="24" fill="#34d399"/>
<text x="398.9" y="371" font-size="12" fill="#0a0c11" text-anchor="middle">13</text>
<rect x="497.8" y="354" width="60.9" height="24" fill="#fbbf24"/>
<text x="528.3" y="371" font-size="12" fill="#0a0c11" text-anchor="middle">4</text>
<rect x="558.7" y="354" width="76.1" height="24" fill="#c084fc"/>
<text x="596.7" y="371" font-size="12" fill="#0a0c11" text-anchor="middle">5</text>
<text x="640.8" y="371" font-size="13" fill="#5b6675">22</text>
<text x="288" y="410" font-size="15" fill="#0a0c11" text-anchor="end">Hiring &amp; education</text>
<rect x="300.0" y="394" width="152.2" height="24" fill="#34d399"/>
<text x="376.1" y="411" font-size="12" fill="#0a0c11" text-anchor="middle">10</text>
<rect x="452.2" y="394" width="106.5" height="24" fill="#fbbf24"/>
<text x="505.4" y="411" font-size="12" fill="#0a0c11" text-anchor="middle">7</text>
<rect x="558.7" y="394" width="60.9" height="24" fill="#c084fc"/>
<text x="589.1" y="411" font-size="12" fill="#0a0c11" text-anchor="middle">4</text>
<text x="625.6" y="411" font-size="13" fill="#5b6675">21</text>
<text x="288" y="450" font-size="15" fill="#0a0c11" text-anchor="end">Data protection</text>
<rect x="300.0" y="434" width="167.4" height="24" fill="#34d399"/>
<text x="383.7" y="451" font-size="12" fill="#0a0c11" text-anchor="middle">11</text>
<rect x="467.4" y="434" width="76.1" height="24" fill="#fbbf24"/>
<text x="505.4" y="451" font-size="12" fill="#0a0c11" text-anchor="middle">5</text>
<text x="549.5" y="451" font-size="13" fill="#5b6675">16</text>
<text x="288" y="490" font-size="15" fill="#0a0c11" text-anchor="end">Rights &amp; ethics</text>
<rect x="300.0" y="474" width="60.9" height="24" fill="#34d399"/>
<text x="330.4" y="491" font-size="12" fill="#0a0c11" text-anchor="middle">4</text>
<rect x="360.9" y="474" width="60.9" height="24" fill="#fbbf24"/>
<text x="391.3" y="491" font-size="12" fill="#0a0c11" text-anchor="middle">4</text>
<rect x="421.7" y="474" width="106.5" height="24" fill="#c084fc"/>
<text x="475.0" y="491" font-size="12" fill="#0a0c11" text-anchor="middle">7</text>
<text x="534.3" y="491" font-size="13" fill="#5b6675">15</text>
<text x="288" y="530" font-size="15" fill="#0a0c11" text-anchor="end">Finance &amp; insurance</text>
<rect x="300.0" y="514" width="91.3" height="24" fill="#34d399"/>
<text x="345.7" y="531" font-size="12" fill="#0a0c11" text-anchor="middle">6</text>
<rect x="391.3" y="514" width="60.9" height="24" fill="#fbbf24"/>
<text x="421.7" y="531" font-size="12" fill="#0a0c11" text-anchor="middle">4</text>
<rect x="452.2" y="514" width="45.7" height="24" fill="#c084fc"/>
<text x="475.0" y="531" font-size="12" fill="#0a0c11" text-anchor="middle">3</text>
<text x="503.8" y="531" font-size="13" fill="#5b6675">13</text>
<text x="288" y="570" font-size="15" fill="#0a0c11" text-anchor="end">Security &amp; agentic</text>
<rect x="300.0" y="554" width="167.4" height="24" fill="#f87171"/>
<text x="383.7" y="571" font-size="12" fill="#0a0c11" text-anchor="middle">11</text>
<text x="473.4" y="571" font-size="13" fill="#5b6675">11</text>
<text x="288" y="610" font-size="15" fill="#0a0c11" text-anchor="end">Chatbot safety &amp; harm</text>
<rect x="300.0" y="594" width="45.7" height="24" fill="#34d399"/>
<text x="322.8" y="611" font-size="12" fill="#0a0c11" text-anchor="middle">3</text>
<rect x="345.7" y="594" width="45.7" height="24" fill="#fbbf24"/>
<text x="368.5" y="611" font-size="12" fill="#0a0c11" text-anchor="middle">3</text>
<rect x="391.3" y="594" width="30.4" height="24" fill="#c084fc"/>
<text x="406.5" y="611" font-size="12" fill="#0a0c11" text-anchor="middle">2</text>
<text x="427.7" y="611" font-size="13" fill="#5b6675">8</text>
<text x="288" y="650" font-size="15" fill="#0a0c11" text-anchor="end">Institutional absurdity</text>
<rect x="300.0" y="634" width="15.2" height="24" fill="#c084fc"/>
<text x="321.2" y="651" font-size="13" fill="#5b6675">1</text>
</svg>