<?xml version="1.0" encoding="utf-8" standalone="no"?>
<!DOCTYPE svg PUBLIC "-//W3C//DTD SVG 1.1//EN"
  "http://www.w3.org/Graphics/SVG/1.1/DTD/svg11.dtd">
<svg xmlns:xlink="http://www.w3.org/1999/xlink" width="680.0275pt" height="350.364688pt" viewBox="0 0 680.0275 350.364688" xmlns="http://www.w3.org/2000/svg" version="1.1">
 <metadata>
  <rdf:RDF xmlns:dc="http://purl.org/dc/elements/1.1/" xmlns:cc="http://creativecommons.org/ns#" xmlns:rdf="http://www.w3.org/1999/02/22-rdf-syntax-ns#">
   <cc:Work>
    <dc:type rdf:resource="http://purl.org/dc/dcmitype/StillImage"/>
    <dc:date>2026-06-18T00:03:29.690955</dc:date>
    <dc:format>image/svg+xml</dc:format>
    <dc:creator>
     <cc:Agent>
      <dc:title>Matplotlib v3.11.0, https://matplotlib.org/</dc:title>
     </cc:Agent>
    </dc:creator>
   </cc:Work>
  </rdf:RDF>
 </metadata>
 <defs>
  <style type="text/css">*{stroke-linejoin: round; stroke-linecap: butt}</style>
 </defs>
 <g id="figure_1">
  <g id="patch_1">
   <path d="M 0 350.364688 
L 680.0275 350.364688 
L 680.0275 0 
L 0 0 
z
" style="fill: #ffffff"/>
  </g>
  <g id="axes_1">
   <g id="patch_2">
    <path d="M 223.8825 313.062363 
L 670.2825 313.062363 
L 670.2825 35.862363 
L 223.8825 35.862363 
z
" style="fill: #ffffff"/>
   </g>
   <g id="patch_3">
    <path d="M 223.8825 300.462363 
L 372.6825 300.462363 
L 372.6825 258.462363 
L 223.8825 258.462363 
z
" clip-path="url(#pa289a1e4c1)" style="fill: #fee08b; stroke: #333333; stroke-width: 0.5; stroke-linejoin: miter"/>
   </g>
   <g id="patch_4">
    <path d="M 223.8825 230.462363 
L 521.4825 230.462363 
L 521.4825 188.462363 
L 223.8825 188.462363 
z
" clip-path="url(#pa289a1e4c1)" style="fill: #a6d96a; stroke: #333333; stroke-width: 0.5; stroke-linejoin: miter"/>
   </g>
   <g id="patch_5">
    <path d="M 223.8825 160.462363 
L 273.4825 160.462363 
L 273.4825 118.462363 
L 223.8825 118.462363 
z
" clip-path="url(#pa289a1e4c1)" style="fill: #66bd63; stroke: #333333; stroke-width: 0.5; stroke-linejoin: miter"/>
   </g>
   <g id="patch_6">
    <path d="M 223.8825 90.462363 
L 273.4825 90.462363 
L 273.4825 48.462363 
L 223.8825 48.462363 
z
" clip-path="url(#pa289a1e4c1)" style="fill: #1a9850; stroke: #333333; stroke-width: 0.5; stroke-linejoin: miter"/>
   </g>
   <g id="matplotlib.axis_1">
    <g id="xtick_1">
     <g id="line2d_1">
      <defs>
       <path id="m4c5d0e341e" d="M 0 0 
L 0 3.5 
" style="stroke: #000000; stroke-width: 0.8"/>
      </defs>
      <g>
       <use xlink:href="#m4c5d0e341e" x="223.8825" y="313.062363" style="stroke: #000000; stroke-width: 0.8"/>
      </g>
     </g>
     <g id="text_1">
      <!-- 0 -->
      <g transform="translate(221.3375 326.140488) scale(0.08 -0.08)">
       <defs>
        <path id="DejaVuSans-13" d="M 2034 4250 
Q 1547 4250 1301 3770 
Q 1056 3291 1056 2328 
Q 1056 1369 1301 889 
Q 1547 409 2034 409 
Q 2525 409 2770 889 
Q 3016 1369 3016 2328 
Q 3016 3291 2770 3770 
Q 2525 4250 2034 4250 
z
M 2034 4750 
Q 2819 4750 3233 4129 
Q 3647 3509 3647 2328 
Q 3647 1150 3233 529 
Q 2819 -91 2034 -91 
Q 1250 -91 836 529 
Q 422 1150 422 2328 
Q 422 3509 836 4129 
Q 1250 4750 2034 4750 
z
" transform="scale(0.015625)"/>
       </defs>
       <use xlink:href="#DejaVuSans-13"/>
      </g>
     </g>
    </g>
    <g id="xtick_2">
     <g id="line2d_2">
      <g>
       <use xlink:href="#m4c5d0e341e" x="273.4825" y="313.062363" style="stroke: #000000; stroke-width: 0.8"/>
      </g>
     </g>
     <g id="text_2">
      <!-- 1 -->
      <g transform="translate(270.9375 326.140488) scale(0.08 -0.08)">
       <defs>
        <path id="DejaVuSans-14" d="M 794 531 
L 1825 531 
L 1825 4091 
L 703 3866 
L 703 4441 
L 1819 4666 
L 2450 4666 
L 2450 531 
L 3481 531 
L 3481 0 
L 794 0 
L 794 531 
z
" transform="scale(0.015625)"/>
       </defs>
       <use xlink:href="#DejaVuSans-14"/>
      </g>
     </g>
    </g>
    <g id="xtick_3">
     <g id="line2d_3">
      <g>
       <use xlink:href="#m4c5d0e341e" x="323.0825" y="313.062363" style="stroke: #000000; stroke-width: 0.8"/>
      </g>
     </g>
     <g id="text_3">
      <!-- 2 -->
      <g transform="translate(320.5375 326.140488) scale(0.08 -0.08)">
       <defs>
        <path id="DejaVuSans-15" d="M 1228 531 
L 3431 531 
L 3431 0 
L 469 0 
L 469 531 
Q 828 903 1448 1529 
Q 2069 2156 2228 2338 
Q 2531 2678 2651 2914 
Q 2772 3150 2772 3378 
Q 2772 3750 2511 3984 
Q 2250 4219 1831 4219 
Q 1534 4219 1204 4116 
Q 875 4013 500 3803 
L 500 4441 
Q 881 4594 1212 4672 
Q 1544 4750 1819 4750 
Q 2544 4750 2975 4387 
Q 3406 4025 3406 3419 
Q 3406 3131 3298 2873 
Q 3191 2616 2906 2266 
Q 2828 2175 2409 1742 
Q 1991 1309 1228 531 
z
" transform="scale(0.015625)"/>
       </defs>
       <use xlink:href="#DejaVuSans-15"/>
      </g>
     </g>
    </g>
    <g id="xtick_4">
     <g id="line2d_4">
      <g>
       <use xlink:href="#m4c5d0e341e" x="372.6825" y="313.062363" style="stroke: #000000; stroke-width: 0.8"/>
      </g>
     </g>
     <g id="text_4">
      <!-- 3 -->
      <g transform="translate(370.1375 326.140488) scale(0.08 -0.08)">
       <defs>
        <path id="DejaVuSans-16" d="M 2597 2516 
Q 3050 2419 3304 2112 
Q 3559 1806 3559 1356 
Q 3559 666 3084 287 
Q 2609 -91 1734 -91 
Q 1441 -91 1130 -33 
Q 819 25 488 141 
L 488 750 
Q 750 597 1062 519 
Q 1375 441 1716 441 
Q 2309 441 2620 675 
Q 2931 909 2931 1356 
Q 2931 1769 2642 2001 
Q 2353 2234 1838 2234 
L 1294 2234 
L 1294 2753 
L 1863 2753 
Q 2328 2753 2575 2939 
Q 2822 3125 2822 3475 
Q 2822 3834 2567 4026 
Q 2313 4219 1838 4219 
Q 1578 4219 1281 4162 
Q 984 4106 628 3988 
L 628 4550 
Q 988 4650 1302 4700 
Q 1616 4750 1894 4750 
Q 2613 4750 3031 4423 
Q 3450 4097 3450 3541 
Q 3450 3153 3228 2886 
Q 3006 2619 2597 2516 
z
" transform="scale(0.015625)"/>
       </defs>
       <use xlink:href="#DejaVuSans-16"/>
      </g>
     </g>
    </g>
    <g id="xtick_5">
     <g id="line2d_5">
      <g>
       <use xlink:href="#m4c5d0e341e" x="422.2825" y="313.062363" style="stroke: #000000; stroke-width: 0.8"/>
      </g>
     </g>
     <g id="text_5">
      <!-- 4 -->
      <g transform="translate(419.7375 326.140488) scale(0.08 -0.08)">
       <defs>
        <path id="DejaVuSans-17" d="M 2419 4116 
L 825 1625 
L 2419 1625 
L 2419 4116 
z
M 2253 4666 
L 3047 4666 
L 3047 1625 
L 3713 1625 
L 3713 1100 
L 3047 1100 
L 3047 0 
L 2419 0 
L 2419 1100 
L 313 1100 
L 313 1709 
L 2253 4666 
z
" transform="scale(0.015625)"/>
       </defs>
       <use xlink:href="#DejaVuSans-17"/>
      </g>
     </g>
    </g>
    <g id="xtick_6">
     <g id="line2d_6">
      <g>
       <use xlink:href="#m4c5d0e341e" x="471.8825" y="313.062363" style="stroke: #000000; stroke-width: 0.8"/>
      </g>
     </g>
     <g id="text_6">
      <!-- 5 -->
      <g transform="translate(469.3375 326.140488) scale(0.08 -0.08)">
       <defs>
        <path id="DejaVuSans-18" d="M 691 4666 
L 3169 4666 
L 3169 4134 
L 1269 4134 
L 1269 2991 
Q 1406 3038 1543 3061 
Q 1681 3084 1819 3084 
Q 2600 3084 3056 2656 
Q 3513 2228 3513 1497 
Q 3513 744 3044 326 
Q 2575 -91 1722 -91 
Q 1428 -91 1123 -41 
Q 819 9 494 109 
L 494 744 
Q 775 591 1075 516 
Q 1375 441 1709 441 
Q 2250 441 2565 725 
Q 2881 1009 2881 1497 
Q 2881 1984 2565 2268 
Q 2250 2553 1709 2553 
Q 1456 2553 1204 2497 
Q 953 2441 691 2322 
L 691 4666 
z
" transform="scale(0.015625)"/>
       </defs>
       <use xlink:href="#DejaVuSans-18"/>
      </g>
     </g>
    </g>
    <g id="xtick_7">
     <g id="line2d_7">
      <g>
       <use xlink:href="#m4c5d0e341e" x="521.4825" y="313.062363" style="stroke: #000000; stroke-width: 0.8"/>
      </g>
     </g>
     <g id="text_7">
      <!-- 6 -->
      <g transform="translate(518.9375 326.140488) scale(0.08 -0.08)">
       <defs>
        <path id="DejaVuSans-19" d="M 2113 2584 
Q 1688 2584 1439 2293 
Q 1191 2003 1191 1497 
Q 1191 994 1439 701 
Q 1688 409 2113 409 
Q 2538 409 2786 701 
Q 3034 994 3034 1497 
Q 3034 2003 2786 2293 
Q 2538 2584 2113 2584 
z
M 3366 4563 
L 3366 3988 
Q 3128 4100 2886 4159 
Q 2644 4219 2406 4219 
Q 1781 4219 1451 3797 
Q 1122 3375 1075 2522 
Q 1259 2794 1537 2939 
Q 1816 3084 2150 3084 
Q 2853 3084 3261 2657 
Q 3669 2231 3669 1497 
Q 3669 778 3244 343 
Q 2819 -91 2113 -91 
Q 1303 -91 875 529 
Q 447 1150 447 2328 
Q 447 3434 972 4092 
Q 1497 4750 2381 4750 
Q 2619 4750 2861 4703 
Q 3103 4656 3366 4563 
z
" transform="scale(0.015625)"/>
       </defs>
       <use xlink:href="#DejaVuSans-19"/>
      </g>
     </g>
    </g>
    <g id="xtick_8">
     <g id="line2d_8">
      <g>
       <use xlink:href="#m4c5d0e341e" x="571.0825" y="313.062363" style="stroke: #000000; stroke-width: 0.8"/>
      </g>
     </g>
     <g id="text_8">
      <!-- 7 -->
      <g transform="translate(568.5375 326.140488) scale(0.08 -0.08)">
       <defs>
        <path id="DejaVuSans-1a" d="M 525 4666 
L 3525 4666 
L 3525 4397 
L 1831 0 
L 1172 0 
L 2766 4134 
L 525 4134 
L 525 4666 
z
" transform="scale(0.015625)"/>
       </defs>
       <use xlink:href="#DejaVuSans-1a"/>
      </g>
     </g>
    </g>
    <g id="xtick_9">
     <g id="line2d_9">
      <g>
       <use xlink:href="#m4c5d0e341e" x="620.6825" y="313.062363" style="stroke: #000000; stroke-width: 0.8"/>
      </g>
     </g>
     <g id="text_9">
      <!-- 8 -->
      <g transform="translate(618.1375 326.140488) scale(0.08 -0.08)">
       <defs>
        <path id="DejaVuSans-1b" d="M 2034 2216 
Q 1584 2216 1326 1975 
Q 1069 1734 1069 1313 
Q 1069 891 1326 650 
Q 1584 409 2034 409 
Q 2484 409 2743 651 
Q 3003 894 3003 1313 
Q 3003 1734 2745 1975 
Q 2488 2216 2034 2216 
z
M 1403 2484 
Q 997 2584 770 2862 
Q 544 3141 544 3541 
Q 544 4100 942 4425 
Q 1341 4750 2034 4750 
Q 2731 4750 3128 4425 
Q 3525 4100 3525 3541 
Q 3525 3141 3298 2862 
Q 3072 2584 2669 2484 
Q 3125 2378 3379 2068 
Q 3634 1759 3634 1313 
Q 3634 634 3220 271 
Q 2806 -91 2034 -91 
Q 1263 -91 848 271 
Q 434 634 434 1313 
Q 434 1759 690 2068 
Q 947 2378 1403 2484 
z
M 1172 3481 
Q 1172 3119 1398 2916 
Q 1625 2713 2034 2713 
Q 2441 2713 2670 2916 
Q 2900 3119 2900 3481 
Q 2900 3844 2670 4047 
Q 2441 4250 2034 4250 
Q 1625 4250 1398 4047 
Q 1172 3844 1172 3481 
z
" transform="scale(0.015625)"/>
       </defs>
       <use xlink:href="#DejaVuSans-1b"/>
      </g>
     </g>
    </g>
    <g id="xtick_10">
     <g id="line2d_10">
      <g>
       <use xlink:href="#m4c5d0e341e" x="670.2825" y="313.062363" style="stroke: #000000; stroke-width: 0.8"/>
      </g>
     </g>
     <g id="text_10">
      <!-- 9 -->
      <g transform="translate(667.7375 326.140488) scale(0.08 -0.08)">
       <defs>
        <path id="DejaVuSans-1c" d="M 703 97 
L 703 672 
Q 941 559 1184 500 
Q 1428 441 1663 441 
Q 2288 441 2617 861 
Q 2947 1281 2994 2138 
Q 2813 1869 2534 1725 
Q 2256 1581 1919 1581 
Q 1219 1581 811 2004 
Q 403 2428 403 3163 
Q 403 3881 828 4315 
Q 1253 4750 1959 4750 
Q 2769 4750 3195 4129 
Q 3622 3509 3622 2328 
Q 3622 1225 3098 567 
Q 2575 -91 1691 -91 
Q 1453 -91 1209 -44 
Q 966 3 703 97 
z
M 1959 2075 
Q 2384 2075 2632 2365 
Q 2881 2656 2881 3163 
Q 2881 3666 2632 3958 
Q 2384 4250 1959 4250 
Q 1534 4250 1286 3958 
Q 1038 3666 1038 3163 
Q 1038 2656 1286 2365 
Q 1534 2075 1959 2075 
z
" transform="scale(0.015625)"/>
       </defs>
       <use xlink:href="#DejaVuSans-1c"/>
      </g>
     </g>
    </g>
    <g id="text_11">
     <!-- Member count -->
     <g transform="translate(410.82 339.660801) scale(0.1 -0.1)">
      <defs>
       <path id="DejaVuSans-30" d="M 628 4666 
L 1569 4666 
L 2759 1491 
L 3956 4666 
L 4897 4666 
L 4897 0 
L 4281 0 
L 4281 4097 
L 3078 897 
L 2444 897 
L 1241 4097 
L 1241 0 
L 628 0 
L 628 4666 
z
" transform="scale(0.015625)"/>
       <path id="DejaVuSans-48" d="M 3597 1894 
L 3597 1613 
L 953 1613 
Q 991 1019 1311 708 
Q 1631 397 2203 397 
Q 2534 397 2845 478 
Q 3156 559 3463 722 
L 3463 178 
Q 3153 47 2828 -22 
Q 2503 -91 2169 -91 
Q 1331 -91 842 396 
Q 353 884 353 1716 
Q 353 2575 817 3079 
Q 1281 3584 2069 3584 
Q 2775 3584 3186 3129 
Q 3597 2675 3597 1894 
z
M 3022 2063 
Q 3016 2534 2758 2815 
Q 2500 3097 2075 3097 
Q 1594 3097 1305 2825 
Q 1016 2553 972 2059 
L 3022 2063 
z
" transform="scale(0.015625)"/>
       <path id="DejaVuSans-50" d="M 3328 2828 
Q 3544 3216 3844 3400 
Q 4144 3584 4550 3584 
Q 5097 3584 5394 3201 
Q 5691 2819 5691 2113 
L 5691 0 
L 5113 0 
L 5113 2094 
Q 5113 2597 4934 2840 
Q 4756 3084 4391 3084 
Q 3944 3084 3684 2787 
Q 3425 2491 3425 1978 
L 3425 0 
L 2847 0 
L 2847 2094 
Q 2847 2600 2669 2842 
Q 2491 3084 2119 3084 
Q 1678 3084 1418 2786 
Q 1159 2488 1159 1978 
L 1159 0 
L 581 0 
L 581 3500 
L 1159 3500 
L 1159 2956 
Q 1356 3278 1631 3431 
Q 1906 3584 2284 3584 
Q 2666 3584 2933 3390 
Q 3200 3197 3328 2828 
z
" transform="scale(0.015625)"/>
       <path id="DejaVuSans-45" d="M 3116 1747 
Q 3116 2381 2855 2742 
Q 2594 3103 2138 3103 
Q 1681 3103 1420 2742 
Q 1159 2381 1159 1747 
Q 1159 1113 1420 752 
Q 1681 391 2138 391 
Q 2594 391 2855 752 
Q 3116 1113 3116 1747 
z
M 1159 2969 
Q 1341 3281 1617 3432 
Q 1894 3584 2278 3584 
Q 2916 3584 3314 3078 
Q 3713 2572 3713 1747 
Q 3713 922 3314 415 
Q 2916 -91 2278 -91 
Q 1894 -91 1617 61 
Q 1341 213 1159 525 
L 1159 0 
L 581 0 
L 581 4863 
L 1159 4863 
L 1159 2969 
z
" transform="scale(0.015625)"/>
       <path id="DejaVuSans-55" d="M 2631 2963 
Q 2534 3019 2420 3045 
Q 2306 3072 2169 3072 
Q 1681 3072 1420 2755 
Q 1159 2438 1159 1844 
L 1159 0 
L 581 0 
L 581 3500 
L 1159 3500 
L 1159 2956 
Q 1341 3275 1631 3429 
Q 1922 3584 2338 3584 
Q 2397 3584 2469 3576 
Q 2541 3569 2628 3553 
L 2631 2963 
z
" transform="scale(0.015625)"/>
       <path id="DejaVuSans-3" transform="scale(0.015625)"/>
       <path id="DejaVuSans-46" d="M 3122 3366 
L 3122 2828 
Q 2878 2963 2633 3030 
Q 2388 3097 2138 3097 
Q 1578 3097 1268 2742 
Q 959 2388 959 1747 
Q 959 1106 1268 751 
Q 1578 397 2138 397 
Q 2388 397 2633 464 
Q 2878 531 3122 666 
L 3122 134 
Q 2881 22 2623 -34 
Q 2366 -91 2075 -91 
Q 1284 -91 818 406 
Q 353 903 353 1747 
Q 353 2603 823 3093 
Q 1294 3584 2113 3584 
Q 2378 3584 2631 3529 
Q 2884 3475 3122 3366 
z
" transform="scale(0.015625)"/>
       <path id="DejaVuSans-52" d="M 1959 3097 
Q 1497 3097 1228 2736 
Q 959 2375 959 1747 
Q 959 1119 1226 758 
Q 1494 397 1959 397 
Q 2419 397 2687 759 
Q 2956 1122 2956 1747 
Q 2956 2369 2687 2733 
Q 2419 3097 1959 3097 
z
M 1959 3584 
Q 2709 3584 3137 3096 
Q 3566 2609 3566 1747 
Q 3566 888 3137 398 
Q 2709 -91 1959 -91 
Q 1206 -91 779 398 
Q 353 888 353 1747 
Q 353 2609 779 3096 
Q 1206 3584 1959 3584 
z
" transform="scale(0.015625)"/>
       <path id="DejaVuSans-58" d="M 544 1381 
L 544 3500 
L 1119 3500 
L 1119 1403 
Q 1119 906 1312 657 
Q 1506 409 1894 409 
Q 2359 409 2629 706 
Q 2900 1003 2900 1516 
L 2900 3500 
L 3475 3500 
L 3475 0 
L 2900 0 
L 2900 538 
Q 2691 219 2414 64 
Q 2138 -91 1772 -91 
Q 1169 -91 856 284 
Q 544 659 544 1381 
z
M 1991 3584 
L 1991 3584 
z
" transform="scale(0.015625)"/>
       <path id="DejaVuSans-51" d="M 3513 2113 
L 3513 0 
L 2938 0 
L 2938 2094 
Q 2938 2591 2744 2837 
Q 2550 3084 2163 3084 
Q 1697 3084 1428 2787 
Q 1159 2491 1159 1978 
L 1159 0 
L 581 0 
L 581 3500 
L 1159 3500 
L 1159 2956 
Q 1366 3272 1645 3428 
Q 1925 3584 2291 3584 
Q 2894 3584 3203 3211 
Q 3513 2838 3513 2113 
z
" transform="scale(0.015625)"/>
       <path id="DejaVuSans-57" d="M 1172 4494 
L 1172 3500 
L 2356 3500 
L 2356 3053 
L 1172 3053 
L 1172 1153 
Q 1172 725 1289 603 
Q 1406 481 1766 481 
L 2356 481 
L 2356 0 
L 1766 0 
Q 1100 0 847 248 
Q 594 497 594 1153 
L 594 3053 
L 172 3053 
L 172 3500 
L 594 3500 
L 594 4494 
L 1172 4494 
z
" transform="scale(0.015625)"/>
      </defs>
      <use xlink:href="#DejaVuSans-30"/>
      <use xlink:href="#DejaVuSans-48" transform="translate(86.28125 0)"/>
      <use xlink:href="#DejaVuSans-50" transform="translate(147.8125 0)"/>
      <use xlink:href="#DejaVuSans-45" transform="translate(245.21875 0)"/>
      <use xlink:href="#DejaVuSans-48" transform="translate(308.703125 0)"/>
      <use xlink:href="#DejaVuSans-55" transform="translate(370.234375 0)"/>
      <use xlink:href="#DejaVuSans-3" transform="translate(411.34375 0)"/>
      <use xlink:href="#DejaVuSans-46" transform="translate(443.125 0)"/>
      <use xlink:href="#DejaVuSans-52" transform="translate(498.109375 0)"/>
      <use xlink:href="#DejaVuSans-58" transform="translate(559.296875 0)"/>
      <use xlink:href="#DejaVuSans-51" transform="translate(622.671875 0)"/>
      <use xlink:href="#DejaVuSans-57" transform="translate(686.046875 0)"/>
     </g>
    </g>
   </g>
   <g id="matplotlib.axis_2">
    <g id="ytick_1">
     <g id="line2d_11">
      <defs>
       <path id="m5f26744bec" d="M 0 0 
L -3.5 0 
" style="stroke: #000000; stroke-width: 0.8"/>
      </defs>
      <g>
       <use xlink:href="#m5f26744bec" x="223.8825" y="279.462363" style="stroke: #000000; stroke-width: 0.8"/>
      </g>
     </g>
     <g id="text_12">
      <!-- Maintain Current Ceiling -->
      <g transform="translate(119.9975 282.501738) scale(0.08 -0.08)">
       <defs>
        <path id="DejaVuSans-44" d="M 2194 1759 
Q 1497 1759 1228 1600 
Q 959 1441 959 1056 
Q 959 750 1161 570 
Q 1363 391 1709 391 
Q 2188 391 2477 730 
Q 2766 1069 2766 1631 
L 2766 1759 
L 2194 1759 
z
M 3341 1997 
L 3341 0 
L 2766 0 
L 2766 531 
Q 2569 213 2275 61 
Q 1981 -91 1556 -91 
Q 1019 -91 701 211 
Q 384 513 384 1019 
Q 384 1609 779 1909 
Q 1175 2209 1959 2209 
L 2766 2209 
L 2766 2266 
Q 2766 2663 2505 2880 
Q 2244 3097 1772 3097 
Q 1472 3097 1187 3025 
Q 903 2953 641 2809 
L 641 3341 
Q 956 3463 1253 3523 
Q 1550 3584 1831 3584 
Q 2591 3584 2966 3190 
Q 3341 2797 3341 1997 
z
" transform="scale(0.015625)"/>
        <path id="DejaVuSans-4c" d="M 603 3500 
L 1178 3500 
L 1178 0 
L 603 0 
L 603 3500 
z
M 603 4863 
L 1178 4863 
L 1178 4134 
L 603 4134 
L 603 4863 
z
" transform="scale(0.015625)"/>
        <path id="DejaVuSans-26" d="M 4122 4306 
L 4122 3641 
Q 3803 3938 3442 4084 
Q 3081 4231 2675 4231 
Q 1875 4231 1450 3742 
Q 1025 3253 1025 2328 
Q 1025 1406 1450 917 
Q 1875 428 2675 428 
Q 3081 428 3442 575 
Q 3803 722 4122 1019 
L 4122 359 
Q 3791 134 3420 21 
Q 3050 -91 2638 -91 
Q 1578 -91 968 557 
Q 359 1206 359 2328 
Q 359 3453 968 4101 
Q 1578 4750 2638 4750 
Q 3056 4750 3426 4639 
Q 3797 4528 4122 4306 
z
" transform="scale(0.015625)"/>
        <path id="DejaVuSans-4f" d="M 603 4863 
L 1178 4863 
L 1178 0 
L 603 0 
L 603 4863 
z
" transform="scale(0.015625)"/>
        <path id="DejaVuSans-4a" d="M 2906 1791 
Q 2906 2416 2648 2759 
Q 2391 3103 1925 3103 
Q 1463 3103 1205 2759 
Q 947 2416 947 1791 
Q 947 1169 1205 825 
Q 1463 481 1925 481 
Q 2391 481 2648 825 
Q 2906 1169 2906 1791 
z
M 3481 434 
Q 3481 -459 3084 -895 
Q 2688 -1331 1869 -1331 
Q 1566 -1331 1297 -1286 
Q 1028 -1241 775 -1147 
L 775 -588 
Q 1028 -725 1275 -790 
Q 1522 -856 1778 -856 
Q 2344 -856 2625 -561 
Q 2906 -266 2906 331 
L 2906 616 
Q 2728 306 2450 153 
Q 2172 0 1784 0 
Q 1141 0 747 490 
Q 353 981 353 1791 
Q 353 2603 747 3093 
Q 1141 3584 1784 3584 
Q 2172 3584 2450 3431 
Q 2728 3278 2906 2969 
L 2906 3500 
L 3481 3500 
L 3481 434 
z
" transform="scale(0.015625)"/>
       </defs>
       <use xlink:href="#DejaVuSans-30"/>
       <use xlink:href="#DejaVuSans-44" transform="translate(86.28125 0)"/>
       <use xlink:href="#DejaVuSans-4c" transform="translate(147.5625 0)"/>
       <use xlink:href="#DejaVuSans-51" transform="translate(175.34375 0)"/>
       <use xlink:href="#DejaVuSans-57" transform="translate(238.71875 0)"/>
       <use xlink:href="#DejaVuSans-44" transform="translate(277.921875 0)"/>
       <use xlink:href="#DejaVuSans-4c" transform="translate(339.203125 0)"/>
       <use xlink:href="#DejaVuSans-51" transform="translate(366.984375 0)"/>
       <use xlink:href="#DejaVuSans-3" transform="translate(430.359375 0)"/>
       <use xlink:href="#DejaVuSans-26" transform="translate(462.140625 0)"/>
       <use xlink:href="#DejaVuSans-58" transform="translate(531.96875 0)"/>
       <use xlink:href="#DejaVuSans-55" transform="translate(595.34375 0)"/>
       <use xlink:href="#DejaVuSans-55" transform="translate(634.703125 0)"/>
       <use xlink:href="#DejaVuSans-48" transform="translate(673.609375 0)"/>
       <use xlink:href="#DejaVuSans-51" transform="translate(735.140625 0)"/>
       <use xlink:href="#DejaVuSans-57" transform="translate(798.515625 0)"/>
       <use xlink:href="#DejaVuSans-3" transform="translate(837.71875 0)"/>
       <use xlink:href="#DejaVuSans-26" transform="translate(869.5 0)"/>
       <use xlink:href="#DejaVuSans-48" transform="translate(939.328125 0)"/>
       <use xlink:href="#DejaVuSans-4c" transform="translate(1000.859375 0)"/>
       <use xlink:href="#DejaVuSans-4f" transform="translate(1028.640625 0)"/>
       <use xlink:href="#DejaVuSans-4c" transform="translate(1056.421875 0)"/>
       <use xlink:href="#DejaVuSans-51" transform="translate(1084.203125 0)"/>
       <use xlink:href="#DejaVuSans-4a" transform="translate(1147.578125 0)"/>
      </g>
     </g>
    </g>
    <g id="ytick_2">
     <g id="line2d_12">
      <g>
       <use xlink:href="#m5f26744bec" x="223.8825" y="209.462363" style="stroke: #000000; stroke-width: 0.8"/>
      </g>
     </g>
     <g id="text_13">
      <!-- Upgrade Appendix Authority Or Notice Depth -->
      <g transform="translate(35.76625 212.501738) scale(0.08 -0.08)">
       <defs>
        <path id="DejaVuSans-38" d="M 556 4666 
L 1191 4666 
L 1191 1831 
Q 1191 1081 1462 751 
Q 1734 422 2344 422 
Q 2950 422 3222 751 
Q 3494 1081 3494 1831 
L 3494 4666 
L 4128 4666 
L 4128 1753 
Q 4128 841 3676 375 
Q 3225 -91 2344 -91 
Q 1459 -91 1007 375 
Q 556 841 556 1753 
L 556 4666 
z
" transform="scale(0.015625)"/>
        <path id="DejaVuSans-53" d="M 1159 525 
L 1159 -1331 
L 581 -1331 
L 581 3500 
L 1159 3500 
L 1159 2969 
Q 1341 3281 1617 3432 
Q 1894 3584 2278 3584 
Q 2916 3584 3314 3078 
Q 3713 2572 3713 1747 
Q 3713 922 3314 415 
Q 2916 -91 2278 -91 
Q 1894 -91 1617 61 
Q 1341 213 1159 525 
z
M 3116 1747 
Q 3116 2381 2855 2742 
Q 2594 3103 2138 3103 
Q 1681 3103 1420 2742 
Q 1159 2381 1159 1747 
Q 1159 1113 1420 752 
Q 1681 391 2138 391 
Q 2594 391 2855 752 
Q 3116 1113 3116 1747 
z
" transform="scale(0.015625)"/>
        <path id="DejaVuSans-47" d="M 2906 2969 
L 2906 4863 
L 3481 4863 
L 3481 0 
L 2906 0 
L 2906 525 
Q 2725 213 2448 61 
Q 2172 -91 1784 -91 
Q 1150 -91 751 415 
Q 353 922 353 1747 
Q 353 2572 751 3078 
Q 1150 3584 1784 3584 
Q 2172 3584 2448 3432 
Q 2725 3281 2906 2969 
z
M 947 1747 
Q 947 1113 1208 752 
Q 1469 391 1925 391 
Q 2381 391 2643 752 
Q 2906 1113 2906 1747 
Q 2906 2381 2643 2742 
Q 2381 3103 1925 3103 
Q 1469 3103 1208 2742 
Q 947 2381 947 1747 
z
" transform="scale(0.015625)"/>
        <path id="DejaVuSans-24" d="M 2188 4044 
L 1331 1722 
L 3047 1722 
L 2188 4044 
z
M 1831 4666 
L 2547 4666 
L 4325 0 
L 3669 0 
L 3244 1197 
L 1141 1197 
L 716 0 
L 50 0 
L 1831 4666 
z
" transform="scale(0.015625)"/>
        <path id="DejaVuSans-5b" d="M 3513 3500 
L 2247 1797 
L 3578 0 
L 2900 0 
L 1881 1375 
L 863 0 
L 184 0 
L 1544 1831 
L 300 3500 
L 978 3500 
L 1906 2253 
L 2834 3500 
L 3513 3500 
z
" transform="scale(0.015625)"/>
        <path id="DejaVuSans-4b" d="M 3513 2113 
L 3513 0 
L 2938 0 
L 2938 2094 
Q 2938 2591 2744 2837 
Q 2550 3084 2163 3084 
Q 1697 3084 1428 2787 
Q 1159 2491 1159 1978 
L 1159 0 
L 581 0 
L 581 4863 
L 1159 4863 
L 1159 2956 
Q 1366 3272 1645 3428 
Q 1925 3584 2291 3584 
Q 2894 3584 3203 3211 
Q 3513 2838 3513 2113 
z
" transform="scale(0.015625)"/>
        <path id="DejaVuSans-5c" d="M 2059 -325 
Q 1816 -950 1584 -1140 
Q 1353 -1331 966 -1331 
L 506 -1331 
L 506 -850 
L 844 -850 
Q 1081 -850 1212 -737 
Q 1344 -625 1503 -206 
L 1606 56 
L 191 3500 
L 800 3500 
L 1894 763 
L 2988 3500 
L 3597 3500 
L 2059 -325 
z
" transform="scale(0.015625)"/>
        <path id="DejaVuSans-32" d="M 2522 4238 
Q 1834 4238 1429 3725 
Q 1025 3213 1025 2328 
Q 1025 1447 1429 934 
Q 1834 422 2522 422 
Q 3209 422 3611 934 
Q 4013 1447 4013 2328 
Q 4013 3213 3611 3725 
Q 3209 4238 2522 4238 
z
M 2522 4750 
Q 3503 4750 4090 4092 
Q 4678 3434 4678 2328 
Q 4678 1225 4090 567 
Q 3503 -91 2522 -91 
Q 1538 -91 948 565 
Q 359 1222 359 2328 
Q 359 3434 948 4092 
Q 1538 4750 2522 4750 
z
" transform="scale(0.015625)"/>
        <path id="DejaVuSans-31" d="M 628 4666 
L 1478 4666 
L 3547 763 
L 3547 4666 
L 4159 4666 
L 4159 0 
L 3309 0 
L 1241 3903 
L 1241 0 
L 628 0 
L 628 4666 
z
" transform="scale(0.015625)"/>
        <path id="DejaVuSans-27" d="M 1259 4147 
L 1259 519 
L 2022 519 
Q 2988 519 3436 956 
Q 3884 1394 3884 2338 
Q 3884 3275 3436 3711 
Q 2988 4147 2022 4147 
L 1259 4147 
z
M 628 4666 
L 1925 4666 
Q 3281 4666 3915 4102 
Q 4550 3538 4550 2338 
Q 4550 1131 3912 565 
Q 3275 0 1925 0 
L 628 0 
L 628 4666 
z
" transform="scale(0.015625)"/>
       </defs>
       <use xlink:href="#DejaVuSans-38"/>
       <use xlink:href="#DejaVuSans-53" transform="translate(73.1875 0)"/>
       <use xlink:href="#DejaVuSans-4a" transform="translate(136.671875 0)"/>
       <use xlink:href="#DejaVuSans-55" transform="translate(200.15625 0)"/>
       <use xlink:href="#DejaVuSans-44" transform="translate(241.265625 0)"/>
       <use xlink:href="#DejaVuSans-47" transform="translate(302.546875 0)"/>
       <use xlink:href="#DejaVuSans-48" transform="translate(366.03125 0)"/>
       <use xlink:href="#DejaVuSans-3" transform="translate(427.5625 0)"/>
       <use xlink:href="#DejaVuSans-24" transform="translate(459.34375 0)"/>
       <use xlink:href="#DejaVuSans-53" transform="translate(527.75 0)"/>
       <use xlink:href="#DejaVuSans-53" transform="translate(591.234375 0)"/>
       <use xlink:href="#DejaVuSans-48" transform="translate(654.71875 0)"/>
       <use xlink:href="#DejaVuSans-51" transform="translate(716.25 0)"/>
       <use xlink:href="#DejaVuSans-47" transform="translate(779.625 0)"/>
       <use xlink:href="#DejaVuSans-4c" transform="translate(843.109375 0)"/>
       <use xlink:href="#DejaVuSans-5b" transform="translate(870.890625 0)"/>
       <use xlink:href="#DejaVuSans-3" transform="translate(930.078125 0)"/>
       <use xlink:href="#DejaVuSans-24" transform="translate(961.859375 0)"/>
       <use xlink:href="#DejaVuSans-58" transform="translate(1030.265625 0)"/>
       <use xlink:href="#DejaVuSans-57" transform="translate(1093.640625 0)"/>
       <use xlink:href="#DejaVuSans-4b" transform="translate(1132.84375 0)"/>
       <use xlink:href="#DejaVuSans-52" transform="translate(1196.21875 0)"/>
       <use xlink:href="#DejaVuSans-55" transform="translate(1257.40625 0)"/>
       <use xlink:href="#DejaVuSans-4c" transform="translate(1298.515625 0)"/>
       <use xlink:href="#DejaVuSans-57" transform="translate(1326.296875 0)"/>
       <use xlink:href="#DejaVuSans-5c" transform="translate(1365.5 0)"/>
       <use xlink:href="#DejaVuSans-3" transform="translate(1424.6875 0)"/>
       <use xlink:href="#DejaVuSans-32" transform="translate(1456.46875 0)"/>
       <use xlink:href="#DejaVuSans-55" transform="translate(1535.1875 0)"/>
       <use xlink:href="#DejaVuSans-3" transform="translate(1576.296875 0)"/>
       <use xlink:href="#DejaVuSans-31" transform="translate(1608.078125 0)"/>
       <use xlink:href="#DejaVuSans-52" transform="translate(1682.890625 0)"/>
       <use xlink:href="#DejaVuSans-57" transform="translate(1744.078125 0)"/>
       <use xlink:href="#DejaVuSans-4c" transform="translate(1783.28125 0)"/>
       <use xlink:href="#DejaVuSans-46" transform="translate(1811.0625 0)"/>
       <use xlink:href="#DejaVuSans-48" transform="translate(1866.046875 0)"/>
       <use xlink:href="#DejaVuSans-3" transform="translate(1927.578125 0)"/>
       <use xlink:href="#DejaVuSans-27" transform="translate(1959.359375 0)"/>
       <use xlink:href="#DejaVuSans-48" transform="translate(2036.359375 0)"/>
       <use xlink:href="#DejaVuSans-53" transform="translate(2097.890625 0)"/>
       <use xlink:href="#DejaVuSans-57" transform="translate(2161.375 0)"/>
       <use xlink:href="#DejaVuSans-4b" transform="translate(2200.578125 0)"/>
      </g>
     </g>
    </g>
    <g id="ytick_3">
     <g id="line2d_13">
      <g>
       <use xlink:href="#m5f26744bec" x="223.8825" y="139.462363" style="stroke: #000000; stroke-width: 0.8"/>
      </g>
     </g>
     <g id="text_14">
      <!-- Upgrade Limitations Row Before Comparative Reuse -->
      <g transform="translate(7.2 142.501738) scale(0.08 -0.08)">
       <defs>
        <path id="DejaVuSans-2f" d="M 628 4666 
L 1259 4666 
L 1259 531 
L 3531 531 
L 3531 0 
L 628 0 
L 628 4666 
z
" transform="scale(0.015625)"/>
        <path id="DejaVuSans-56" d="M 2834 3397 
L 2834 2853 
Q 2591 2978 2328 3040 
Q 2066 3103 1784 3103 
Q 1356 3103 1142 2972 
Q 928 2841 928 2578 
Q 928 2378 1081 2264 
Q 1234 2150 1697 2047 
L 1894 2003 
Q 2506 1872 2764 1633 
Q 3022 1394 3022 966 
Q 3022 478 2636 193 
Q 2250 -91 1575 -91 
Q 1294 -91 989 -36 
Q 684 19 347 128 
L 347 722 
Q 666 556 975 473 
Q 1284 391 1588 391 
Q 1994 391 2212 530 
Q 2431 669 2431 922 
Q 2431 1156 2273 1281 
Q 2116 1406 1581 1522 
L 1381 1569 
Q 847 1681 609 1914 
Q 372 2147 372 2553 
Q 372 3047 722 3315 
Q 1072 3584 1716 3584 
Q 2034 3584 2315 3537 
Q 2597 3491 2834 3397 
z
" transform="scale(0.015625)"/>
        <path id="DejaVuSans-35" d="M 2841 2188 
Q 3044 2119 3236 1894 
Q 3428 1669 3622 1275 
L 4263 0 
L 3584 0 
L 2988 1197 
Q 2756 1666 2539 1819 
Q 2322 1972 1947 1972 
L 1259 1972 
L 1259 0 
L 628 0 
L 628 4666 
L 2053 4666 
Q 2853 4666 3247 4331 
Q 3641 3997 3641 3322 
Q 3641 2881 3436 2590 
Q 3231 2300 2841 2188 
z
M 1259 4147 
L 1259 2491 
L 2053 2491 
Q 2509 2491 2742 2702 
Q 2975 2913 2975 3322 
Q 2975 3731 2742 3939 
Q 2509 4147 2053 4147 
L 1259 4147 
z
" transform="scale(0.015625)"/>
        <path id="DejaVuSans-5a" d="M 269 3500 
L 844 3500 
L 1563 769 
L 2278 3500 
L 2956 3500 
L 3675 769 
L 4391 3500 
L 4966 3500 
L 4050 0 
L 3372 0 
L 2619 2869 
L 1863 0 
L 1184 0 
L 269 3500 
z
" transform="scale(0.015625)"/>
        <path id="DejaVuSans-25" d="M 1259 2228 
L 1259 519 
L 2272 519 
Q 2781 519 3026 730 
Q 3272 941 3272 1375 
Q 3272 1813 3026 2020 
Q 2781 2228 2272 2228 
L 1259 2228 
z
M 1259 4147 
L 1259 2741 
L 2194 2741 
Q 2656 2741 2882 2914 
Q 3109 3088 3109 3444 
Q 3109 3797 2882 3972 
Q 2656 4147 2194 4147 
L 1259 4147 
z
M 628 4666 
L 2241 4666 
Q 2963 4666 3353 4366 
Q 3744 4066 3744 3513 
Q 3744 3084 3544 2831 
Q 3344 2578 2956 2516 
Q 3422 2416 3680 2098 
Q 3938 1781 3938 1306 
Q 3938 681 3513 340 
Q 3088 0 2303 0 
L 628 0 
L 628 4666 
z
" transform="scale(0.015625)"/>
        <path id="DejaVuSans-49" d="M 2375 4863 
L 2375 4384 
L 1825 4384 
Q 1516 4384 1395 4259 
Q 1275 4134 1275 3809 
L 1275 3500 
L 2222 3500 
L 2222 3053 
L 1275 3053 
L 1275 0 
L 697 0 
L 697 3053 
L 147 3053 
L 147 3500 
L 697 3500 
L 697 3744 
Q 697 4328 969 4595 
Q 1241 4863 1831 4863 
L 2375 4863 
z
" transform="scale(0.015625)"/>
        <path id="DejaVuSans-59" d="M 191 3500 
L 800 3500 
L 1894 563 
L 2988 3500 
L 3597 3500 
L 2284 0 
L 1503 0 
L 191 3500 
z
" transform="scale(0.015625)"/>
       </defs>
       <use xlink:href="#DejaVuSans-38"/>
       <use xlink:href="#DejaVuSans-53" transform="translate(73.1875 0)"/>
       <use xlink:href="#DejaVuSans-4a" transform="translate(136.671875 0)"/>
       <use xlink:href="#DejaVuSans-55" transform="translate(200.15625 0)"/>
       <use xlink:href="#DejaVuSans-44" transform="translate(241.265625 0)"/>
       <use xlink:href="#DejaVuSans-47" transform="translate(302.546875 0)"/>
       <use xlink:href="#DejaVuSans-48" transform="translate(366.03125 0)"/>
       <use xlink:href="#DejaVuSans-3" transform="translate(427.5625 0)"/>
       <use xlink:href="#DejaVuSans-2f" transform="translate(459.34375 0)"/>
       <use xlink:href="#DejaVuSans-4c" transform="translate(515.0625 0)"/>
       <use xlink:href="#DejaVuSans-50" transform="translate(542.84375 0)"/>
       <use xlink:href="#DejaVuSans-4c" transform="translate(640.25 0)"/>
       <use xlink:href="#DejaVuSans-57" transform="translate(668.03125 0)"/>
       <use xlink:href="#DejaVuSans-44" transform="translate(707.234375 0)"/>
       <use xlink:href="#DejaVuSans-57" transform="translate(768.515625 0)"/>
       <use xlink:href="#DejaVuSans-4c" transform="translate(807.71875 0)"/>
       <use xlink:href="#DejaVuSans-52" transform="translate(835.5 0)"/>
       <use xlink:href="#DejaVuSans-51" transform="translate(896.6875 0)"/>
       <use xlink:href="#DejaVuSans-56" transform="translate(960.0625 0)"/>
       <use xlink:href="#DejaVuSans-3" transform="translate(1012.15625 0)"/>
       <use xlink:href="#DejaVuSans-35" transform="translate(1043.9375 0)"/>
       <use xlink:href="#DejaVuSans-52" transform="translate(1108.9375 0)"/>
       <use xlink:href="#DejaVuSans-5a" transform="translate(1170.125 0)"/>
       <use xlink:href="#DejaVuSans-3" transform="translate(1251.90625 0)"/>
       <use xlink:href="#DejaVuSans-25" transform="translate(1283.6875 0)"/>
       <use xlink:href="#DejaVuSans-48" transform="translate(1352.296875 0)"/>
       <use xlink:href="#DejaVuSans-49" transform="translate(1413.828125 0)"/>
       <use xlink:href="#DejaVuSans-52" transform="translate(1449.03125 0)"/>
       <use xlink:href="#DejaVuSans-55" transform="translate(1510.21875 0)"/>
       <use xlink:href="#DejaVuSans-48" transform="translate(1549.125 0)"/>
       <use xlink:href="#DejaVuSans-3" transform="translate(1610.65625 0)"/>
       <use xlink:href="#DejaVuSans-26" transform="translate(1642.4375 0)"/>
       <use xlink:href="#DejaVuSans-52" transform="translate(1712.265625 0)"/>
       <use xlink:href="#DejaVuSans-50" transform="translate(1773.453125 0)"/>
       <use xlink:href="#DejaVuSans-53" transform="translate(1870.859375 0)"/>
       <use xlink:href="#DejaVuSans-44" transform="translate(1934.34375 0)"/>
       <use xlink:href="#DejaVuSans-55" transform="translate(1995.625 0)"/>
       <use xlink:href="#DejaVuSans-44" transform="translate(2036.734375 0)"/>
       <use xlink:href="#DejaVuSans-57" transform="translate(2098.015625 0)"/>
       <use xlink:href="#DejaVuSans-4c" transform="translate(2137.21875 0)"/>
       <use xlink:href="#DejaVuSans-59" transform="translate(2165 0)"/>
       <use xlink:href="#DejaVuSans-48" transform="translate(2224.1875 0)"/>
       <use xlink:href="#DejaVuSans-3" transform="translate(2285.71875 0)"/>
       <use xlink:href="#DejaVuSans-35" transform="translate(2317.5 0)"/>
       <use xlink:href="#DejaVuSans-48" transform="translate(2382.5 0)"/>
       <use xlink:href="#DejaVuSans-58" transform="translate(2444.03125 0)"/>
       <use xlink:href="#DejaVuSans-56" transform="translate(2507.40625 0)"/>
       <use xlink:href="#DejaVuSans-48" transform="translate(2559.5 0)"/>
      </g>
     </g>
    </g>
    <g id="ytick_4">
     <g id="line2d_14">
      <g>
       <use xlink:href="#m5f26744bec" x="223.8825" y="69.462363" style="stroke: #000000; stroke-width: 0.8"/>
      </g>
     </g>
     <g id="text_15">
      <!-- Close Explicit Package Gap -->
      <g transform="translate(109.0475 72.501738) scale(0.08 -0.08)">
       <defs>
        <path id="DejaVuSans-28" d="M 628 4666 
L 3578 4666 
L 3578 4134 
L 1259 4134 
L 1259 2753 
L 3481 2753 
L 3481 2222 
L 1259 2222 
L 1259 531 
L 3634 531 
L 3634 0 
L 628 0 
L 628 4666 
z
" transform="scale(0.015625)"/>
        <path id="DejaVuSans-33" d="M 1259 4147 
L 1259 2394 
L 2053 2394 
Q 2494 2394 2734 2622 
Q 2975 2850 2975 3272 
Q 2975 3691 2734 3919 
Q 2494 4147 2053 4147 
L 1259 4147 
z
M 628 4666 
L 2053 4666 
Q 2838 4666 3239 4311 
Q 3641 3956 3641 3272 
Q 3641 2581 3239 2228 
Q 2838 1875 2053 1875 
L 1259 1875 
L 1259 0 
L 628 0 
L 628 4666 
z
" transform="scale(0.015625)"/>
        <path id="DejaVuSans-4e" d="M 581 4863 
L 1159 4863 
L 1159 1991 
L 2875 3500 
L 3609 3500 
L 1753 1863 
L 3688 0 
L 2938 0 
L 1159 1709 
L 1159 0 
L 581 0 
L 581 4863 
z
" transform="scale(0.015625)"/>
        <path id="DejaVuSans-2a" d="M 3809 666 
L 3809 1919 
L 2778 1919 
L 2778 2438 
L 4434 2438 
L 4434 434 
Q 4069 175 3628 42 
Q 3188 -91 2688 -91 
Q 1594 -91 976 548 
Q 359 1188 359 2328 
Q 359 3472 976 4111 
Q 1594 4750 2688 4750 
Q 3144 4750 3555 4637 
Q 3966 4525 4313 4306 
L 4313 3634 
Q 3963 3931 3569 4081 
Q 3175 4231 2741 4231 
Q 1884 4231 1454 3753 
Q 1025 3275 1025 2328 
Q 1025 1384 1454 906 
Q 1884 428 2741 428 
Q 3075 428 3337 486 
Q 3600 544 3809 666 
z
" transform="scale(0.015625)"/>
       </defs>
       <use xlink:href="#DejaVuSans-26"/>
       <use xlink:href="#DejaVuSans-4f" transform="translate(69.828125 0)"/>
       <use xlink:href="#DejaVuSans-52" transform="translate(97.609375 0)"/>
       <use xlink:href="#DejaVuSans-56" transform="translate(158.796875 0)"/>
       <use xlink:href="#DejaVuSans-48" transform="translate(210.890625 0)"/>
       <use xlink:href="#DejaVuSans-3" transform="translate(272.421875 0)"/>
       <use xlink:href="#DejaVuSans-28" transform="translate(304.203125 0)"/>
       <use xlink:href="#DejaVuSans-5b" transform="translate(367.390625 0)"/>
       <use xlink:href="#DejaVuSans-53" transform="translate(426.578125 0)"/>
       <use xlink:href="#DejaVuSans-4f" transform="translate(490.0625 0)"/>
       <use xlink:href="#DejaVuSans-4c" transform="translate(517.84375 0)"/>
       <use xlink:href="#DejaVuSans-46" transform="translate(545.625 0)"/>
       <use xlink:href="#DejaVuSans-4c" transform="translate(600.609375 0)"/>
       <use xlink:href="#DejaVuSans-57" transform="translate(628.390625 0)"/>
       <use xlink:href="#DejaVuSans-3" transform="translate(667.59375 0)"/>
       <use xlink:href="#DejaVuSans-33" transform="translate(699.375 0)"/>
       <use xlink:href="#DejaVuSans-44" transform="translate(755.1875 0)"/>
       <use xlink:href="#DejaVuSans-46" transform="translate(816.46875 0)"/>
       <use xlink:href="#DejaVuSans-4e" transform="translate(871.453125 0)"/>
       <use xlink:href="#DejaVuSans-44" transform="translate(927.609375 0)"/>
       <use xlink:href="#DejaVuSans-4a" transform="translate(988.890625 0)"/>
       <use xlink:href="#DejaVuSans-48" transform="translate(1052.375 0)"/>
       <use xlink:href="#DejaVuSans-3" transform="translate(1113.90625 0)"/>
       <use xlink:href="#DejaVuSans-2a" transform="translate(1145.6875 0)"/>
       <use xlink:href="#DejaVuSans-44" transform="translate(1223.171875 0)"/>
       <use xlink:href="#DejaVuSans-53" transform="translate(1284.453125 0)"/>
      </g>
     </g>
    </g>
   </g>
   <g id="patch_7">
    <path d="M 223.8825 313.062363 
L 223.8825 35.862363 
" style="fill: none; stroke: #000000; stroke-width: 0.8; stroke-linejoin: miter; stroke-linecap: square"/>
   </g>
   <g id="patch_8">
    <path d="M 223.8825 313.062363 
L 670.2825 313.062363 
" style="fill: none; stroke: #000000; stroke-width: 0.8; stroke-linejoin: miter; stroke-linecap: square"/>
   </g>
   <g id="text_16">
    <!-- n=3  [1_core_results] -->
    <g style="fill: #333333" transform="translate(377.6425 281.280996) scale(0.07 -0.07)">
     <defs>
      <path id="DejaVuSans-20" d="M 678 2906 
L 4684 2906 
L 4684 2381 
L 678 2381 
L 678 2906 
z
M 678 1631 
L 4684 1631 
L 4684 1100 
L 678 1100 
L 678 1631 
z
" transform="scale(0.015625)"/>
      <path id="DejaVuSans-3e" d="M 550 4863 
L 1875 4863 
L 1875 4416 
L 1125 4416 
L 1125 -397 
L 1875 -397 
L 1875 -844 
L 550 -844 
L 550 4863 
z
" transform="scale(0.015625)"/>
      <path id="DejaVuSans-42" d="M 3263 -1063 
L 3263 -1509 
L -63 -1509 
L -63 -1063 
L 3263 -1063 
z
" transform="scale(0.015625)"/>
      <path id="DejaVuSans-40" d="M 1947 4863 
L 1947 -844 
L 622 -844 
L 622 -397 
L 1369 -397 
L 1369 4416 
L 622 4416 
L 622 4863 
L 1947 4863 
z
" transform="scale(0.015625)"/>
     </defs>
     <use xlink:href="#DejaVuSans-51"/>
     <use xlink:href="#DejaVuSans-20" transform="translate(63.375 0)"/>
     <use xlink:href="#DejaVuSans-16" transform="translate(147.171875 0)"/>
     <use xlink:href="#DejaVuSans-3" transform="translate(210.796875 0)"/>
     <use xlink:href="#DejaVuSans-3" transform="translate(242.578125 0)"/>
     <use xlink:href="#DejaVuSans-3e" transform="translate(274.359375 0)"/>
     <use xlink:href="#DejaVuSans-14" transform="translate(313.375 0)"/>
     <use xlink:href="#DejaVuSans-42" transform="translate(377 0)"/>
     <use xlink:href="#DejaVuSans-46" transform="translate(427 0)"/>
     <use xlink:href="#DejaVuSans-52" transform="translate(481.984375 0)"/>
     <use xlink:href="#DejaVuSans-55" transform="translate(543.171875 0)"/>
     <use xlink:href="#DejaVuSans-48" transform="translate(582.078125 0)"/>
     <use xlink:href="#DejaVuSans-42" transform="translate(643.609375 0)"/>
     <use xlink:href="#DejaVuSans-55" transform="translate(693.609375 0)"/>
     <use xlink:href="#DejaVuSans-48" transform="translate(732.515625 0)"/>
     <use xlink:href="#DejaVuSans-56" transform="translate(794.046875 0)"/>
     <use xlink:href="#DejaVuSans-58" transform="translate(846.140625 0)"/>
     <use xlink:href="#DejaVuSans-4f" transform="translate(909.515625 0)"/>
     <use xlink:href="#DejaVuSans-57" transform="translate(937.296875 0)"/>
     <use xlink:href="#DejaVuSans-56" transform="translate(976.5 0)"/>
     <use xlink:href="#DejaVuSans-40" transform="translate(1028.59375 0)"/>
    </g>
   </g>
   <g id="text_17">
    <!-- n=6  [2_appendix_supporting_results] -->
    <g style="fill: #333333" transform="translate(526.4425 211.280996) scale(0.07 -0.07)">
     <use xlink:href="#DejaVuSans-51"/>
     <use xlink:href="#DejaVuSans-20" transform="translate(63.375 0)"/>
     <use xlink:href="#DejaVuSans-19" transform="translate(147.171875 0)"/>
     <use xlink:href="#DejaVuSans-3" transform="translate(210.796875 0)"/>
     <use xlink:href="#DejaVuSans-3" transform="translate(242.578125 0)"/>
     <use xlink:href="#DejaVuSans-3e" transform="translate(274.359375 0)"/>
     <use xlink:href="#DejaVuSans-15" transform="translate(313.375 0)"/>
     <use xlink:href="#DejaVuSans-42" transform="translate(377 0)"/>
     <use xlink:href="#DejaVuSans-44" transform="translate(427 0)"/>
     <use xlink:href="#DejaVuSans-53" transform="translate(488.28125 0)"/>
     <use xlink:href="#DejaVuSans-53" transform="translate(551.765625 0)"/>
     <use xlink:href="#DejaVuSans-48" transform="translate(615.25 0)"/>
     <use xlink:href="#DejaVuSans-51" transform="translate(676.78125 0)"/>
     <use xlink:href="#DejaVuSans-47" transform="translate(740.15625 0)"/>
     <use xlink:href="#DejaVuSans-4c" transform="translate(803.640625 0)"/>
     <use xlink:href="#DejaVuSans-5b" transform="translate(831.421875 0)"/>
     <use xlink:href="#DejaVuSans-42" transform="translate(890.609375 0)"/>
     <use xlink:href="#DejaVuSans-56" transform="translate(940.609375 0)"/>
     <use xlink:href="#DejaVuSans-58" transform="translate(992.703125 0)"/>
     <use xlink:href="#DejaVuSans-53" transform="translate(1056.078125 0)"/>
     <use xlink:href="#DejaVuSans-53" transform="translate(1119.5625 0)"/>
     <use xlink:href="#DejaVuSans-52" transform="translate(1183.046875 0)"/>
     <use xlink:href="#DejaVuSans-55" transform="translate(1244.234375 0)"/>
     <use xlink:href="#DejaVuSans-57" transform="translate(1285.34375 0)"/>
     <use xlink:href="#DejaVuSans-4c" transform="translate(1324.546875 0)"/>
     <use xlink:href="#DejaVuSans-51" transform="translate(1352.328125 0)"/>
     <use xlink:href="#DejaVuSans-4a" transform="translate(1415.703125 0)"/>
     <use xlink:href="#DejaVuSans-42" transform="translate(1479.1875 0)"/>
     <use xlink:href="#DejaVuSans-55" transform="translate(1529.1875 0)"/>
     <use xlink:href="#DejaVuSans-48" transform="translate(1568.09375 0)"/>
     <use xlink:href="#DejaVuSans-56" transform="translate(1629.625 0)"/>
     <use xlink:href="#DejaVuSans-58" transform="translate(1681.71875 0)"/>
     <use xlink:href="#DejaVuSans-4f" transform="translate(1745.09375 0)"/>
     <use xlink:href="#DejaVuSans-57" transform="translate(1772.875 0)"/>
     <use xlink:href="#DejaVuSans-56" transform="translate(1812.078125 0)"/>
     <use xlink:href="#DejaVuSans-40" transform="translate(1864.171875 0)"/>
    </g>
   </g>
   <g id="text_18">
    <!-- n=1  [3_limitations_queue_only] -->
    <g style="fill: #333333" transform="translate(278.4425 141.280996) scale(0.07 -0.07)">
     <defs>
      <path id="DejaVuSans-54" d="M 947 1747 
Q 947 1113 1208 752 
Q 1469 391 1925 391 
Q 2381 391 2643 752 
Q 2906 1113 2906 1747 
Q 2906 2381 2643 2742 
Q 2381 3103 1925 3103 
Q 1469 3103 1208 2742 
Q 947 2381 947 1747 
z
M 2906 525 
Q 2725 213 2448 61 
Q 2172 -91 1784 -91 
Q 1150 -91 751 415 
Q 353 922 353 1747 
Q 353 2572 751 3078 
Q 1150 3584 1784 3584 
Q 2172 3584 2448 3432 
Q 2725 3281 2906 2969 
L 2906 3500 
L 3481 3500 
L 3481 -1331 
L 2906 -1331 
L 2906 525 
z
" transform="scale(0.015625)"/>
     </defs>
     <use xlink:href="#DejaVuSans-51"/>
     <use xlink:href="#DejaVuSans-20" transform="translate(63.375 0)"/>
     <use xlink:href="#DejaVuSans-14" transform="translate(147.171875 0)"/>
     <use xlink:href="#DejaVuSans-3" transform="translate(210.796875 0)"/>
     <use xlink:href="#DejaVuSans-3" transform="translate(242.578125 0)"/>
     <use xlink:href="#DejaVuSans-3e" transform="translate(274.359375 0)"/>
     <use xlink:href="#DejaVuSans-16" transform="translate(313.375 0)"/>
     <use xlink:href="#DejaVuSans-42" transform="translate(377 0)"/>
     <use xlink:href="#DejaVuSans-4f" transform="translate(427 0)"/>
     <use xlink:href="#DejaVuSans-4c" transform="translate(454.78125 0)"/>
     <use xlink:href="#DejaVuSans-50" transform="translate(482.5625 0)"/>
     <use xlink:href="#DejaVuSans-4c" transform="translate(579.96875 0)"/>
     <use xlink:href="#DejaVuSans-57" transform="translate(607.75 0)"/>
     <use xlink:href="#DejaVuSans-44" transform="translate(646.953125 0)"/>
     <use xlink:href="#DejaVuSans-57" transform="translate(708.234375 0)"/>
     <use xlink:href="#DejaVuSans-4c" transform="translate(747.4375 0)"/>
     <use xlink:href="#DejaVuSans-52" transform="translate(775.21875 0)"/>
     <use xlink:href="#DejaVuSans-51" transform="translate(836.40625 0)"/>
     <use xlink:href="#DejaVuSans-56" transform="translate(899.78125 0)"/>
     <use xlink:href="#DejaVuSans-42" transform="translate(951.875 0)"/>
     <use xlink:href="#DejaVuSans-54" transform="translate(1001.875 0)"/>
     <use xlink:href="#DejaVuSans-58" transform="translate(1065.359375 0)"/>
     <use xlink:href="#DejaVuSans-48" transform="translate(1128.734375 0)"/>
     <use xlink:href="#DejaVuSans-58" transform="translate(1190.265625 0)"/>
     <use xlink:href="#DejaVuSans-48" transform="translate(1253.640625 0)"/>
     <use xlink:href="#DejaVuSans-42" transform="translate(1315.171875 0)"/>
     <use xlink:href="#DejaVuSans-52" transform="translate(1365.171875 0)"/>
     <use xlink:href="#DejaVuSans-51" transform="translate(1426.359375 0)"/>
     <use xlink:href="#DejaVuSans-4f" transform="translate(1489.734375 0)"/>
     <use xlink:href="#DejaVuSans-5c" transform="translate(1517.515625 0)"/>
     <use xlink:href="#DejaVuSans-40" transform="translate(1576.703125 0)"/>
    </g>
   </g>
   <g id="text_19">
    <!-- n=1  [0_gap_only] -->
    <g style="fill: #333333" transform="translate(278.4425 71.280996) scale(0.07 -0.07)">
     <use xlink:href="#DejaVuSans-51"/>
     <use xlink:href="#DejaVuSans-20" transform="translate(63.375 0)"/>
     <use xlink:href="#DejaVuSans-14" transform="translate(147.171875 0)"/>
     <use xlink:href="#DejaVuSans-3" transform="translate(210.796875 0)"/>
     <use xlink:href="#DejaVuSans-3" transform="translate(242.578125 0)"/>
     <use xlink:href="#DejaVuSans-3e" transform="translate(274.359375 0)"/>
     <use xlink:href="#DejaVuSans-13" transform="translate(313.375 0)"/>
     <use xlink:href="#DejaVuSans-42" transform="translate(377 0)"/>
     <use xlink:href="#DejaVuSans-4a" transform="translate(427 0)"/>
     <use xlink:href="#DejaVuSans-44" transform="translate(490.484375 0)"/>
     <use xlink:href="#DejaVuSans-53" transform="translate(551.765625 0)"/>
     <use xlink:href="#DejaVuSans-42" transform="translate(615.25 0)"/>
     <use xlink:href="#DejaVuSans-52" transform="translate(665.25 0)"/>
     <use xlink:href="#DejaVuSans-51" transform="translate(726.4375 0)"/>
     <use xlink:href="#DejaVuSans-4f" transform="translate(789.8125 0)"/>
     <use xlink:href="#DejaVuSans-5c" transform="translate(817.59375 0)"/>
     <use xlink:href="#DejaVuSans-40" transform="translate(876.78125 0)"/>
    </g>
   </g>
   <g id="text_20">
    <!-- Bounded companion to Figures 2 and 5; not a core count surface. -->
    <g style="fill: #636363" transform="translate(331.848281 332.380449) scale(0.07 -0.07)">
     <defs>
      <path id="DejaVuSans-Oblique-25" d="M 1081 4666 
L 2694 4666 
Q 3350 4666 3675 4422 
Q 4000 4178 4000 3688 
Q 4000 3238 3720 2911 
Q 3441 2584 2988 2516 
Q 3375 2428 3569 2181 
Q 3763 1934 3763 1522 
Q 3763 819 3242 409 
Q 2722 0 1819 0 
L 172 0 
L 1081 4666 
z
M 1234 2228 
L 903 519 
L 1919 519 
Q 2491 519 2800 781 
Q 3109 1044 3109 1522 
Q 3109 1891 2904 2059 
Q 2700 2228 2247 2228 
L 1234 2228 
z
M 1606 4147 
L 1331 2741 
L 2272 2741 
Q 2775 2741 3058 2959 
Q 3341 3178 3341 3566 
Q 3341 3869 3150 4008 
Q 2959 4147 2541 4147 
L 1606 4147 
z
" transform="scale(0.015625)"/>
      <path id="DejaVuSans-Oblique-52" d="M 1625 -91 
Q 1009 -91 651 289 
Q 294 669 294 1325 
Q 294 1706 417 2101 
Q 541 2497 738 2766 
Q 1047 3184 1428 3384 
Q 1809 3584 2291 3584 
Q 2888 3584 3255 3212 
Q 3622 2841 3622 2241 
Q 3622 1825 3500 1412 
Q 3378 1000 3181 728 
Q 2875 309 2494 109 
Q 2113 -91 1625 -91 
z
M 891 1344 
Q 891 869 1089 633 
Q 1288 397 1691 397 
Q 2269 397 2648 901 
Q 3028 1406 3028 2181 
Q 3028 2634 2825 2865 
Q 2622 3097 2228 3097 
Q 1903 3097 1650 2945 
Q 1397 2794 1197 2484 
Q 1050 2253 970 1956 
Q 891 1659 891 1344 
z
" transform="scale(0.015625)"/>
      <path id="DejaVuSans-Oblique-58" d="M 428 1388 
L 838 3500 
L 1416 3500 
L 1006 1409 
Q 975 1256 961 1147 
Q 947 1038 947 966 
Q 947 700 1109 554 
Q 1272 409 1569 409 
Q 2031 409 2368 721 
Q 2706 1034 2809 1563 
L 3194 3500 
L 3769 3500 
L 3091 0 
L 2516 0 
L 2631 550 
Q 2388 244 2052 76 
Q 1716 -91 1338 -91 
Q 878 -91 622 161 
Q 366 413 366 863 
Q 366 956 381 1097 
Q 397 1238 428 1388 
z
" transform="scale(0.015625)"/>
      <path id="DejaVuSans-Oblique-51" d="M 3566 2113 
L 3156 0 
L 2578 0 
L 2988 2091 
Q 3016 2238 3031 2350 
Q 3047 2463 3047 2528 
Q 3047 2791 2881 2937 
Q 2716 3084 2419 3084 
Q 1956 3084 1622 2776 
Q 1288 2469 1184 1941 
L 800 0 
L 225 0 
L 903 3500 
L 1478 3500 
L 1363 2950 
Q 1603 3253 1940 3418 
Q 2278 3584 2650 3584 
Q 3113 3584 3367 3334 
Q 3622 3084 3622 2631 
Q 3622 2519 3608 2391 
Q 3594 2263 3566 2113 
z
" transform="scale(0.015625)"/>
      <path id="DejaVuSans-Oblique-47" d="M 2675 525 
Q 2444 222 2128 65 
Q 1813 -91 1428 -91 
Q 903 -91 598 267 
Q 294 625 294 1247 
Q 294 1766 478 2236 
Q 663 2706 1013 3078 
Q 1244 3325 1534 3454 
Q 1825 3584 2144 3584 
Q 2481 3584 2739 3421 
Q 2997 3259 3138 2956 
L 3513 4863 
L 4091 4863 
L 3144 0 
L 2566 0 
L 2675 525 
z
M 891 1350 
Q 891 897 1095 644 
Q 1300 391 1663 391 
Q 1931 391 2161 520 
Q 2391 650 2566 903 
Q 2750 1166 2856 1509 
Q 2963 1853 2963 2188 
Q 2963 2622 2758 2865 
Q 2553 3109 2194 3109 
Q 1922 3109 1687 2981 
Q 1453 2853 1288 2613 
Q 1106 2353 998 2009 
Q 891 1666 891 1350 
z
" transform="scale(0.015625)"/>
      <path id="DejaVuSans-Oblique-48" d="M 3078 2063 
Q 3088 2113 3092 2166 
Q 3097 2219 3097 2272 
Q 3097 2653 2873 2875 
Q 2650 3097 2266 3097 
Q 1838 3097 1509 2826 
Q 1181 2556 1013 2059 
L 3078 2063 
z
M 3578 1613 
L 903 1613 
Q 884 1494 878 1425 
Q 872 1356 872 1306 
Q 872 872 1139 634 
Q 1406 397 1894 397 
Q 2269 397 2603 481 
Q 2938 566 3225 728 
L 3116 159 
Q 2806 34 2476 -28 
Q 2147 -91 1806 -91 
Q 1078 -91 686 257 
Q 294 606 294 1247 
Q 294 1794 489 2264 
Q 684 2734 1063 3103 
Q 1306 3334 1642 3459 
Q 1978 3584 2356 3584 
Q 2950 3584 3301 3228 
Q 3653 2872 3653 2272 
Q 3653 2128 3634 1964 
Q 3616 1800 3578 1613 
z
" transform="scale(0.015625)"/>
      <path id="DejaVuSans-Oblique-3" transform="scale(0.015625)"/>
      <path id="DejaVuSans-Oblique-46" d="M 3431 3366 
L 3316 2797 
Q 3109 2947 2876 3022 
Q 2644 3097 2394 3097 
Q 2119 3097 1870 3000 
Q 1622 2903 1453 2725 
Q 1184 2453 1037 2087 
Q 891 1722 891 1331 
Q 891 859 1127 628 
Q 1363 397 1844 397 
Q 2081 397 2348 469 
Q 2616 541 2906 684 
L 2797 116 
Q 2547 13 2283 -39 
Q 2019 -91 1741 -91 
Q 1044 -91 669 257 
Q 294 606 294 1253 
Q 294 1797 489 2255 
Q 684 2713 1069 3078 
Q 1331 3328 1684 3456 
Q 2038 3584 2456 3584 
Q 2700 3584 2940 3529 
Q 3181 3475 3431 3366 
z
" transform="scale(0.015625)"/>
      <path id="DejaVuSans-Oblique-50" d="M 5747 2113 
L 5338 0 
L 4763 0 
L 5166 2094 
Q 5191 2228 5203 2325 
Q 5216 2422 5216 2491 
Q 5216 2772 5059 2928 
Q 4903 3084 4622 3084 
Q 4203 3084 3875 2770 
Q 3547 2456 3450 1953 
L 3066 0 
L 2491 0 
L 2900 2094 
Q 2925 2209 2937 2307 
Q 2950 2406 2950 2484 
Q 2950 2769 2794 2926 
Q 2638 3084 2363 3084 
Q 1938 3084 1609 2770 
Q 1281 2456 1184 1953 
L 800 0 
L 225 0 
L 909 3500 
L 1484 3500 
L 1375 2956 
Q 1609 3263 1923 3423 
Q 2238 3584 2597 3584 
Q 2978 3584 3223 3384 
Q 3469 3184 3519 2828 
Q 3781 3197 4126 3390 
Q 4472 3584 4856 3584 
Q 5306 3584 5551 3325 
Q 5797 3066 5797 2591 
Q 5797 2488 5784 2364 
Q 5772 2241 5747 2113 
z
" transform="scale(0.015625)"/>
      <path id="DejaVuSans-Oblique-53" d="M 3175 2156 
Q 3175 2616 2975 2859 
Q 2775 3103 2400 3103 
Q 2144 3103 1911 2972 
Q 1678 2841 1497 2591 
Q 1319 2344 1212 1994 
Q 1106 1644 1106 1300 
Q 1106 863 1306 627 
Q 1506 391 1875 391 
Q 2147 391 2380 519 
Q 2613 647 2778 891 
Q 2956 1147 3065 1494 
Q 3175 1841 3175 2156 
z
M 1394 2969 
Q 1625 3272 1939 3428 
Q 2253 3584 2638 3584 
Q 3175 3584 3472 3232 
Q 3769 2881 3769 2247 
Q 3769 1728 3584 1258 
Q 3400 788 3053 416 
Q 2822 169 2531 39 
Q 2241 -91 1919 -91 
Q 1547 -91 1294 64 
Q 1041 219 916 525 
L 556 -1331 
L -19 -1331 
L 922 3500 
L 1497 3500 
L 1394 2969 
z
" transform="scale(0.015625)"/>
      <path id="DejaVuSans-Oblique-44" d="M 3438 1997 
L 3047 0 
L 2472 0 
L 2578 531 
Q 2325 219 2001 64 
Q 1678 -91 1281 -91 
Q 834 -91 548 182 
Q 263 456 263 884 
Q 263 1497 752 1853 
Q 1241 2209 2100 2209 
L 2900 2209 
L 2931 2363 
Q 2938 2388 2941 2417 
Q 2944 2447 2944 2509 
Q 2944 2788 2717 2942 
Q 2491 3097 2081 3097 
Q 1800 3097 1504 3025 
Q 1209 2953 897 2809 
L 997 3341 
Q 1322 3463 1633 3523 
Q 1944 3584 2234 3584 
Q 2853 3584 3176 3315 
Q 3500 3047 3500 2534 
Q 3500 2431 3484 2292 
Q 3469 2153 3438 1997 
z
M 2816 1759 
L 2241 1759 
Q 1534 1759 1195 1570 
Q 856 1381 856 984 
Q 856 709 1029 553 
Q 1203 397 1509 397 
Q 1978 397 2328 733 
Q 2678 1069 2791 1631 
L 2816 1759 
z
" transform="scale(0.015625)"/>
      <path id="DejaVuSans-Oblique-4c" d="M 1172 4863 
L 1747 4863 
L 1606 4134 
L 1031 4134 
L 1172 4863 
z
M 909 3500 
L 1484 3500 
L 800 0 
L 225 0 
L 909 3500 
z
" transform="scale(0.015625)"/>
      <path id="DejaVuSans-Oblique-57" d="M 2706 3500 
L 2619 3053 
L 1472 3053 
L 1100 1153 
Q 1081 1047 1072 975 
Q 1063 903 1063 863 
Q 1063 663 1183 572 
Q 1303 481 1569 481 
L 2150 481 
L 2053 0 
L 1503 0 
Q 991 0 739 200 
Q 488 400 488 806 
Q 488 878 497 964 
Q 506 1050 525 1153 
L 897 3053 
L 409 3053 
L 500 3500 
L 978 3500 
L 1172 4494 
L 1747 4494 
L 1556 3500 
L 2706 3500 
z
" transform="scale(0.015625)"/>
      <path id="DejaVuSans-Oblique-29" d="M 1081 4666 
L 3756 4666 
L 3653 4134 
L 1606 4134 
L 1338 2759 
L 3188 2759 
L 3084 2228 
L 1234 2228 
L 800 0 
L 172 0 
L 1081 4666 
z
" transform="scale(0.015625)"/>
      <path id="DejaVuSans-Oblique-4a" d="M 3816 3500 
L 3219 434 
Q 3047 -456 2561 -893 
Q 2075 -1331 1253 -1331 
Q 950 -1331 690 -1286 
Q 431 -1241 206 -1147 
L 313 -588 
Q 525 -725 762 -790 
Q 1000 -856 1269 -856 
Q 1816 -856 2167 -557 
Q 2519 -259 2631 300 
L 2681 563 
Q 2441 288 2122 144 
Q 1803 0 1434 0 
Q 903 0 598 351 
Q 294 703 294 1319 
Q 294 1803 478 2267 
Q 663 2731 997 3091 
Q 1219 3328 1514 3456 
Q 1809 3584 2131 3584 
Q 2484 3584 2746 3420 
Q 3009 3256 3138 2956 
L 3238 3500 
L 3816 3500 
z
M 2950 2216 
Q 2950 2641 2750 2872 
Q 2550 3103 2181 3103 
Q 1953 3103 1747 3012 
Q 1541 2922 1394 2759 
Q 1156 2491 1023 2127 
Q 891 1763 891 1375 
Q 891 944 1092 712 
Q 1294 481 1672 481 
Q 2219 481 2584 976 
Q 2950 1472 2950 2216 
z
" transform="scale(0.015625)"/>
      <path id="DejaVuSans-Oblique-55" d="M 2853 2969 
Q 2766 3016 2653 3041 
Q 2541 3066 2413 3066 
Q 1953 3066 1609 2717 
Q 1266 2369 1153 1784 
L 800 0 
L 225 0 
L 909 3500 
L 1484 3500 
L 1375 2956 
Q 1603 3259 1920 3421 
Q 2238 3584 2597 3584 
Q 2691 3584 2781 3573 
Q 2872 3563 2963 3538 
L 2853 2969 
z
" transform="scale(0.015625)"/>
      <path id="DejaVuSans-Oblique-56" d="M 3200 3397 
L 3091 2853 
Q 2863 2978 2609 3040 
Q 2356 3103 2088 3103 
Q 1634 3103 1373 2948 
Q 1113 2794 1113 2528 
Q 1113 2219 1719 2053 
Q 1766 2041 1788 2034 
L 1972 1978 
Q 2547 1819 2739 1644 
Q 2931 1469 2931 1166 
Q 2931 609 2489 259 
Q 2047 -91 1331 -91 
Q 1053 -91 747 -37 
Q 441 16 72 128 
L 184 722 
Q 500 559 806 475 
Q 1113 391 1394 391 
Q 1816 391 2080 572 
Q 2344 753 2344 1031 
Q 2344 1331 1650 1516 
L 1591 1531 
L 1394 1581 
Q 956 1697 753 1886 
Q 550 2075 550 2369 
Q 550 2928 970 3256 
Q 1391 3584 2113 3584 
Q 2397 3584 2667 3537 
Q 2938 3491 3200 3397 
z
" transform="scale(0.015625)"/>
      <path id="DejaVuSans-Oblique-15" d="M 2950 2253 
L 934 525 
L 3163 525 
L 3053 0 
L 25 0 
L 128 531 
L 2234 2338 
Q 2656 2703 2832 2979 
Q 3009 3256 3009 3547 
Q 3009 3850 2796 4040 
Q 2584 4231 2241 4231 
Q 1944 4231 1581 4125 
Q 1219 4019 806 3816 
L 922 4441 
Q 1309 4594 1662 4672 
Q 2016 4750 2316 4750 
Q 2928 4750 3301 4425 
Q 3675 4100 3675 3572 
Q 3675 3216 3497 2892 
Q 3319 2569 2950 2253 
z
" transform="scale(0.015625)"/>
      <path id="DejaVuSans-Oblique-18" d="M 3719 4666 
L 3622 4141 
L 1691 4141 
L 1466 2988 
Q 1609 3034 1757 3056 
Q 1906 3078 2059 3078 
Q 2706 3078 3081 2731 
Q 3456 2384 3456 1791 
Q 3456 1375 3264 994 
Q 3072 613 2719 325 
Q 2469 125 2108 17 
Q 1747 -91 1319 -91 
Q 1038 -91 744 -41 
Q 450 9 128 109 
L 244 697 
Q 531 556 820 486 
Q 1109 416 1403 416 
Q 2013 416 2411 781 
Q 2809 1147 2809 1697 
Q 2809 2103 2548 2328 
Q 2288 2553 1819 2553 
Q 1572 2553 1305 2495 
Q 1038 2438 756 2322 
L 1209 4666 
L 3719 4666 
z
" transform="scale(0.015625)"/>
      <path id="DejaVuSans-Oblique-1e" d="M 563 794 
L 1222 794 
L 1113 256 
L 409 -744 
L 6 -744 
L 453 256 
L 563 794 
z
M 1050 3309 
L 1709 3309 
L 1556 2516 
L 897 2516 
L 1050 3309 
z
" transform="scale(0.015625)"/>
      <path id="DejaVuSans-Oblique-49" d="M 3059 4863 
L 2969 4384 
L 2419 4384 
Q 2106 4384 1964 4261 
Q 1822 4138 1753 3809 
L 1691 3500 
L 2638 3500 
L 2553 3053 
L 1606 3053 
L 1013 0 
L 434 0 
L 1031 3053 
L 481 3053 
L 563 3500 
L 1113 3500 
L 1159 3744 
Q 1278 4363 1576 4613 
Q 1875 4863 2516 4863 
L 3059 4863 
z
" transform="scale(0.015625)"/>
      <path id="DejaVuSans-Oblique-11" d="M 525 794 
L 1184 794 
L 1031 0 
L 372 0 
L 525 794 
z
" transform="scale(0.015625)"/>
     </defs>
     <use xlink:href="#DejaVuSans-Oblique-25"/>
     <use xlink:href="#DejaVuSans-Oblique-52" transform="translate(68.609375 0)"/>
     <use xlink:href="#DejaVuSans-Oblique-58" transform="translate(129.796875 0)"/>
     <use xlink:href="#DejaVuSans-Oblique-51" transform="translate(193.171875 0)"/>
     <use xlink:href="#DejaVuSans-Oblique-47" transform="translate(256.546875 0)"/>
     <use xlink:href="#DejaVuSans-Oblique-48" transform="translate(320.03125 0)"/>
     <use xlink:href="#DejaVuSans-Oblique-47" transform="translate(381.5625 0)"/>
     <use xlink:href="#DejaVuSans-Oblique-3" transform="translate(445.046875 0)"/>
     <use xlink:href="#DejaVuSans-Oblique-46" transform="translate(476.828125 0)"/>
     <use xlink:href="#DejaVuSans-Oblique-52" transform="translate(531.8125 0)"/>
     <use xlink:href="#DejaVuSans-Oblique-50" transform="translate(593 0)"/>
     <use xlink:href="#DejaVuSans-Oblique-53" transform="translate(690.40625 0)"/>
     <use xlink:href="#DejaVuSans-Oblique-44" transform="translate(753.890625 0)"/>
     <use xlink:href="#DejaVuSans-Oblique-51" transform="translate(815.171875 0)"/>
     <use xlink:href="#DejaVuSans-Oblique-4c" transform="translate(878.546875 0)"/>
     <use xlink:href="#DejaVuSans-Oblique-52" transform="translate(906.328125 0)"/>
     <use xlink:href="#DejaVuSans-Oblique-51" transform="translate(967.515625 0)"/>
     <use xlink:href="#DejaVuSans-Oblique-3" transform="translate(1030.890625 0)"/>
     <use xlink:href="#DejaVuSans-Oblique-57" transform="translate(1062.671875 0)"/>
     <use xlink:href="#DejaVuSans-Oblique-52" transform="translate(1101.875 0)"/>
     <use xlink:href="#DejaVuSans-Oblique-3" transform="translate(1163.0625 0)"/>
     <use xlink:href="#DejaVuSans-Oblique-29" transform="translate(1194.84375 0)"/>
     <use xlink:href="#DejaVuSans-Oblique-4c" transform="translate(1252.359375 0)"/>
     <use xlink:href="#DejaVuSans-Oblique-4a" transform="translate(1280.140625 0)"/>
     <use xlink:href="#DejaVuSans-Oblique-58" transform="translate(1343.625 0)"/>
     <use xlink:href="#DejaVuSans-Oblique-55" transform="translate(1407 0)"/>
     <use xlink:href="#DejaVuSans-Oblique-48" transform="translate(1448.109375 0)"/>
     <use xlink:href="#DejaVuSans-Oblique-56" transform="translate(1509.640625 0)"/>
     <use xlink:href="#DejaVuSans-Oblique-3" transform="translate(1561.734375 0)"/>
     <use xlink:href="#DejaVuSans-Oblique-15" transform="translate(1593.515625 0)"/>
     <use xlink:href="#DejaVuSans-Oblique-3" transform="translate(1657.140625 0)"/>
     <use xlink:href="#DejaVuSans-Oblique-44" transform="translate(1688.921875 0)"/>
     <use xlink:href="#DejaVuSans-Oblique-51" transform="translate(1750.203125 0)"/>
     <use xlink:href="#DejaVuSans-Oblique-47" transform="translate(1813.578125 0)"/>
     <use xlink:href="#DejaVuSans-Oblique-3" transform="translate(1877.0625 0)"/>
     <use xlink:href="#DejaVuSans-Oblique-18" transform="translate(1908.84375 0)"/>
     <use xlink:href="#DejaVuSans-Oblique-1e" transform="translate(1972.46875 0)"/>
     <use xlink:href="#DejaVuSans-Oblique-3" transform="translate(2006.15625 0)"/>
     <use xlink:href="#DejaVuSans-Oblique-51" transform="translate(2037.9375 0)"/>
     <use xlink:href="#DejaVuSans-Oblique-52" transform="translate(2101.3125 0)"/>
     <use xlink:href="#DejaVuSans-Oblique-57" transform="translate(2162.5 0)"/>
     <use xlink:href="#DejaVuSans-Oblique-3" transform="translate(2201.703125 0)"/>
     <use xlink:href="#DejaVuSans-Oblique-44" transform="translate(2233.484375 0)"/>
     <use xlink:href="#DejaVuSans-Oblique-3" transform="translate(2294.765625 0)"/>
     <use xlink:href="#DejaVuSans-Oblique-46" transform="translate(2326.546875 0)"/>
     <use xlink:href="#DejaVuSans-Oblique-52" transform="translate(2381.53125 0)"/>
     <use xlink:href="#DejaVuSans-Oblique-55" transform="translate(2442.71875 0)"/>
     <use xlink:href="#DejaVuSans-Oblique-48" transform="translate(2483.828125 0)"/>
     <use xlink:href="#DejaVuSans-Oblique-3" transform="translate(2545.359375 0)"/>
     <use xlink:href="#DejaVuSans-Oblique-46" transform="translate(2577.140625 0)"/>
     <use xlink:href="#DejaVuSans-Oblique-52" transform="translate(2632.125 0)"/>
     <use xlink:href="#DejaVuSans-Oblique-58" transform="translate(2693.3125 0)"/>
     <use xlink:href="#DejaVuSans-Oblique-51" transform="translate(2756.6875 0)"/>
     <use xlink:href="#DejaVuSans-Oblique-57" transform="translate(2820.0625 0)"/>
     <use xlink:href="#DejaVuSans-Oblique-3" transform="translate(2859.265625 0)"/>
     <use xlink:href="#DejaVuSans-Oblique-56" transform="translate(2891.046875 0)"/>
     <use xlink:href="#DejaVuSans-Oblique-58" transform="translate(2943.140625 0)"/>
     <use xlink:href="#DejaVuSans-Oblique-55" transform="translate(3006.515625 0)"/>
     <use xlink:href="#DejaVuSans-Oblique-49" transform="translate(3047.625 0)"/>
     <use xlink:href="#DejaVuSans-Oblique-44" transform="translate(3082.828125 0)"/>
     <use xlink:href="#DejaVuSans-Oblique-46" transform="translate(3144.109375 0)"/>
     <use xlink:href="#DejaVuSans-Oblique-48" transform="translate(3199.09375 0)"/>
     <use xlink:href="#DejaVuSans-Oblique-11" transform="translate(3260.625 0)"/>
    </g>
    <!-- [publication_buckets_present] indicates where members appear in the manuscript. -->
    <g style="fill: #636363" transform="translate(301.207969 340.782363) scale(0.07 -0.07)">
     <defs>
      <path id="DejaVuSans-Oblique-3e" d="M 1363 4863 
L 2688 4863 
L 2597 4416 
L 1850 4416 
L 916 -397 
L 1663 -397 
L 1581 -844 
L 256 -844 
L 1363 4863 
z
" transform="scale(0.015625)"/>
      <path id="DejaVuSans-Oblique-45" d="M 3169 2138 
Q 3169 2591 2961 2847 
Q 2753 3103 2388 3103 
Q 2122 3103 1889 2973 
Q 1656 2844 1484 2597 
Q 1303 2338 1198 1995 
Q 1094 1653 1094 1313 
Q 1094 881 1298 636 
Q 1503 391 1863 391 
Q 2134 391 2365 517 
Q 2597 644 2772 891 
Q 2950 1147 3059 1487 
Q 3169 1828 3169 2138 
z
M 1381 2969 
Q 1594 3256 1914 3420 
Q 2234 3584 2584 3584 
Q 3122 3584 3439 3221 
Q 3756 2859 3756 2241 
Q 3756 1734 3570 1259 
Q 3384 784 3041 416 
Q 2816 172 2522 40 
Q 2228 -91 1906 -91 
Q 1566 -91 1316 65 
Q 1066 222 909 531 
L 806 0 
L 231 0 
L 1178 4863 
L 1753 4863 
L 1381 2969 
z
" transform="scale(0.015625)"/>
      <path id="DejaVuSans-Oblique-4f" d="M 1172 4863 
L 1747 4863 
L 800 0 
L 225 0 
L 1172 4863 
z
" transform="scale(0.015625)"/>
      <path id="DejaVuSans-Oblique-42" d="M 3263 -1063 
L 3263 -1509 
L -63 -1509 
L -63 -1063 
L 3263 -1063 
z
" transform="scale(0.015625)"/>
      <path id="DejaVuSans-Oblique-4e" d="M 1172 4863 
L 1747 4863 
L 1197 2028 
L 3169 3500 
L 3916 3500 
L 1716 1825 
L 3322 0 
L 2625 0 
L 1131 1709 
L 800 0 
L 225 0 
L 1172 4863 
z
" transform="scale(0.015625)"/>
      <path id="DejaVuSans-Oblique-40" d="M 2188 4863 
L 1081 -844 
L -244 -844 
L -159 -397 
L 588 -397 
L 1522 4416 
L 781 4416 
L 863 4863 
L 2188 4863 
z
" transform="scale(0.015625)"/>
      <path id="DejaVuSans-Oblique-5a" d="M 544 3500 
L 1113 3500 
L 1259 684 
L 2566 3500 
L 3231 3500 
L 3425 684 
L 4666 3500 
L 5241 3500 
L 3641 0 
L 2969 0 
L 2797 2900 
L 1459 0 
L 781 0 
L 544 3500 
z
" transform="scale(0.015625)"/>
      <path id="DejaVuSans-Oblique-4b" d="M 3566 2113 
L 3156 0 
L 2578 0 
L 2988 2091 
Q 3016 2238 3031 2350 
Q 3047 2463 3047 2528 
Q 3047 2791 2881 2937 
Q 2716 3084 2419 3084 
Q 1956 3084 1617 2771 
Q 1278 2459 1178 1941 
L 800 0 
L 225 0 
L 1172 4863 
L 1747 4863 
L 1375 2950 
Q 1594 3244 1934 3414 
Q 2275 3584 2650 3584 
Q 3113 3584 3367 3334 
Q 3622 3084 3622 2631 
Q 3622 2519 3608 2391 
Q 3594 2263 3566 2113 
z
" transform="scale(0.015625)"/>
     </defs>
     <use xlink:href="#DejaVuSans-Oblique-3e"/>
     <use xlink:href="#DejaVuSans-Oblique-53" transform="translate(39.015625 0)"/>
     <use xlink:href="#DejaVuSans-Oblique-58" transform="translate(102.5 0)"/>
     <use xlink:href="#DejaVuSans-Oblique-45" transform="translate(165.875 0)"/>
     <use xlink:href="#DejaVuSans-Oblique-4f" transform="translate(229.359375 0)"/>
     <use xlink:href="#DejaVuSans-Oblique-4c" transform="translate(257.140625 0)"/>
     <use xlink:href="#DejaVuSans-Oblique-46" transform="translate(284.921875 0)"/>
     <use xlink:href="#DejaVuSans-Oblique-44" transform="translate(339.90625 0)"/>
     <use xlink:href="#DejaVuSans-Oblique-57" transform="translate(401.1875 0)"/>
     <use xlink:href="#DejaVuSans-Oblique-4c" transform="translate(440.390625 0)"/>
     <use xlink:href="#DejaVuSans-Oblique-52" transform="translate(468.171875 0)"/>
     <use xlink:href="#DejaVuSans-Oblique-51" transform="translate(529.359375 0)"/>
     <use xlink:href="#DejaVuSans-Oblique-42" transform="translate(592.734375 0)"/>
     <use xlink:href="#DejaVuSans-Oblique-45" transform="translate(642.734375 0)"/>
     <use xlink:href="#DejaVuSans-Oblique-58" transform="translate(706.21875 0)"/>
     <use xlink:href="#DejaVuSans-Oblique-46" transform="translate(769.59375 0)"/>
     <use xlink:href="#DejaVuSans-Oblique-4e" transform="translate(824.578125 0)"/>
     <use xlink:href="#DejaVuSans-Oblique-48" transform="translate(882.484375 0)"/>
     <use xlink:href="#DejaVuSans-Oblique-57" transform="translate(944.015625 0)"/>
     <use xlink:href="#DejaVuSans-Oblique-56" transform="translate(983.21875 0)"/>
     <use xlink:href="#DejaVuSans-Oblique-42" transform="translate(1035.3125 0)"/>
     <use xlink:href="#DejaVuSans-Oblique-53" transform="translate(1085.3125 0)"/>
     <use xlink:href="#DejaVuSans-Oblique-55" transform="translate(1148.796875 0)"/>
     <use xlink:href="#DejaVuSans-Oblique-48" transform="translate(1189.90625 0)"/>
     <use xlink:href="#DejaVuSans-Oblique-56" transform="translate(1251.4375 0)"/>
     <use xlink:href="#DejaVuSans-Oblique-48" transform="translate(1303.53125 0)"/>
     <use xlink:href="#DejaVuSans-Oblique-51" transform="translate(1365.0625 0)"/>
     <use xlink:href="#DejaVuSans-Oblique-57" transform="translate(1428.4375 0)"/>
     <use xlink:href="#DejaVuSans-Oblique-40" transform="translate(1467.640625 0)"/>
     <use xlink:href="#DejaVuSans-Oblique-3" transform="translate(1506.65625 0)"/>
     <use xlink:href="#DejaVuSans-Oblique-4c" transform="translate(1538.4375 0)"/>
     <use xlink:href="#DejaVuSans-Oblique-51" transform="translate(1566.21875 0)"/>
     <use xlink:href="#DejaVuSans-Oblique-47" transform="translate(1629.59375 0)"/>
     <use xlink:href="#DejaVuSans-Oblique-4c" transform="translate(1693.078125 0)"/>
     <use xlink:href="#DejaVuSans-Oblique-46" transform="translate(1720.859375 0)"/>
     <use xlink:href="#DejaVuSans-Oblique-44" transform="translate(1775.84375 0)"/>
     <use xlink:href="#DejaVuSans-Oblique-57" transform="translate(1837.125 0)"/>
     <use xlink:href="#DejaVuSans-Oblique-48" transform="translate(1876.328125 0)"/>
     <use xlink:href="#DejaVuSans-Oblique-56" transform="translate(1937.859375 0)"/>
     <use xlink:href="#DejaVuSans-Oblique-3" transform="translate(1989.953125 0)"/>
     <use xlink:href="#DejaVuSans-Oblique-5a" transform="translate(2021.734375 0)"/>
     <use xlink:href="#DejaVuSans-Oblique-4b" transform="translate(2103.515625 0)"/>
     <use xlink:href="#DejaVuSans-Oblique-48" transform="translate(2166.890625 0)"/>
     <use xlink:href="#DejaVuSans-Oblique-55" transform="translate(2228.421875 0)"/>
     <use xlink:href="#DejaVuSans-Oblique-48" transform="translate(2269.53125 0)"/>
     <use xlink:href="#DejaVuSans-Oblique-3" transform="translate(2331.0625 0)"/>
     <use xlink:href="#DejaVuSans-Oblique-50" transform="translate(2362.84375 0)"/>
     <use xlink:href="#DejaVuSans-Oblique-48" transform="translate(2460.25 0)"/>
     <use xlink:href="#DejaVuSans-Oblique-50" transform="translate(2521.78125 0)"/>
     <use xlink:href="#DejaVuSans-Oblique-45" transform="translate(2619.1875 0)"/>
     <use xlink:href="#DejaVuSans-Oblique-48" transform="translate(2682.671875 0)"/>
     <use xlink:href="#DejaVuSans-Oblique-55" transform="translate(2744.203125 0)"/>
     <use xlink:href="#DejaVuSans-Oblique-56" transform="translate(2785.3125 0)"/>
     <use xlink:href="#DejaVuSans-Oblique-3" transform="translate(2837.40625 0)"/>
     <use xlink:href="#DejaVuSans-Oblique-44" transform="translate(2869.1875 0)"/>
     <use xlink:href="#DejaVuSans-Oblique-53" transform="translate(2930.46875 0)"/>
     <use xlink:href="#DejaVuSans-Oblique-53" transform="translate(2993.953125 0)"/>
     <use xlink:href="#DejaVuSans-Oblique-48" transform="translate(3057.4375 0)"/>
     <use xlink:href="#DejaVuSans-Oblique-44" transform="translate(3118.96875 0)"/>
     <use xlink:href="#DejaVuSans-Oblique-55" transform="translate(3180.25 0)"/>
     <use xlink:href="#DejaVuSans-Oblique-3" transform="translate(3221.359375 0)"/>
     <use xlink:href="#DejaVuSans-Oblique-4c" transform="translate(3253.140625 0)"/>
     <use xlink:href="#DejaVuSans-Oblique-51" transform="translate(3280.921875 0)"/>
     <use xlink:href="#DejaVuSans-Oblique-3" transform="translate(3344.296875 0)"/>
     <use xlink:href="#DejaVuSans-Oblique-57" transform="translate(3376.078125 0)"/>
     <use xlink:href="#DejaVuSans-Oblique-4b" transform="translate(3415.28125 0)"/>
     <use xlink:href="#DejaVuSans-Oblique-48" transform="translate(3478.65625 0)"/>
     <use xlink:href="#DejaVuSans-Oblique-3" transform="translate(3540.1875 0)"/>
     <use xlink:href="#DejaVuSans-Oblique-50" transform="translate(3571.96875 0)"/>
     <use xlink:href="#DejaVuSans-Oblique-44" transform="translate(3669.375 0)"/>
     <use xlink:href="#DejaVuSans-Oblique-51" transform="translate(3730.65625 0)"/>
     <use xlink:href="#DejaVuSans-Oblique-58" transform="translate(3794.03125 0)"/>
     <use xlink:href="#DejaVuSans-Oblique-56" transform="translate(3857.40625 0)"/>
     <use xlink:href="#DejaVuSans-Oblique-46" transform="translate(3909.5 0)"/>
     <use xlink:href="#DejaVuSans-Oblique-55" transform="translate(3964.484375 0)"/>
     <use xlink:href="#DejaVuSans-Oblique-4c" transform="translate(4005.59375 0)"/>
     <use xlink:href="#DejaVuSans-Oblique-53" transform="translate(4033.375 0)"/>
     <use xlink:href="#DejaVuSans-Oblique-57" transform="translate(4096.859375 0)"/>
     <use xlink:href="#DejaVuSans-Oblique-11" transform="translate(4136.0625 0)"/>
    </g>
   </g>
   <g id="text_21">
    <!-- Figure 7. Security Threshold Ladder -->
    <g transform="translate(349.296797 16.659355) scale(0.11 -0.11)">
     <defs>
      <path id="DejaVuSans-29" d="M 628 4666 
L 3309 4666 
L 3309 4134 
L 1259 4134 
L 1259 2759 
L 3109 2759 
L 3109 2228 
L 1259 2228 
L 1259 0 
L 628 0 
L 628 4666 
z
" transform="scale(0.015625)"/>
      <path id="DejaVuSans-11" d="M 684 794 
L 1344 794 
L 1344 0 
L 684 0 
L 684 794 
z
" transform="scale(0.015625)"/>
      <path id="DejaVuSans-36" d="M 3425 4513 
L 3425 3897 
Q 3066 4069 2747 4153 
Q 2428 4238 2131 4238 
Q 1616 4238 1336 4038 
Q 1056 3838 1056 3469 
Q 1056 3159 1242 3001 
Q 1428 2844 1947 2747 
L 2328 2669 
Q 3034 2534 3370 2195 
Q 3706 1856 3706 1288 
Q 3706 609 3251 259 
Q 2797 -91 1919 -91 
Q 1588 -91 1214 -16 
Q 841 59 441 206 
L 441 856 
Q 825 641 1194 531 
Q 1563 422 1919 422 
Q 2459 422 2753 634 
Q 3047 847 3047 1241 
Q 3047 1584 2836 1778 
Q 2625 1972 2144 2069 
L 1759 2144 
Q 1053 2284 737 2584 
Q 422 2884 422 3419 
Q 422 4038 858 4394 
Q 1294 4750 2059 4750 
Q 2388 4750 2728 4690 
Q 3069 4631 3425 4513 
z
" transform="scale(0.015625)"/>
      <path id="DejaVuSans-37" d="M -19 4666 
L 3928 4666 
L 3928 4134 
L 2272 4134 
L 2272 0 
L 1638 0 
L 1638 4134 
L -19 4134 
L -19 4666 
z
" transform="scale(0.015625)"/>
     </defs>
     <use xlink:href="#DejaVuSans-29"/>
     <use xlink:href="#DejaVuSans-4c" transform="translate(50.234375 0)"/>
     <use xlink:href="#DejaVuSans-4a" transform="translate(78.015625 0)"/>
     <use xlink:href="#DejaVuSans-58" transform="translate(141.5 0)"/>
     <use xlink:href="#DejaVuSans-55" transform="translate(204.875 0)"/>
     <use xlink:href="#DejaVuSans-48" transform="translate(243.78125 0)"/>
     <use xlink:href="#DejaVuSans-3" transform="translate(305.3125 0)"/>
     <use xlink:href="#DejaVuSans-1a" transform="translate(337.09375 0)"/>
     <use xlink:href="#DejaVuSans-11" transform="translate(400.71875 0)"/>
     <use xlink:href="#DejaVuSans-3" transform="translate(432.5 0)"/>
     <use xlink:href="#DejaVuSans-36" transform="translate(464.28125 0)"/>
     <use xlink:href="#DejaVuSans-48" transform="translate(527.765625 0)"/>
     <use xlink:href="#DejaVuSans-46" transform="translate(589.296875 0)"/>
     <use xlink:href="#DejaVuSans-58" transform="translate(644.28125 0)"/>
     <use xlink:href="#DejaVuSans-55" transform="translate(707.65625 0)"/>
     <use xlink:href="#DejaVuSans-4c" transform="translate(748.765625 0)"/>
     <use xlink:href="#DejaVuSans-57" transform="translate(776.546875 0)"/>
     <use xlink:href="#DejaVuSans-5c" transform="translate(815.75 0)"/>
     <use xlink:href="#DejaVuSans-3" transform="translate(874.9375 0)"/>
     <use xlink:href="#DejaVuSans-37" transform="translate(906.71875 0)"/>
     <use xlink:href="#DejaVuSans-4b" transform="translate(967.796875 0)"/>
     <use xlink:href="#DejaVuSans-55" transform="translate(1031.171875 0)"/>
     <use xlink:href="#DejaVuSans-48" transform="translate(1070.078125 0)"/>
     <use xlink:href="#DejaVuSans-56" transform="translate(1131.609375 0)"/>
     <use xlink:href="#DejaVuSans-4b" transform="translate(1183.703125 0)"/>
     <use xlink:href="#DejaVuSans-52" transform="translate(1247.078125 0)"/>
     <use xlink:href="#DejaVuSans-4f" transform="translate(1308.265625 0)"/>
     <use xlink:href="#DejaVuSans-47" transform="translate(1336.046875 0)"/>
     <use xlink:href="#DejaVuSans-3" transform="translate(1399.53125 0)"/>
     <use xlink:href="#DejaVuSans-2f" transform="translate(1431.3125 0)"/>
     <use xlink:href="#DejaVuSans-44" transform="translate(1487.03125 0)"/>
     <use xlink:href="#DejaVuSans-47" transform="translate(1548.3125 0)"/>
     <use xlink:href="#DejaVuSans-47" transform="translate(1611.796875 0)"/>
     <use xlink:href="#DejaVuSans-48" transform="translate(1675.28125 0)"/>
     <use xlink:href="#DejaVuSans-55" transform="translate(1736.8125 0)"/>
    </g>
    <!-- Denominator: 4 threshold classes, 11 total security rows -->
    <g transform="translate(291.642187 29.862363) scale(0.11 -0.11)">
     <defs>
      <path id="DejaVuSans-1d" d="M 750 794 
L 1409 794 
L 1409 0 
L 750 0 
L 750 794 
z
M 750 3309 
L 1409 3309 
L 1409 2516 
L 750 2516 
L 750 3309 
z
" transform="scale(0.015625)"/>
      <path id="DejaVuSans-f" d="M 750 794 
L 1409 794 
L 1409 256 
L 897 -744 
L 494 -744 
L 750 256 
L 750 794 
z
" transform="scale(0.015625)"/>
     </defs>
     <use xlink:href="#DejaVuSans-27"/>
     <use xlink:href="#DejaVuSans-48" transform="translate(77 0)"/>
     <use xlink:href="#DejaVuSans-51" transform="translate(138.53125 0)"/>
     <use xlink:href="#DejaVuSans-52" transform="translate(201.90625 0)"/>
     <use xlink:href="#DejaVuSans-50" transform="translate(263.09375 0)"/>
     <use xlink:href="#DejaVuSans-4c" transform="translate(360.5 0)"/>
     <use xlink:href="#DejaVuSans-51" transform="translate(388.28125 0)"/>
     <use xlink:href="#DejaVuSans-44" transform="translate(451.65625 0)"/>
     <use xlink:href="#DejaVuSans-57" transform="translate(512.9375 0)"/>
     <use xlink:href="#DejaVuSans-52" transform="translate(552.140625 0)"/>
     <use xlink:href="#DejaVuSans-55" transform="translate(613.328125 0)"/>
     <use xlink:href="#DejaVuSans-1d" transform="translate(652.6875 0)"/>
     <use xlink:href="#DejaVuSans-3" transform="translate(686.375 0)"/>
     <use xlink:href="#DejaVuSans-17" transform="translate(718.15625 0)"/>
     <use xlink:href="#DejaVuSans-3" transform="translate(781.78125 0)"/>
     <use xlink:href="#DejaVuSans-57" transform="translate(813.5625 0)"/>
     <use xlink:href="#DejaVuSans-4b" transform="translate(852.765625 0)"/>
     <use xlink:href="#DejaVuSans-55" transform="translate(916.140625 0)"/>
     <use xlink:href="#DejaVuSans-48" transform="translate(955.046875 0)"/>
     <use xlink:href="#DejaVuSans-56" transform="translate(1016.578125 0)"/>
     <use xlink:href="#DejaVuSans-4b" transform="translate(1068.671875 0)"/>
     <use xlink:href="#DejaVuSans-52" transform="translate(1132.046875 0)"/>
     <use xlink:href="#DejaVuSans-4f" transform="translate(1193.234375 0)"/>
     <use xlink:href="#DejaVuSans-47" transform="translate(1221.015625 0)"/>
     <use xlink:href="#DejaVuSans-3" transform="translate(1284.5 0)"/>
     <use xlink:href="#DejaVuSans-46" transform="translate(1316.28125 0)"/>
     <use xlink:href="#DejaVuSans-4f" transform="translate(1371.265625 0)"/>
     <use xlink:href="#DejaVuSans-44" transform="translate(1399.046875 0)"/>
     <use xlink:href="#DejaVuSans-56" transform="translate(1460.328125 0)"/>
     <use xlink:href="#DejaVuSans-56" transform="translate(1512.421875 0)"/>
     <use xlink:href="#DejaVuSans-48" transform="translate(1564.515625 0)"/>
     <use xlink:href="#DejaVuSans-56" transform="translate(1626.046875 0)"/>
     <use xlink:href="#DejaVuSans-f" transform="translate(1678.140625 0)"/>
     <use xlink:href="#DejaVuSans-3" transform="translate(1709.921875 0)"/>
     <use xlink:href="#DejaVuSans-14" transform="translate(1741.703125 0)"/>
     <use xlink:href="#DejaVuSans-14" transform="translate(1805.328125 0)"/>
     <use xlink:href="#DejaVuSans-3" transform="translate(1868.953125 0)"/>
     <use xlink:href="#DejaVuSans-57" transform="translate(1900.734375 0)"/>
     <use xlink:href="#DejaVuSans-52" transform="translate(1939.9375 0)"/>
     <use xlink:href="#DejaVuSans-57" transform="translate(2001.125 0)"/>
     <use xlink:href="#DejaVuSans-44" transform="translate(2040.328125 0)"/>
     <use xlink:href="#DejaVuSans-4f" transform="translate(2101.609375 0)"/>
     <use xlink:href="#DejaVuSans-3" transform="translate(2129.390625 0)"/>
     <use xlink:href="#DejaVuSans-56" transform="translate(2161.171875 0)"/>
     <use xlink:href="#DejaVuSans-48" transform="translate(2213.265625 0)"/>
     <use xlink:href="#DejaVuSans-46" transform="translate(2274.796875 0)"/>
     <use xlink:href="#DejaVuSans-58" transform="translate(2329.78125 0)"/>
     <use xlink:href="#DejaVuSans-55" transform="translate(2393.15625 0)"/>
     <use xlink:href="#DejaVuSans-4c" transform="translate(2434.265625 0)"/>
     <use xlink:href="#DejaVuSans-57" transform="translate(2462.046875 0)"/>
     <use xlink:href="#DejaVuSans-5c" transform="translate(2501.25 0)"/>
     <use xlink:href="#DejaVuSans-3" transform="translate(2560.4375 0)"/>
     <use xlink:href="#DejaVuSans-55" transform="translate(2592.21875 0)"/>
     <use xlink:href="#DejaVuSans-52" transform="translate(2631.125 0)"/>
     <use xlink:href="#DejaVuSans-5a" transform="translate(2692.3125 0)"/>
     <use xlink:href="#DejaVuSans-56" transform="translate(2774.09375 0)"/>
    </g>
   </g>
  </g>
 </g>
 <defs>
  <clipPath id="pa289a1e4c1">
   <rect x="223.8825" y="35.862363" width="446.4" height="277.2"/>
  </clipPath>
 </defs>
</svg>
